SplineFontDB: 3.0
FontName: SPRamasun-Oblique
FullName: SP Ramasun Oblique
FamilyName: SP Ramasun
Weight: Book
Copyright: Copyright (c) 2006 by Department of Intellectual Property (DIP), Ministry of Commerce and Software Industry Promotion Agency (Public Organization) (SIPA). All rights reserved.
Version: 2.3
ItalicAngle: -12
UnderlinePosition: -35
UnderlineWidth: 30
Ascent: 800
Descent: 200
LayerCount: 2
Layer: 0 0 "Back"  1
Layer: 1 0 "Fore"  0
XUID: [1021 375 425136265 9208739]
FSType: 0
OS2Version: 3
OS2_WeightWidthSlopeOnly: 0
OS2_UseTypoMetrics: 1
CreationTime: 1158666480
ModificationTime: 1404908144
PfmFamily: 17
TTFWeight: 400
TTFWidth: 5
LineGap: 60
VLineGap: 0
Panose: 2 0 5 6 0 0 0 2 0 4
OS2TypoAscent: 0
OS2TypoAOffset: 1
OS2TypoDescent: 0
OS2TypoDOffset: 1
OS2TypoLinegap: 0
OS2WinAscent: 16
OS2WinAOffset: 1
OS2WinDescent: -207
OS2WinDOffset: 1
HheadAscent: 16
HheadAOffset: 1
HheadDescent: 207
HheadDOffset: 1
OS2SubXSize: 700
OS2SubYSize: 650
OS2SubXOff: 0
OS2SubYOff: 140
OS2SupXSize: 700
OS2SupYSize: 650
OS2SupXOff: 0
OS2SupYOff: 477
OS2StrikeYSize: 30
OS2StrikeYPos: 250
OS2FamilyClass: 773
OS2Vendor: 'ASSA'
Lookup: 4 0 0 "'frac' Diagonal Fractions in Latin lookup 0"  {"'frac' Diagonal Fractions in Latin lookup 0 subtable"  } ['frac' ('latn' <'dflt' > ) ]
Lookup: 6 0 0 "'liga' Standard Ligatures in Latin lookup 1"  {"'liga' Standard Ligatures in Latin lookup 1 subtable"  } ['liga' ('latn' <'dflt' > ) ]
Lookup: 6 0 0 "'liga' Standard Ligatures in Latin lookup 2"  {"'liga' Standard Ligatures in Latin lookup 2 subtable"  } ['liga' ('latn' <'dflt' > ) ]
Lookup: 6 0 0 "'liga' Standard Ligatures in Latin lookup 3"  {"'liga' Standard Ligatures in Latin lookup 3 subtable"  } ['liga' ('latn' <'dflt' > ) ]
Lookup: 6 0 0 "'liga' Standard Ligatures in Latin lookup 4"  {"'liga' Standard Ligatures in Latin lookup 4 subtable"  } ['liga' ('latn' <'dflt' > ) ]

StartChar: .notdef
Encoding: 65536 -1 0
Width: 647
VWidth: 1661
Flags: W
HStem: 0 60<125 513> 897 60<302 691>
LayerCount: 2
Fore
SplineSet
256 957 m 1
 764 957 l 1
 560 0 l 1
 53 0 l 1
 256 957 l 1
513 60 m 1
 691 897 l 1
 302 897 l 1
 125 60 l 1
 513 60 l 1
EndSplineSet
Validated: 1
EndChar

StartChar: numbersign
Encoding: 35 35 4
Width: 589
VWidth: 1661
Flags: W
HStem: 0 21G<130 195.533 309 375.4> 150 59<108 178 257 357 435 507> 389 60<184 254 334 434 513 583>
LayerCount: 2
Fore
SplineSet
583 389 m 1
 493 389 l 1
 435 209 l 1
 525 209 l 1
 507 150 l 1
 417 150 l 1
 369 0 l 1
 309 0 l 1
 357 150 l 1
 238 150 l 1
 189 0 l 1
 130 0 l 1
 178 150 l 1
 88 150 l 1
 108 209 l 1
 198 209 l 1
 254 389 l 1
 164 389 l 1
 184 449 l 1
 274 449 l 1
 321 598 l 1
 380 598 l 1
 334 449 l 1
 454 449 l 1
 500 598 l 1
 560 598 l 1
 513 449 l 1
 603 449 l 1
 583 389 l 1
375 209 m 1
 434 389 l 1
 314 389 l 1
 257 209 l 1
 375 209 l 1
EndSplineSet
Validated: 1
EndChar

StartChar: dollar
Encoding: 36 36 5
Width: 616
VWidth: 1661
Flags: W
HStem: 0 60<196 262 322 430> 299 58<244 482> 508 21G<565 629.333> 598 60<296 404 463 530>
LayerCount: 2
Fore
SplineSet
518 357 m 1
 590 269 l 1
 552 90 l 1
 442 0 l 1
 322 0 l 1
 311 -60 l 1
 251 -60 l 1
 262 0 l 1
 158 0 l 1
 88 90 l 1
 101 150 l 1
 161 150 l 1
 153 115 l 1
 196 60 l 1
 430 60 l 1
 497 115 l 1
 525 244 l 1
 482 299 l 1
 208 299 l 1
 136 387 l 1
 174 568 l 1
 284 658 l 1
 404 658 l 1
 415 718 l 1
 475 718 l 1
 463 658 l 1
 568 658 l 1
 638 568 l 1
 625 508 l 1
 565 508 l 1
 573 543 l 1
 530 598 l 1
 296 598 l 1
 229 543 l 1
 201 412 l 1
 244 357 l 1
 518 357 l 1
EndSplineSet
Validated: 1
EndChar

StartChar: percent
Encoding: 37 37 6
Width: 677
VWidth: 1661
Flags: W
HStem: 0 21G<86 169.71> 60 51<462 535> 276 53<497 570> 389 51<233 306> 605 53<267 341>
LayerCount: 2
Fore
SplineSet
316 389 m 1
 199 389 l 1
 151 450 l 1
 183 596 l 1
 257 658 l 1
 374 658 l 1
 422 596 l 1
 390 450 l 1
 316 389 l 1
231 575 m 1
 209 472 l 1
 233 440 l 1
 306 440 l 1
 344 472 l 1
 365 575 l 1
 341 605 l 1
 267 605 l 1
 231 575 l 1
603 329 m 1
 651 267 l 1
 620 121 l 1
 545 60 l 1
 429 60 l 1
 380 121 l 1
 412 267 l 1
 487 329 l 1
 603 329 l 1
571 143 m 1
 593 246 l 1
 570 276 l 1
 497 276 l 1
 460 246 l 1
 439 143 l 1
 462 111 l 1
 535 111 l 1
 571 143 l 1
648 718 m 1
 718 718 l 1
 154 0 l 1
 86 0 l 1
 648 718 l 1
EndSplineSet
Validated: 1
EndChar

StartChar: ampersand
Encoding: 38 38 7
Width: 676
VWidth: 1661
Flags: W
HStem: 0 60<179 429> 329 60<279 542 613 661> 658 60<337 527>
CounterMasks: 1 e0
LayerCount: 2
Fore
SplineSet
673 389 m 1
 661 329 l 1
 601 329 l 1
 550 90 l 1
 442 0 l 1
 143 0 l 1
 73 90 l 1
 116 299 l 1
 206 374 l 1
 171 419 l 1
 216 628 l 1
 324 718 l 1
 563 718 l 1
 635 628 l 1
 621 568 l 1
 561 568 l 1
 570 603 l 1
 527 658 l 1
 337 658 l 1
 271 603 l 1
 236 442 l 1
 279 389 l 1
 553 389 l 1
 566 449 l 1
 626 449 l 1
 613 389 l 1
 673 389 l 1
495 115 m 1
 542 329 l 1
 238 329 l 1
 171 274 l 1
 136 115 l 1
 179 60 l 1
 429 60 l 1
 495 115 l 1
EndSplineSet
Validated: 1
EndChar

StartChar: quotesingle
Encoding: 39 39 8
Width: 199
VWidth: 1661
Flags: W
HStem: 568 150<204 218>
VStem: 188 76
LayerCount: 2
Fore
SplineSet
218 568 m 1
 188 568 l 1
 204 718 l 1
 264 718 l 1
 218 568 l 1
EndSplineSet
Validated: 1
EndChar

StartChar: parenleft
Encoding: 40 40 9
Width: 287
VWidth: 1661
Flags: W
HStem: -120 60<158 179> 777 59<336 370>
LayerCount: 2
Fore
SplineSet
193 -60 m 1
 179 -120 l 1
 120 -120 l 1
 51 -30 l 1
 214 746 l 1
 324 836 l 1
 384 836 l 1
 370 777 l 1
 336 777 l 1
 269 723 l 1
 115 -5 l 1
 158 -60 l 1
 193 -60 l 1
EndSplineSet
Validated: 1
EndChar

StartChar: parenright
Encoding: 41 41 10
Width: 232
VWidth: 1661
Flags: W
HStem: -120 60<-12 23> 777 59<178 199>
VStem: -25 332
LayerCount: 2
Fore
SplineSet
-12 -60 m 1
 23 -60 l 1
 88 -5 l 1
 243 723 l 1
 199 777 l 1
 164 777 l 1
 178 836 l 1
 238 836 l 1
 307 746 l 1
 143 -30 l 1
 35 -120 l 1
 -25 -120 l 1
 -12 -60 l 1
EndSplineSet
Validated: 1
EndChar

StartChar: asterisk
Encoding: 42 42 11
Width: 375
VWidth: 1661
Flags: W
HStem: 478 240<194 203>
VStem: 143 60<478 499.75> 194 60<697.467 718>
LayerCount: 2
Fore
SplineSet
324 631 m 1xa0
 238 598 l 1
 309 563 l 1
 267 512 l 1
 209 565 l 1
 203 478 l 1
 143 478 l 1xc0
 171 565 l 1
 91 512 l 1
 73 563 l 1
 161 598 l 1
 88 631 l 1
 128 683 l 1
 186 630 l 1
 194 718 l 1
 254 718 l 1
 224 630 l 1
 304 683 l 1
 324 631 l 1xa0
EndSplineSet
Validated: 1
EndChar

StartChar: plus
Encoding: 43 43 12
Width: 672
VWidth: 1661
Flags: W
HStem: 326 59<113 341 412 640>
LayerCount: 2
Fore
SplineSet
640 326 m 1
 400 326 l 1
 349 86 l 1
 289 86 l 1
 341 326 l 1
 101 326 l 1
 113 385 l 1
 352 385 l 1
 404 625 l 1
 463 625 l 1
 412 385 l 1
 651 385 l 1
 640 326 l 1
EndSplineSet
Validated: 1
EndChar

StartChar: comma
Encoding: 44 44 13
Width: 250
VWidth: 1661
Flags: W
HStem: -90 210
VStem: 48 156
LayerCount: 2
Fore
SplineSet
204 83 m 1
 193 28 l 1
 78 -90 l 1
 48 -90 l 1
 113 0 l 1
 103 0 l 1
 75 35 l 1
 85 83 l 1
 128 120 l 1
 178 120 l 1
 204 83 l 1
EndSplineSet
Validated: 1
EndChar

StartChar: hyphen
Encoding: 45 45 14
Width: 438
VWidth: 1661
Flags: W
HStem: 239 60<68 355>
VStem: 56 311
LayerCount: 2
Fore
SplineSet
355 239 m 1
 56 239 l 1
 68 299 l 1
 367 299 l 1
 355 239 l 1
EndSplineSet
Validated: 1
EndChar

StartChar: period
Encoding: 46 46 15
Width: 250
VWidth: 1661
Flags: W
HStem: 0 120<108 133>
VStem: 55 129
LayerCount: 2
Fore
SplineSet
184 83 m 1
 174 35 l 1
 133 0 l 1
 83 0 l 1
 55 35 l 1
 65 83 l 1
 108 120 l 1
 158 120 l 1
 184 83 l 1
EndSplineSet
Validated: 1
EndChar

StartChar: slash
Encoding: 47 47 16
Width: 564
VWidth: 1661
Flags: W
HStem: 0 21G<0 83.6546>
LayerCount: 2
Fore
SplineSet
561 718 m 1
 630 718 l 1
 68 0 l 1
 0 0 l 1
 561 718 l 1
EndSplineSet
Validated: 1
EndChar

StartChar: zero
Encoding: 48 48 17
Width: 586
VWidth: 1661
Flags: W
HStem: 0 60<179 399> 656 60<307 528>
LayerCount: 2
Fore
SplineSet
563 716 m 1
 635 628 l 1
 520 90 l 1
 412 0 l 1
 143 0 l 1
 73 90 l 1
 186 626 l 1
 294 716 l 1
 563 716 l 1
465 115 m 1
 570 603 l 1
 528 656 l 1
 307 656 l 1
 241 603 l 1
 136 115 l 1
 179 60 l 1
 399 60 l 1
 465 115 l 1
EndSplineSet
Validated: 1
EndChar

StartChar: one
Encoding: 49 49 18
Width: 302
VWidth: 1661
Flags: W
HStem: 0 21G<159 223.218> 696 20G<286.345 370>
VStem: 159 211
LayerCount: 2
Fore
SplineSet
370 716 m 1
 219 0 l 1
 159 0 l 1
 294 633 l 1
 201 557 l 1
 168 600 l 1
 311 716 l 1
 370 716 l 1
EndSplineSet
Validated: 1
EndChar

StartChar: two
Encoding: 50 50 19
Width: 586
VWidth: 1661
Flags: W
HStem: 0 60<125 502> 656 60<322 527>
LayerCount: 2
Fore
SplineSet
563 716 m 1
 635 628 l 1
 603 478 l 1
 138 123 l 1
 125 60 l 1
 513 60 l 1
 502 0 l 1
 55 0 l 1
 85 150 l 1
 548 505 l 1
 570 603 l 1
 527 656 l 1
 322 656 l 1
 256 603 l 1
 248 565 l 1
 188 565 l 1
 201 626 l 1
 309 716 l 1
 563 716 l 1
EndSplineSet
Validated: 1
EndChar

StartChar: three
Encoding: 51 51 20
Width: 556
VWidth: 1661
Flags: W
HStem: 0 60<179 399> 359 60<291 463> 656 60<322 527>
VStem: 85 60<122.778 150>
LayerCount: 2
Fore
SplineSet
571 329 m 1
 520 90 l 1
 412 0 l 1
 143 0 l 1
 73 90 l 1
 85 150 l 1
 145 150 l 1
 136 115 l 1
 179 60 l 1
 399 60 l 1
 465 115 l 1
 507 304 l 1
 463 359 l 1
 279 359 l 1
 291 419 l 1
 475 419 l 1
 542 472 l 1
 570 603 l 1
 527 656 l 1
 322 656 l 1
 256 603 l 1
 248 568 l 1
 188 568 l 1
 201 626 l 1
 309 716 l 1
 563 716 l 1
 635 628 l 1
 596 447 l 1
 523 389 l 1
 571 329 l 1
EndSplineSet
Validated: 1
EndChar

StartChar: four
Encoding: 52 52 21
Width: 586
VWidth: 1661
Flags: W
HStem: 0 21G<382 446.167> 120 59<151 407 480 527> 656 60<497 522>
LayerCount: 2
Fore
SplineSet
480 179 m 1
 540 179 l 1
 527 120 l 1
 467 120 l 1
 442 0 l 1
 382 0 l 1
 407 120 l 1
 78 120 l 1
 103 239 l 1
 473 716 l 1
 593 716 l 1
 480 179 l 1
420 179 m 1
 522 656 l 1
 497 656 l 1
 159 223 l 1
 151 179 l 1
 420 179 l 1
EndSplineSet
Validated: 1
EndChar

StartChar: five
Encoding: 53 53 22
Width: 586
VWidth: 1661
Flags: W
HStem: 0 60<179 399> 389 60<208 468> 656 60<253 611>
LayerCount: 2
Fore
SplineSet
578 359 m 1
 520 90 l 1
 412 0 l 1
 143 0 l 1
 73 90 l 1
 85 150 l 1
 145 150 l 1
 136 115 l 1
 179 60 l 1
 399 60 l 1
 465 115 l 1
 512 334 l 1
 468 389 l 1
 135 389 l 1
 204 716 l 1
 623 716 l 1
 611 656 l 1
 253 656 l 1
 208 449 l 1
 507 449 l 1
 578 359 l 1
EndSplineSet
Validated: 1
EndChar

StartChar: six
Encoding: 54 54 23
Width: 586
VWidth: 1661
Flags: W
HStem: 0 60<179 400> 389 60<251 470> 656 60<307 513>
LayerCount: 2
Fore
SplineSet
578 359 m 1
 520 90 l 1
 412 0 l 1
 143 0 l 1
 75 90 l 1
 188 628 l 1
 294 716 l 1
 548 716 l 1
 620 626 l 1
 606 568 l 1
 547 568 l 1
 555 603 l 1
 513 656 l 1
 307 656 l 1
 243 603 l 1
 203 419 l 1
 239 449 l 1
 508 449 l 1
 578 359 l 1
400 60 m 1
 465 115 l 1
 512 334 l 1
 470 389 l 1
 251 389 l 1
 184 334 l 1
 138 115 l 1
 179 60 l 1
 400 60 l 1
EndSplineSet
Validated: 1
EndChar

StartChar: seven
Encoding: 55 55 24
Width: 586
VWidth: 1661
Flags: W
HStem: 0 21G<248 311.217> 656 60<253 581>
LayerCount: 2
Fore
SplineSet
653 716 m 1
 610 508 l 1
 377 332 l 1
 307 0 l 1
 248 0 l 1
 324 359 l 1
 555 535 l 1
 581 656 l 1
 253 656 l 1
 233 568 l 1
 173 568 l 1
 204 716 l 1
 653 716 l 1
EndSplineSet
Validated: 1
EndChar

StartChar: eight
Encoding: 56 56 25
Width: 586
VWidth: 1661
Flags: W
HStem: 0 60<179 399> 359 60<286 445> 656 60<337 497>
LayerCount: 2
Fore
SplineSet
512 404 m 1
 571 329 l 1
 520 90 l 1
 412 0 l 1
 143 0 l 1
 73 90 l 1
 123 329 l 1
 213 404 l 1
 178 449 l 1
 216 628 l 1
 324 716 l 1
 533 716 l 1
 605 626 l 1
 566 447 l 1
 512 404 l 1
271 603 m 1
 243 473 l 1
 286 419 l 1
 445 419 l 1
 512 472 l 1
 540 603 l 1
 497 656 l 1
 337 656 l 1
 271 603 l 1
465 115 m 1
 507 304 l 1
 463 359 l 1
 244 359 l 1
 178 304 l 1
 136 115 l 1
 179 60 l 1
 399 60 l 1
 465 115 l 1
EndSplineSet
Validated: 1
EndChar

StartChar: nine
Encoding: 57 57 26
Width: 586
VWidth: 1661
Flags: W
HStem: 0 60<194 400> 269 60<238 457> 656 60<307 528>
LayerCount: 2
Fore
SplineSet
635 628 m 1
 520 90 l 1
 412 0 l 1
 158 0 l 1
 86 90 l 1
 100 150 l 1
 159 150 l 1
 151 115 l 1
 194 60 l 1
 400 60 l 1
 465 115 l 1
 505 299 l 1
 468 269 l 1
 199 269 l 1
 131 359 l 1
 186 626 l 1
 294 716 l 1
 563 716 l 1
 635 628 l 1
457 329 m 1
 523 384 l 1
 570 603 l 1
 528 656 l 1
 307 656 l 1
 241 603 l 1
 194 382 l 1
 238 329 l 1
 457 329 l 1
EndSplineSet
Validated: 1
EndChar

StartChar: colon
Encoding: 58 58 27
Width: 250
VWidth: 1661
Flags: W
HStem: 0 21G<67 156.429>
VStem: 55 201
LayerCount: 2
Fore
SplineSet
108 120 m 1
 158 120 l 1
 186 83 l 1
 174 35 l 1
 133 0 l 1
 83 0 l 1
 55 35 l 1
 66 83 l 1
 108 120 l 1
228 447 m 1
 256 412 l 1
 244 364 l 1
 203 327 l 1
 153 327 l 1
 125 364 l 1
 136 412 l 1
 178 447 l 1
 228 447 l 1
EndSplineSet
Validated: 1
EndChar

StartChar: semicolon
Encoding: 59 59 28
Width: 250
VWidth: 1661
Flags: W
VStem: 48 224
LayerCount: 2
Fore
SplineSet
246 447 m 1
 272 412 l 1
 262 364 l 1
 221 327 l 1
 171 327 l 1
 143 364 l 1
 153 412 l 1
 196 447 l 1
 246 447 l 1
126 120 m 1
 176 120 l 1
 203 83 l 1
 191 28 l 1
 76 -90 l 1
 48 -90 l 1
 111 0 l 1
 101 0 l 1
 73 35 l 1
 83 83 l 1
 126 120 l 1
EndSplineSet
Validated: 1
EndChar

StartChar: less
Encoding: 60 60 29
Width: 672
VWidth: 1661
Flags: W
LayerCount: 2
Fore
SplineSet
174 302 m 1
 173 289 l 1
 603 65 l 1
 588 -2 l 1
 105 251 l 1
 123 341 l 1
 716 593 l 1
 701 528 l 1
 174 302 l 1
EndSplineSet
Validated: 1
EndChar

StartChar: equal
Encoding: 61 61 30
Width: 672
VWidth: 1661
Flags: W
HStem: 221 60<63 588> 429 59<108 633>
LayerCount: 2
Fore
SplineSet
646 488 m 1
 633 429 l 1
 95 429 l 1
 108 488 l 1
 646 488 l 1
63 281 m 1
 601 281 l 1
 588 221 l 1
 50 221 l 1
 63 281 l 1
EndSplineSet
Validated: 1
EndChar

StartChar: greater
Encoding: 62 62 31
Width: 672
VWidth: 1661
Flags: W
LayerCount: 2
Fore
SplineSet
658 341 m 1
 640 251 l 1
 50 -2 l 1
 63 65 l 1
 588 289 l 1
 590 302 l 1
 161 528 l 1
 176 593 l 1
 658 341 l 1
EndSplineSet
Validated: 1
EndChar

StartChar: question
Encoding: 63 63 32
Width: 588
VWidth: 1661
Flags: W
HStem: 0 21G<245.636 316.727> 658 60<309 528>
LayerCount: 2
Fore
SplineSet
277 75 m 1
 309 75 l 1
 326 53 l 1
 319 22 l 1
 294 0 l 1
 262 0 l 1
 244 22 l 1
 251 53 l 1
 277 75 l 1
565 718 m 1
 636 628 l 1
 605 477 l 1
 372 299 l 1
 341 150 l 1
 281 150 l 1
 317 326 l 1
 550 503 l 1
 571 603 l 1
 528 658 l 1
 309 658 l 1
 243 603 l 1
 234 568 l 1
 174 568 l 1
 188 628 l 1
 296 718 l 1
 565 718 l 1
EndSplineSet
Validated: 1
EndChar

StartChar: at
Encoding: 64 64 33
Width: 765
VWidth: 1661
Flags: W
HStem: -60 60<269 621> 90 60<362 442 576 610> 359 60<407 507> 508 60<379 598>
LayerCount: 2
Fore
SplineSet
636 568 m 1
 777 389 l 1
 733 179 l 1
 621 90 l 1
 503 90 l 1
 517 150 l 1
 444 90 l 1
 324 90 l 1
 254 179 l 1
 286 329 l 1
 395 419 l 1
 545 419 l 1
 615 329 l 1
 576 150 l 1
 610 150 l 1
 678 204 l 1
 713 364 l 1
 598 508 l 1
 379 508 l 1
 204 364 l 1
 156 143 l 1
 269 0 l 1
 635 0 l 1
 621 -60 l 1
 233 -60 l 1
 91 118 l 1
 150 389 l 1
 367 568 l 1
 636 568 l 1
442 150 m 1
 532 223 l 1
 550 304 l 1
 507 359 l 1
 407 359 l 1
 341 304 l 1
 319 204 l 1
 362 150 l 1
 442 150 l 1
EndSplineSet
Validated: 1
EndChar

StartChar: A
Encoding: 65 65 34
Width: 616
VWidth: 1661
Flags: W
HStem: 0 21G<53 115.115 470 534.186> 209 60<168 513> 656 60<419 440>
LayerCount: 2
Fore
SplineSet
487 716 m 1
 611 387 l 1
 530 0 l 1
 470 0 l 1
 513 209 l 1
 154 209 l 1
 111 0 l 1
 53 0 l 1
 133 387 l 1
 397 716 l 1
 487 716 l 1
527 269 m 1
 548 370 l 1
 440 656 l 1
 419 656 l 1
 189 372 l 1
 168 269 l 1
 527 269 l 1
EndSplineSet
Validated: 1
EndChar

StartChar: B
Encoding: 66 66 35
Width: 586
VWidth: 1661
Flags: W
HStem: 0 60<123 397> 327 62<193 437> 656 60<251 495>
CounterMasks: 1 e0
LayerCount: 2
Fore
SplineSet
505 374 m 1
 563 299 l 1
 518 90 l 1
 410 0 l 1
 53 0 l 1
 203 716 l 1
 532 716 l 1
 603 626 l 1
 558 419 l 1
 505 374 l 1
251 656 m 1
 193 389 l 1
 437 389 l 1
 503 442 l 1
 538 603 l 1
 495 656 l 1
 251 656 l 1
463 115 m 1
 498 274 l 1
 455 327 l 1
 181 327 l 1
 123 60 l 1
 397 60 l 1
 463 115 l 1
EndSplineSet
Validated: 1
EndChar

StartChar: C
Encoding: 67 67 36
Width: 617
VWidth: 1661
Flags: W
HStem: 0 60<181 430> 656 60<309 558>
LayerCount: 2
Fore
SplineSet
505 150 m 1
 565 150 l 1
 552 90 l 1
 444 0 l 1
 145 0 l 1
 75 90 l 1
 188 626 l 1
 296 716 l 1
 595 716 l 1
 666 626 l 1
 653 566 l 1
 593 566 l 1
 601 603 l 1
 558 656 l 1
 309 656 l 1
 243 601 l 1
 138 113 l 1
 181 60 l 1
 430 60 l 1
 497 115 l 1
 505 150 l 1
EndSplineSet
Validated: 1
EndChar

StartChar: D
Encoding: 68 68 37
Width: 616
VWidth: 1661
Flags: W
HStem: 0 60<125 429> 656 60<253 557>
LayerCount: 2
Fore
SplineSet
593 716 m 1
 664 626 l 1
 550 90 l 1
 442 0 l 1
 55 0 l 1
 204 716 l 1
 593 716 l 1
495 115 m 1
 600 603 l 1
 557 656 l 1
 253 656 l 1
 125 60 l 1
 429 60 l 1
 495 115 l 1
EndSplineSet
Validated: 1
EndChar

StartChar: E
Encoding: 69 69 38
Width: 586
VWidth: 1661
Flags: W
HStem: 0 60<179 502> 329 60<196 542> 656 60<309 641>
LayerCount: 2
Fore
SplineSet
309 656 m 1
 243 601 l 1
 196 389 l 1
 553 389 l 1
 542 329 l 1
 184 329 l 1
 138 113 l 1
 179 60 l 1
 513 60 l 1
 502 0 l 1
 145 0 l 1
 75 90 l 1
 188 626 l 1
 296 716 l 1
 653 716 l 1
 641 656 l 1
 309 656 l 1
EndSplineSet
Validated: 1
EndChar

StartChar: F
Encoding: 70 70 39
Width: 586
VWidth: 1661
Flags: W
HStem: 0 21G<55 117.255> 329 60<194 542> 656 60<307 641>
LayerCount: 2
Fore
SplineSet
307 656 m 1
 241 601 l 1
 194 389 l 1
 553 389 l 1
 542 329 l 1
 183 329 l 1
 113 0 l 1
 55 0 l 1
 186 626 l 1
 294 716 l 1
 653 716 l 1
 641 656 l 1
 307 656 l 1
EndSplineSet
Validated: 1
EndChar

StartChar: G
Encoding: 71 71 40
Width: 616
VWidth: 1661
Flags: W
HStem: 0 60<179 429> 329 60<374 542> 656 60<307 558>
LayerCount: 2
Fore
SplineSet
651 566 m 1
 591 566 l 1
 600 603 l 1
 558 656 l 1
 307 656 l 1
 243 601 l 1
 138 113 l 1
 179 60 l 1
 429 60 l 1
 495 115 l 1
 542 329 l 1
 362 329 l 1
 374 389 l 1
 613 389 l 1
 550 90 l 1
 442 0 l 1
 143 0 l 1
 75 90 l 1
 188 626 l 1
 296 716 l 1
 593 716 l 1
 664 628 l 1
 651 566 l 1
EndSplineSet
Validated: 1
EndChar

StartChar: H
Encoding: 72 72 41
Width: 616
VWidth: 1661
Flags: W
HStem: 0 21G<56 119.195 473 537.218> 329 60<196 543> 696 20G<201.81 266 620.719 684>
LayerCount: 2
Fore
SplineSet
625 716 m 1
 684 716 l 1
 533 0 l 1
 473 0 l 1
 543 329 l 1
 184 329 l 1
 115 0 l 1
 56 0 l 1
 206 716 l 1
 266 716 l 1
 196 389 l 1
 555 389 l 1
 625 716 l 1
EndSplineSet
Validated: 1
EndChar

StartChar: I
Encoding: 73 73 42
Width: 197
VWidth: 1661
Flags: W
HStem: 0 21G<53 115.218> 696 20G<198.81 262>
VStem: 53 209
LayerCount: 2
Fore
SplineSet
111 0 m 1
 53 0 l 1
 203 716 l 1
 262 716 l 1
 111 0 l 1
EndSplineSet
Validated: 1
EndChar

StartChar: J
Encoding: 74 74 43
Width: 556
VWidth: 1661
Flags: W
HStem: 0 60<179 369> 696 20G<558.74 623>
LayerCount: 2
Fore
SplineSet
563 716 m 1
 623 716 l 1
 490 90 l 1
 382 0 l 1
 143 0 l 1
 73 90 l 1
 96 209 l 1
 156 209 l 1
 136 113 l 1
 179 60 l 1
 369 60 l 1
 435 115 l 1
 563 716 l 1
EndSplineSet
Validated: 1
EndChar

StartChar: K
Encoding: 75 75 44
Width: 616
VWidth: 1661
Flags: W
HStem: 0 21G<55 117.255 472 536.08> 329 60<194 400> 696 20G<199.838 264 618.745 683>
LayerCount: 2
Fore
SplineSet
623 716 m 1
 683 716 l 1
 641 515 l 1
 452 359 l 1
 573 201 l 1
 532 0 l 1
 472 0 l 1
 512 188 l 1
 400 329 l 1
 183 329 l 1
 113 0 l 1
 55 0 l 1
 204 716 l 1
 264 716 l 1
 194 389 l 1
 412 389 l 1
 583 528 l 1
 623 716 l 1
EndSplineSet
Validated: 1
EndChar

StartChar: L
Encoding: 76 76 45
Width: 556
VWidth: 1661
Flags: W
HStem: 0 60<125 472> 696 20G<199.838 264>
LayerCount: 2
Fore
SplineSet
125 60 m 1
 483 60 l 1
 472 0 l 1
 55 0 l 1
 204 716 l 1
 264 716 l 1
 125 60 l 1
EndSplineSet
Validated: 1
EndChar

StartChar: M
Encoding: 77 77 46
Width: 795
VWidth: 1661
Flags: W
HStem: 0 21G<55 117.263 347.773 424.708 651 715.218> 696 20G<199.838 268.265 789.267 862>
LayerCount: 2
Fore
SplineSet
802 716 m 1
 862 716 l 1
 711 0 l 1
 651 0 l 1
 771 565 l 1
 412 0 l 1
 352 0 l 1
 233 563 l 1
 113 0 l 1
 55 0 l 1
 204 716 l 1
 264 716 l 1
 399 83 l 1
 802 716 l 1
EndSplineSet
Validated: 1
EndChar

StartChar: N
Encoding: 78 78 47
Width: 616
VWidth: 1661
Flags: W
HStem: 0 21G<55 117.2 464.233 536.218> 696 20G<199.838 271.767 618.8 683>
LayerCount: 2
Fore
SplineSet
623 716 m 1
 683 716 l 1
 532 0 l 1
 472 0 l 1
 239 600 l 1
 113 0 l 1
 55 0 l 1
 204 716 l 1
 264 716 l 1
 497 116 l 1
 623 716 l 1
EndSplineSet
Validated: 1
EndChar

StartChar: O
Encoding: 79 79 48
Width: 644
VWidth: 1661
Flags: W
HStem: 0 60<178 457> 656 60<306 585>
LayerCount: 2
Fore
SplineSet
621 716 m 1
 693 626 l 1
 578 90 l 1
 470 0 l 1
 141 0 l 1
 71 90 l 1
 184 626 l 1
 292 716 l 1
 621 716 l 1
523 115 m 1
 628 603 l 1
 585 656 l 1
 306 656 l 1
 239 601 l 1
 135 113 l 1
 178 60 l 1
 457 60 l 1
 523 115 l 1
EndSplineSet
Validated: 1
EndChar

StartChar: P
Encoding: 80 80 49
Width: 586
VWidth: 1661
Flags: W
HStem: 0 21G<55 115.281> 327 60<193 467> 656 60<251 527>
LayerCount: 2
Fore
SplineSet
561 716 m 1
 633 626 l 1
 588 417 l 1
 480 327 l 1
 181 327 l 1
 111 0 l 1
 55 0 l 1
 204 716 l 1
 561 716 l 1
533 442 m 1
 568 603 l 1
 527 656 l 1
 251 656 l 1
 193 387 l 1
 467 387 l 1
 533 442 l 1
EndSplineSet
Validated: 1
EndChar

StartChar: Q
Encoding: 81 81 50
Width: 642
VWidth: 1661
Flags: W
HStem: 0 60<178 457> 656 60<304 583>
LayerCount: 2
Fore
SplineSet
585 -55 m 1
 540 -91 l 1
 468 0 l 1
 141 0 l 1
 70 90 l 1
 184 626 l 1
 292 716 l 1
 621 716 l 1
 693 626 l 1
 578 90 l 1
 513 37 l 1
 585 -55 l 1
135 113 m 1
 178 60 l 1
 457 60 l 1
 523 115 l 1
 628 603 l 1
 583 656 l 1
 304 656 l 1
 238 601 l 1
 135 113 l 1
EndSplineSet
Validated: 1
EndChar

StartChar: R
Encoding: 82 82 51
Width: 583
VWidth: 1661
Flags: W
HStem: 0 21G<55 117.281 440 504.214> 327 62<194 457> 656 60<253 527>
LayerCount: 2
Fore
SplineSet
633 626 m 1
 588 419 l 1
 517 359 l 1
 563 299 l 1
 500 0 l 1
 440 0 l 1
 498 274 l 1
 457 327 l 1
 183 327 l 1
 113 0 l 1
 55 0 l 1
 204 716 l 1
 563 716 l 1
 633 626 l 1
527 656 m 1
 253 656 l 1
 194 389 l 1
 468 389 l 1
 533 442 l 1
 568 603 l 1
 527 656 l 1
EndSplineSet
Validated: 1
EndChar

StartChar: S
Encoding: 83 83 52
Width: 617
VWidth: 1661
Flags: W
HStem: 0 60<196 430> 359 58<257 495> 656 60<309 543>
LayerCount: 2
Fore
SplineSet
532 417 m 1
 603 329 l 1
 552 90 l 1
 444 0 l 1
 159 0 l 1
 88 90 l 1
 101 150 l 1
 161 150 l 1
 153 113 l 1
 196 60 l 1
 430 60 l 1
 497 115 l 1
 538 304 l 1
 495 359 l 1
 221 359 l 1
 150 447 l 1
 188 626 l 1
 296 716 l 1
 580 716 l 1
 651 626 l 1
 638 566 l 1
 578 566 l 1
 586 603 l 1
 543 656 l 1
 309 656 l 1
 243 601 l 1
 214 472 l 1
 257 417 l 1
 532 417 l 1
EndSplineSet
Validated: 1
EndChar

StartChar: T
Encoding: 84 84 53
Width: 616
VWidth: 1661
Flags: W
HStem: 0 21G<264 328.238> 656 60<206 404 463 671>
LayerCount: 2
Fore
SplineSet
683 716 m 1
 671 656 l 1
 463 656 l 1
 324 0 l 1
 264 0 l 1
 404 656 l 1
 194 656 l 1
 206 716 l 1
 683 716 l 1
EndSplineSet
Validated: 1
EndChar

StartChar: U
Encoding: 85 85 54
Width: 616
VWidth: 1661
Flags: W
HStem: 0 60<179 429> 696 20G<199.815 264 618.74 683>
LayerCount: 2
Fore
SplineSet
623 716 m 1
 683 716 l 1
 550 90 l 1
 442 0 l 1
 143 0 l 1
 73 90 l 1
 204 716 l 1
 264 716 l 1
 136 113 l 1
 179 60 l 1
 429 60 l 1
 495 115 l 1
 623 716 l 1
EndSplineSet
Validated: 1
EndChar

StartChar: V
Encoding: 86 86 55
Width: 617
VWidth: 1661
Flags: W
HStem: 0 60<294 316> 696 20G<201.814 266 620.806 684>
LayerCount: 2
Fore
SplineSet
625 716 m 1
 684 716 l 1
 603 329 l 1
 339 0 l 1
 249 0 l 1
 125 329 l 1
 206 716 l 1
 266 716 l 1
 188 346 l 1
 294 60 l 1
 316 60 l 1
 547 344 l 1
 625 716 l 1
EndSplineSet
Validated: 1
EndChar

StartChar: W
Encoding: 87 87 56
Width: 852
VWidth: 1661
Flags: W
HStem: 0 60<251 264 580 593> 696 20G<198.784 262 527.778 591 856.778 920>
LayerCount: 2
Fore
SplineSet
861 716 m 1
 920 716 l 1
 839 327 l 1
 618 0 l 1
 532 0 l 1
 465 262 l 1
 289 0 l 1
 203 0 l 1
 121 327 l 1
 203 716 l 1
 262 716 l 1
 183 337 l 1
 251 60 l 1
 264 60 l 1
 452 337 l 1
 532 716 l 1
 591 716 l 1
 512 337 l 1
 580 60 l 1
 593 60 l 1
 781 337 l 1
 861 716 l 1
EndSplineSet
Validated: 1
EndChar

StartChar: X
Encoding: 88 88 57
Width: 617
VWidth: 1661
Flags: W
HStem: 0 21G<58 119.149 473 537.179> 327 60<337 404> 696 20G<203.821 266 620.745 684>
LayerCount: 2
Fore
SplineSet
625 716 m 1
 684 716 l 1
 643 515 l 1
 452 357 l 1
 575 201 l 1
 533 0 l 1
 473 0 l 1
 513 188 l 1
 404 327 l 1
 326 327 l 1
 154 188 l 1
 115 0 l 1
 58 0 l 1
 98 201 l 1
 287 357 l 1
 166 515 l 1
 208 716 l 1
 266 716 l 1
 226 528 l 1
 337 387 l 1
 415 387 l 1
 585 528 l 1
 625 716 l 1
EndSplineSet
Validated: 1
EndChar

StartChar: Y
Encoding: 89 89 58
Width: 616
VWidth: 1661
Flags: W
HStem: 0 21G<262 326.255> 696 20G<199.865 264 618.801 683>
LayerCount: 2
Fore
SplineSet
623 716 m 1
 683 716 l 1
 640 507 l 1
 392 329 l 1
 322 0 l 1
 262 0 l 1
 332 331 l 1
 161 508 l 1
 204 716 l 1
 264 716 l 1
 226 537 l 1
 375 382 l 1
 585 535 l 1
 623 716 l 1
EndSplineSet
Validated: 1
EndChar

StartChar: Z
Encoding: 90 90 59
Width: 617
VWidth: 1661
Flags: W
HStem: 0 60<126 533> 656 60<206 613>
LayerCount: 2
Fore
SplineSet
206 716 m 1
 684 716 l 1
 653 566 l 1
 141 125 l 1
 126 60 l 1
 545 60 l 1
 533 0 l 1
 56 0 l 1
 86 150 l 1
 598 591 l 1
 613 656 l 1
 194 656 l 1
 206 716 l 1
EndSplineSet
Validated: 1
EndChar

StartChar: bracketleft
Encoding: 91 91 60
Width: 289
VWidth: 1661
Flags: W
HStem: -120 60<103 179> 776 60<281 370>
LayerCount: 2
Fore
SplineSet
370 776 m 1
 281 776 l 1
 103 -60 l 1
 193 -60 l 1
 179 -120 l 1
 32 -120 l 1
 234 836 l 1
 384 836 l 1
 370 776 l 1
EndSplineSet
Validated: 1
EndChar

StartChar: backslash
Encoding: 92 92 61
Width: 481
VWidth: 1661
Flags: W
HStem: 0 21G<404.73 480>
VStem: 151 329
LayerCount: 2
Fore
SplineSet
480 0 m 1
 412 0 l 1
 151 718 l 1
 219 718 l 1
 480 0 l 1
EndSplineSet
Validated: 1
EndChar

StartChar: bracketright
Encoding: 93 93 62
Width: 234
VWidth: 1661
Flags: W
HStem: -120 60<-12 76> 776 60<178 254>
LayerCount: 2
Fore
SplineSet
178 836 m 1
 327 836 l 1
 123 -120 l 1
 -25 -120 l 1
 -12 -60 l 1
 76 -60 l 1
 254 776 l 1
 164 776 l 1
 178 836 l 1
EndSplineSet
Validated: 1
EndChar

StartChar: asciicircum
Encoding: 94 94 63
Width: 701
VWidth: 1661
Flags: W
HStem: 658 60<412 429>
LayerCount: 2
Fore
SplineSet
478 718 m 1
 616 239 l 1
 550 239 l 1
 429 658 l 1
 412 658 l 1
 115 239 l 1
 50 239 l 1
 389 718 l 1
 478 718 l 1
EndSplineSet
Validated: 1
EndChar

StartChar: underscore
Encoding: 95 95 64
Width: 616
VWidth: 1661
Flags: W
HStem: -108 60<66 532>
LayerCount: 2
Fore
SplineSet
55 -108 m 1
 66 -48 l 1
 543 -48 l 1
 532 -108 l 1
 55 -108 l 1
EndSplineSet
Validated: 1
EndChar

StartChar: grave
Encoding: 96 96 65
Width: 245
VWidth: 1661
Flags: W
HStem: 568 150<253 269>
VStem: 194 88
LayerCount: 2
Fore
SplineSet
253 568 m 1
 194 718 l 1
 269 718 l 1
 282 568 l 1
 253 568 l 1
EndSplineSet
Validated: 1
EndChar

StartChar: a
Encoding: 97 97 66
Width: 616
VWidth: 1661
Flags: W
HStem: 0 60<179 351> 449 59<262 512>
LayerCount: 2
Fore
SplineSet
352 0 m 1
 143 0 l 1
 71 90 l 1
 141 419 l 1
 251 508 l 1
 550 508 l 1
 620 419 l 1
 532 0 l 1
 472 0 l 1
 497 120 l 1
 352 0 l 1
179 60 m 1
 351 60 l 1
 512 193 l 1
 555 394 l 1
 512 449 l 1
 262 449 l 1
 196 394 l 1
 136 113 l 1
 179 60 l 1
EndSplineSet
Validated: 1
Substitution2: "Single Substitution lookup 22 subtable" uni0E38
Substitution2: "Single Substitution lookup 22 subtable" uni0E38
EndChar

StartChar: b
Encoding: 98 98 67
Width: 616
VWidth: 1661
Flags: W
HStem: 0 60<181 430> 449 59<344 513>
LayerCount: 2
Fore
SplineSet
621 419 m 1
 552 90 l 1
 444 0 l 1
 145 0 l 1
 75 90 l 1
 206 718 l 1
 266 718 l 1
 196 389 l 1
 342 508 l 1
 552 508 l 1
 621 419 l 1
430 60 m 1
 497 115 l 1
 557 394 l 1
 513 449 l 1
 344 449 l 1
 181 314 l 1
 138 115 l 1
 181 60 l 1
 430 60 l 1
EndSplineSet
Validated: 1
Substitution2: "Single Substitution lookup 22 subtable" uni0E39
Substitution2: "Single Substitution lookup 22 subtable" uni0E39
EndChar

StartChar: c
Encoding: 99 99 68
Width: 617
VWidth: 1661
Flags: W
HStem: 0 60<183 432> 449 59<264 513>
LayerCount: 2
Fore
SplineSet
505 150 m 1
 565 150 l 1
 552 90 l 1
 444 0 l 1
 145 0 l 1
 73 90 l 1
 145 419 l 1
 253 508 l 1
 552 508 l 1
 623 419 l 1
 610 359 l 1
 550 359 l 1
 557 394 l 1
 513 449 l 1
 264 449 l 1
 198 394 l 1
 140 115 l 1
 183 60 l 1
 432 60 l 1
 498 115 l 1
 505 150 l 1
EndSplineSet
Validated: 1
Substitution2: "Single Substitution lookup 22 subtable" uni0E3A
Substitution2: "Single Substitution lookup 22 subtable" uni0E3A
EndChar

StartChar: d
Encoding: 100 100 69
Width: 617
VWidth: 1661
Flags: W
HStem: 0 60<181 430> 449 59<264 434>
LayerCount: 2
Fore
SplineSet
625 718 m 1
 684 718 l 1
 552 90 l 1
 444 0 l 1
 145 0 l 1
 75 90 l 1
 143 419 l 1
 253 508 l 1
 462 508 l 1
 555 389 l 1
 625 718 l 1
430 60 m 1
 497 115 l 1
 540 314 l 1
 434 449 l 1
 264 449 l 1
 198 394 l 1
 138 115 l 1
 181 60 l 1
 430 60 l 1
EndSplineSet
Validated: 1
EndChar

StartChar: e
Encoding: 101 101 70
Width: 617
VWidth: 1661
Flags: W
HStem: 0 60<183 432> 239 60<178 537> 449 59<264 513>
LayerCount: 2
Fore
SplineSet
585 239 m 1
 166 239 l 1
 140 115 l 1
 183 60 l 1
 432 60 l 1
 498 115 l 1
 505 150 l 1
 565 150 l 1
 552 90 l 1
 444 0 l 1
 145 0 l 1
 73 90 l 1
 145 419 l 1
 253 508 l 1
 552 508 l 1
 623 419 l 1
 585 239 l 1
178 299 m 1
 537 299 l 1
 557 394 l 1
 513 449 l 1
 264 449 l 1
 198 394 l 1
 178 299 l 1
EndSplineSet
Validated: 1
EndChar

StartChar: f
Encoding: 102 102 71
Width: 347
VWidth: 1661
Flags: W
HStem: -209 21G<3 69.2809> 389 60<206 342> 656 60<306 400>
LayerCount: 2
Fore
SplineSet
306 656 m 1
 239 601 l 1
 206 449 l 1
 355 449 l 1
 342 389 l 1
 193 389 l 1
 65 -209 l 1
 3 -209 l 1
 184 626 l 1
 292 716 l 1
 412 716 l 1
 400 656 l 1
 306 656 l 1
EndSplineSet
Validated: 1
EndChar

StartChar: g
Encoding: 103 103 72
Width: 616
VWidth: 1661
Flags: W
HStem: -209 59<261 385> 0 60<181 351> 449 59<264 513>
LayerCount: 2
Fore
SplineSet
621 419 m 1
 507 -120 l 1
 399 -209 l 1
 249 -209 l 1
 261 -150 l 1
 385 -150 l 1
 452 -95 l 1
 498 120 l 1
 352 0 l 1
 143 0 l 1
 73 90 l 1
 143 419 l 1
 251 508 l 1
 550 508 l 1
 621 419 l 1
351 60 m 1
 513 194 l 1
 557 394 l 1
 513 449 l 1
 264 449 l 1
 198 394 l 1
 138 115 l 1
 181 60 l 1
 351 60 l 1
EndSplineSet
Validated: 1
EndChar

StartChar: h
Encoding: 104 104 73
Width: 586
VWidth: 1661
Flags: W
HStem: 0 21G<56 119.204 444 507.2> 449 59<344 483>
LayerCount: 2
Fore
SplineSet
591 419 m 1
 503 0 l 1
 444 0 l 1
 527 394 l 1
 483 449 l 1
 344 449 l 1
 181 314 l 1
 115 0 l 1
 56 0 l 1
 206 718 l 1
 266 718 l 1
 196 389 l 1
 342 508 l 1
 522 508 l 1
 591 419 l 1
EndSplineSet
Validated: 1
EndChar

StartChar: i
Encoding: 105 105 74
Width: 199
VWidth: 1661
Flags: W
HStem: 0 21G<55 117.252> 488 20G<156.827 221>
VStem: 55 196
LayerCount: 2
Fore
SplineSet
55 0 m 1
 161 508 l 1
 221 508 l 1
 113 0 l 1
 55 0 l 1
234 625 m 1
 251 603 l 1
 244 571 l 1
 218 550 l 1
 186 550 l 1
 169 571 l 1
 176 603 l 1
 203 625 l 1
 234 625 l 1
EndSplineSet
Validated: 1
EndChar

StartChar: j
Encoding: 106 106 75
Width: 214
VWidth: 1661
Flags: W
HStem: -211 60<-71 -13> 487 20G<174.755 239>
LayerCount: 2
Fore
SplineSet
51 -96 m 1
 179 507 l 1
 239 507 l 1
 105 -121 l 1
 -2 -211 l 1
 -85 -211 l 1
 -71 -151 l 1
 -13 -151 l 1
 51 -96 l 1
253 625 m 1
 269 603 l 1
 262 571 l 1
 236 550 l 1
 204 550 l 1
 188 571 l 1
 194 603 l 1
 221 625 l 1
 253 625 l 1
EndSplineSet
Validated: 1
EndChar

StartChar: k
Encoding: 107 107 76
Width: 586
VWidth: 1661
Flags: W
HStem: 0 21G<55 117.107 442 506.082> 224 60<173 347> 488 20G<545.663 610>
LayerCount: 2
Fore
SplineSet
550 508 m 1
 610 508 l 1
 588 412 l 1
 399 254 l 1
 522 98 l 1
 502 0 l 1
 442 0 l 1
 458 85 l 1
 347 224 l 1
 159 224 l 1
 113 0 l 1
 55 0 l 1
 204 718 l 1
 264 718 l 1
 173 284 l 1
 360 284 l 1
 532 425 l 1
 550 508 l 1
EndSplineSet
Validated: 1
EndChar

StartChar: l
Encoding: 108 108 77
Width: 197
VWidth: 1661
Flags: W
HStem: 0 21G<56 119.206>
VStem: 56 210
LayerCount: 2
Fore
SplineSet
56 0 m 1
 206 718 l 1
 266 718 l 1
 115 0 l 1
 56 0 l 1
EndSplineSet
Validated: 1
EndChar

StartChar: m
Encoding: 109 109 78
Width: 794
VWidth: 1661
Flags: W
HStem: 0 21G<53 115.241 351 414.304 650 713.296> 449 59<341 390 560 689>
LayerCount: 2
Fore
SplineSet
799 419 m 1
 709 0 l 1
 650 0 l 1
 734 395 l 1
 689 449 l 1
 560 449 l 1
 495 395 l 1
 410 0 l 1
 351 0 l 1
 435 395 l 1
 390 449 l 1
 341 449 l 1
 178 316 l 1
 111 0 l 1
 53 0 l 1
 159 508 l 1
 219 508 l 1
 194 389 l 1
 339 508 l 1
 429 508 l 1
 475 449 l 1
 548 508 l 1
 728 508 l 1
 799 419 l 1
EndSplineSet
Validated: 1
EndChar

StartChar: n
Encoding: 110 110 79
Width: 586
VWidth: 1661
Flags: W
HStem: 0 21G<55 117.177 440 504.296> 449 59<341 482>
LayerCount: 2
Fore
SplineSet
590 419 m 1
 500 0 l 1
 440 0 l 1
 525 395 l 1
 482 449 l 1
 341 449 l 1
 179 316 l 1
 113 0 l 1
 55 0 l 1
 161 508 l 1
 221 508 l 1
 196 389 l 1
 341 508 l 1
 520 508 l 1
 590 419 l 1
EndSplineSet
Validated: 1
EndChar

StartChar: o
Encoding: 111 111 80
Width: 617
VWidth: 1661
Flags: W
HStem: 0 60<183 432> 449 59<264 513>
LayerCount: 2
Fore
SplineSet
552 90 m 1
 444 0 l 1
 145 0 l 1
 73 90 l 1
 145 419 l 1
 253 508 l 1
 552 508 l 1
 623 419 l 1
 552 90 l 1
183 60 m 1
 432 60 l 1
 498 115 l 1
 557 394 l 1
 513 449 l 1
 264 449 l 1
 198 394 l 1
 140 115 l 1
 183 60 l 1
EndSplineSet
Validated: 1
EndChar

StartChar: p
Encoding: 112 112 81
Width: 617
VWidth: 1661
Flags: W
HStem: -208 21G<12 74.1346> 0 60<126 430> 449 59<264 513>
LayerCount: 2
Fore
SplineSet
550 508 m 1
 621 419 l 1
 552 90 l 1
 442 0 l 1
 113 0 l 1
 70 -208 l 1
 12 -208 l 1
 143 419 l 1
 251 508 l 1
 550 508 l 1
497 115 m 1
 557 394 l 1
 513 449 l 1
 264 449 l 1
 198 394 l 1
 126 60 l 1
 430 60 l 1
 497 115 l 1
EndSplineSet
Validated: 1
EndChar

StartChar: q
Encoding: 113 113 82
Width: 616
VWidth: 1661
Flags: W
HStem: -208 21G<430 494.242> 0 60<183 473> 449 59<266 515>
LayerCount: 2
Fore
SplineSet
145 419 m 1
 253 508 l 1
 552 508 l 1
 623 419 l 1
 490 -208 l 1
 430 -208 l 1
 473 0 l 1
 145 0 l 1
 75 90 l 1
 145 419 l 1
199 394 m 1
 140 115 l 1
 183 60 l 1
 487 60 l 1
 558 394 l 1
 515 449 l 1
 266 449 l 1
 199 394 l 1
EndSplineSet
Validated: 1
EndChar

StartChar: r
Encoding: 114 114 83
Width: 465
VWidth: 1661
Flags: W
HStem: 0 21G<53 115.241> 449 59<339 475>
LayerCount: 2
Fore
SplineSet
475 449 m 1
 339 449 l 1
 178 316 l 1
 111 0 l 1
 53 0 l 1
 159 508 l 1
 219 508 l 1
 194 389 l 1
 339 508 l 1
 488 508 l 1
 475 449 l 1
EndSplineSet
Validated: 1
EndChar

StartChar: s
Encoding: 115 115 84
Width: 617
VWidth: 1661
Flags: W
HStem: 0 60<198 432> 224 60<229 467> 449 59<264 498>
LayerCount: 2
Fore
SplineSet
575 196 m 1
 552 90 l 1
 444 0 l 1
 159 0 l 1
 88 90 l 1
 101 150 l 1
 161 150 l 1
 154 115 l 1
 198 60 l 1
 432 60 l 1
 498 115 l 1
 510 171 l 1
 467 224 l 1
 193 224 l 1
 121 314 l 1
 145 419 l 1
 253 508 l 1
 537 508 l 1
 608 419 l 1
 595 359 l 1
 535 359 l 1
 542 394 l 1
 498 449 l 1
 264 449 l 1
 198 394 l 1
 186 339 l 1
 229 284 l 1
 503 284 l 1
 575 196 l 1
EndSplineSet
Validated: 1
EndChar

StartChar: t
Encoding: 116 116 85
Width: 345
VWidth: 1661
Flags: W
HStem: 0 58<179 262> 447 60<221 357> 696 20G<199.815 264>
VStem: 73 297
LayerCount: 2
Fore
SplineSet
357 447 m 1
 208 447 l 1
 136 113 l 1
 179 58 l 1
 274 58 l 1
 262 0 l 1
 143 0 l 1
 73 90 l 1
 204 716 l 1
 264 716 l 1
 221 507 l 1
 370 507 l 1
 357 447 l 1
EndSplineSet
Validated: 1
EndChar

StartChar: u
Encoding: 117 117 86
Width: 588
VWidth: 1661
Flags: W
HStem: 0 58<183 322> 487 20G<158.704 223 547.732 611>
LayerCount: 2
Fore
SplineSet
552 507 m 1
 611 507 l 1
 503 0 l 1
 444 0 l 1
 468 120 l 1
 324 0 l 1
 145 0 l 1
 73 88 l 1
 163 507 l 1
 223 507 l 1
 140 113 l 1
 183 58 l 1
 322 58 l 1
 485 193 l 1
 552 507 l 1
EndSplineSet
Validated: 1
EndChar

StartChar: v
Encoding: 118 118 87
Width: 554
VWidth: 1661
Flags: W
HStem: 0 60<253 299> 488 20G<156.775 221 515.812 580>
LayerCount: 2
Fore
SplineSet
520 508 m 1
 580 508 l 1
 520 224 l 1
 307 0 l 1
 218 0 l 1
 101 224 l 1
 161 508 l 1
 221 508 l 1
 163 231 l 1
 253 60 l 1
 299 60 l 1
 462 231 l 1
 520 508 l 1
EndSplineSet
Validated: 1
EndChar

StartChar: w
Encoding: 119 119 88
Width: 795
VWidth: 1661
Flags: W
HStem: 0 60<228 266 527 565> 488 20G<158.775 223 457.714 522 754.714 819>
LayerCount: 2
Fore
SplineSet
759 508 m 1
 819 508 l 1
 759 224 l 1
 576 0 l 1
 488 0 l 1
 420 174 l 1
 277 0 l 1
 189 0 l 1
 103 224 l 1
 163 508 l 1
 223 508 l 1
 163 228 l 1
 228 60 l 1
 266 60 l 1
 402 228 l 1
 462 508 l 1
 522 508 l 1
 462 228 l 1
 527 60 l 1
 565 60 l 1
 699 228 l 1
 759 508 l 1
EndSplineSet
Validated: 1
EndChar

StartChar: x
Encoding: 120 120 89
Width: 616
VWidth: 1661
Flags: W
HStem: 0 21G<55 117.235 472 536.286> 224 60<314 379> 488 20G<156.833 221 575.422 640>
LayerCount: 2
Fore
SplineSet
580 508 m 1
 640 508 l 1
 620 412 l 1
 430 254 l 1
 553 98 l 1
 532 0 l 1
 472 0 l 1
 490 85 l 1
 379 224 l 1
 302 224 l 1
 131 85 l 1
 113 0 l 1
 55 0 l 1
 75 98 l 1
 266 254 l 1
 141 412 l 1
 161 508 l 1
 221 508 l 1
 203 425 l 1
 314 284 l 1
 390 284 l 1
 561 425 l 1
 580 508 l 1
EndSplineSet
Validated: 1
EndChar

StartChar: y
Encoding: 121 121 90
Width: 617
VWidth: 1661
Flags: W
HStem: -209 59<264 389> 0 60<184 354> 488 20G<159.789 224 578.796 643>
LayerCount: 2
Fore
SplineSet
643 508 m 1
 510 -120 l 1
 402 -209 l 1
 253 -209 l 1
 264 -150 l 1
 389 -150 l 1
 455 -95 l 1
 502 120 l 1
 355 0 l 1
 146 0 l 1
 76 90 l 1
 164 508 l 1
 224 508 l 1
 141 115 l 1
 184 60 l 1
 354 60 l 1
 517 194 l 1
 583 508 l 1
 643 508 l 1
EndSplineSet
Validated: 1
EndChar

StartChar: z
Encoding: 122 122 91
Width: 616
VWidth: 1661
Flags: W
HStem: 0 60<128 533> 449 59<163 568>
LayerCount: 2
Fore
SplineSet
163 508 m 1
 641 508 l 1
 616 389 l 1
 136 98 l 1
 128 60 l 1
 547 60 l 1
 533 0 l 1
 55 0 l 1
 80 120 l 1
 560 410 l 1
 568 449 l 1
 150 449 l 1
 163 508 l 1
EndSplineSet
Validated: 1
EndChar

StartChar: braceleft
Encoding: 123 123 92
Width: 375
VWidth: 1661
Flags: W
HStem: -120 60<243 264> 776 60<420 455>
LayerCount: 2
Fore
SplineSet
291 424 m 1
 213 359 l 1
 262 294 l 1
 199 -7 l 1
 243 -60 l 1
 277 -60 l 1
 264 -120 l 1
 204 -120 l 1
 135 -32 l 1
 198 269 l 1
 128 359 l 1
 236 449 l 1
 299 746 l 1
 409 836 l 1
 468 836 l 1
 455 776 l 1
 420 776 l 1
 354 721 l 1
 291 424 l 1
EndSplineSet
Validated: 1
EndChar

StartChar: bar
Encoding: 124 124 93
Width: 197
VWidth: 1661
Flags: W
HStem: -209 21G<8 72.2086>
VStem: 8 286
LayerCount: 2
Fore
SplineSet
294 865 m 1
 68 -209 l 1
 8 -209 l 1
 234 865 l 1
 294 865 l 1
EndSplineSet
Validated: 1
EndChar

StartChar: braceright
Encoding: 125 125 94
Width: 322
VWidth: 1661
Flags: W
HStem: -120 60<-10 25> 776 60<179 201>
LayerCount: 2
Fore
SplineSet
246 447 m 1
 316 357 l 1
 208 267 l 1
 145 -30 l 1
 37 -120 l 1
 -23 -120 l 1
 -10 -60 l 1
 25 -60 l 1
 90 -5 l 1
 153 292 l 1
 231 357 l 1
 181 422 l 1
 244 721 l 1
 201 776 l 1
 166 776 l 1
 179 836 l 1
 239 836 l 1
 309 746 l 1
 246 447 l 1
EndSplineSet
Validated: 1
EndChar

StartChar: asciitilde
Encoding: 126 126 95
Width: 614
VWidth: 1661
Flags: W
HStem: 357 60<407 429> 447 60<184 208>
LayerCount: 2
Fore
SplineSet
502 507 m 1
 561 507 l 1
 548 447 l 1
 440 357 l 1
 380 357 l 1
 208 447 l 1
 184 447 l 1
 120 392 l 1
 113 357 l 1
 53 357 l 1
 66 417 l 1
 174 507 l 1
 234 507 l 1
 407 417 l 1
 429 417 l 1
 495 472 l 1
 502 507 l 1
EndSplineSet
Validated: 1
EndChar

StartChar: quotedbl
Encoding: 34 34 97
Width: 287
VWidth: 1661
Flags: W
HStem: 568 150<297 310 386 400>
VStem: 191 166
LayerCount: 2
Fore
SplineSet
191 568 m 1
 208 718 l 1
 267 718 l 1
 221 568 l 1
 191 568 l 1
297 718 m 1
 357 718 l 1
 311 568 l 1
 281 568 l 1
 297 718 l 1
EndSplineSet
Validated: 1
EndChar

StartChar: exclam
Encoding: 33 33 98
Width: 205
VWidth: 1661
Flags: W
HStem: 0 21G<51.6364 120.545>
VStem: 50 221
LayerCount: 2
Fore
SplineSet
81 75 m 1
 111 75 l 1
 130 53 l 1
 123 22 l 1
 96 0 l 1
 68 0 l 1
 50 22 l 1
 56 53 l 1
 81 75 l 1
136 150 m 1
 91 150 l 1
 196 718 l 1
 271 718 l 1
 136 150 l 1
EndSplineSet
Validated: 1
EndChar

StartChar: exclamdown
Encoding: 161 161 100
Width: 205
VWidth: 1661
Flags: W
HStem: -209 21G<2 78.662> 487 20G<150.273 221.273>
VStem: 2 221
LayerCount: 2
Fore
SplineSet
204 507 m 1
 223 485 l 1
 216 455 l 1
 189 432 l 1
 158 432 l 1
 141 455 l 1
 148 485 l 1
 173 507 l 1
 204 507 l 1
135 359 m 1
 179 359 l 1
 75 -209 l 1
 2 -209 l 1
 135 359 l 1
EndSplineSet
Validated: 1
EndChar

StartChar: cent
Encoding: 162 162 101
Width: 554
VWidth: 1661
Flags: W
HStem: 0 60<179 233 292 369> 507 21G<518 582.407> 596 60<294 370 430 483> 696 20G<379.333 444>
LayerCount: 2
Fore
SplineSet
578 507 m 1
 518 507 l 1
 527 542 l 1
 483 596 l 1
 294 596 l 1
 228 542 l 1
 136 115 l 1
 179 60 l 1
 369 60 l 1
 435 115 l 1
 444 150 l 1
 503 150 l 1
 490 90 l 1
 382 0 l 1
 292 0 l 1
 279 -60 l 1
 219 -60 l 1
 233 0 l 1
 143 0 l 1
 71 90 l 1
 173 566 l 1
 281 656 l 1
 370 656 l 1
 384 716 l 1
 444 716 l 1
 430 656 l 1
 520 656 l 1
 591 566 l 1
 578 507 l 1
EndSplineSet
Validated: 1
EndChar

StartChar: sterling
Encoding: 163 163 102
Width: 641
VWidth: 1661
Flags: W
HStem: 0 60<146 557> 329 60<131 239 311 419> 658 60<424 553>
CounterMasks: 1 e0
LayerCount: 2
Fore
SplineSet
146 60 m 1
 568 60 l 1
 557 0 l 1
 51 0 l 1
 63 60 l 1
 208 179 l 1
 239 329 l 1
 120 329 l 1
 131 389 l 1
 251 389 l 1
 302 628 l 1
 410 718 l 1
 590 718 l 1
 659 628 l 1
 646 568 l 1
 588 568 l 1
 596 603 l 1
 553 658 l 1
 424 658 l 1
 357 603 l 1
 311 389 l 1
 430 389 l 1
 419 329 l 1
 299 329 l 1
 261 154 l 1
 146 60 l 1
EndSplineSet
Validated: 1
EndChar

StartChar: currency
Encoding: 164 164 103
Width: 662
VWidth: 1661
Flags: W
HStem: 120 59<199 449> 538 60<274 523>
LayerCount: 2
Fore
SplineSet
568 209 m 1
 540 184 l 1
 581 131 l 1
 530 90 l 1
 488 143 l 1
 460 120 l 1
 161 120 l 1
 143 143 l 1
 78 90 l 1
 45 131 l 1
 108 184 l 1
 90 209 l 1
 154 508 l 1
 183 532 l 1
 140 585 l 1
 193 628 l 1
 234 573 l 1
 262 598 l 1
 561 598 l 1
 580 573 l 1
 645 628 l 1
 678 585 l 1
 615 532 l 1
 633 508 l 1
 568 209 l 1
199 179 m 1
 449 179 l 1
 515 234 l 1
 566 483 l 1
 523 538 l 1
 274 538 l 1
 208 483 l 1
 156 234 l 1
 199 179 l 1
EndSplineSet
Validated: 1
EndChar

StartChar: yen
Encoding: 165 165 104
Width: 617
VWidth: 1661
Flags: W
HStem: 0 21G<264 328.227> 194 60<168 306 377 515> 314 60<194 294 455 540> 696 20G<201.825 266 620.691 684>
LayerCount: 2
Fore
SplineSet
625 716 m 1
 684 716 l 1
 641 507 l 1
 455 374 l 1
 553 374 l 1
 540 314 l 1
 390 314 l 1
 377 254 l 1
 527 254 l 1
 515 194 l 1
 365 194 l 1
 324 0 l 1
 264 0 l 1
 306 194 l 1
 156 194 l 1
 168 254 l 1
 317 254 l 1
 331 314 l 1
 181 314 l 1
 194 374 l 1
 294 374 l 1
 163 510 l 1
 206 716 l 1
 266 716 l 1
 228 537 l 1
 375 382 l 1
 586 535 l 1
 625 716 l 1
EndSplineSet
Validated: 1
EndChar

StartChar: brokenbar
Encoding: 166 166 105
Width: 199
VWidth: 1661
Flags: W
HStem: -209 21G<13 74.252>
VStem: 13 278
LayerCount: 2
Fore
SplineSet
233 836 m 1
 291 836 l 1
 189 359 l 1
 131 359 l 1
 233 836 l 1
13 -209 m 1
 120 299 l 1
 178 299 l 1
 70 -209 l 1
 13 -209 l 1
EndSplineSet
Validated: 1
EndChar

StartChar: section
Encoding: 167 167 106
Width: 556
VWidth: 1661
Flags: W
HStem: -60 60<211 370> 179 60<262 409> 419 59<284 430> 658 60<322 482>
LayerCount: 2
Fore
SplineSet
470 209 m 1
 518 150 l 1
 492 30 l 1
 384 -60 l 1
 174 -60 l 1
 103 30 l 1
 116 90 l 1
 176 90 l 1
 168 55 l 1
 211 0 l 1
 370 0 l 1
 437 55 l 1
 454 126 l 1
 409 179 l 1
 224 179 l 1
 131 299 l 1
 150 389 l 1
 223 449 l 1
 174 508 l 1
 201 628 l 1
 309 718 l 1
 518 718 l 1
 590 628 l 1
 576 568 l 1
 517 568 l 1
 525 603 l 1
 482 658 l 1
 322 658 l 1
 256 603 l 1
 241 533 l 1
 284 478 l 1
 467 478 l 1
 561 359 l 1
 543 269 l 1
 470 209 l 1
262 239 m 1
 422 239 l 1
 488 294 l 1
 497 334 l 1
 430 419 l 1
 271 419 l 1
 204 364 l 1
 196 324 l 1
 262 239 l 1
EndSplineSet
Validated: 1
EndChar

StartChar: dieresis
Encoding: 168 168 107
Width: 408
VWidth: 1661
Flags: W
HStem: 777 108<103 126 271 294>
VStem: 56 285
LayerCount: 2
Fore
SplineSet
148 885 m 1
 173 854 l 1
 164 809 l 1
 126 777 l 1
 81 777 l 1
 56 809 l 1
 65 854 l 1
 103 885 l 1
 148 885 l 1
341 854 m 1
 332 809 l 1
 294 777 l 1
 249 777 l 1
 224 809 l 1
 233 854 l 1
 271 885 l 1
 316 885 l 1
 341 854 l 1
EndSplineSet
Validated: 1
EndChar

StartChar: copyright
Encoding: 169 169 108
Width: 734
VWidth: 1661
Flags: W
HStem: 60 60<241 490> 179 60<326 455> 478 59<377 505> 596 60<342 591>
LayerCount: 2
Fore
SplineSet
630 656 m 1
 748 508 l 1
 683 209 l 1
 502 60 l 1
 203 60 l 1
 85 209 l 1
 150 507 l 1
 331 656 l 1
 630 656 l 1
630 234 m 1
 683 483 l 1
 591 596 l 1
 342 596 l 1
 203 482 l 1
 151 234 l 1
 241 120 l 1
 490 120 l 1
 630 234 l 1
542 537 m 1
 615 447 l 1
 601 389 l 1
 542 389 l 1
 550 422 l 1
 505 478 l 1
 377 478 l 1
 311 422 l 1
 282 294 l 1
 326 239 l 1
 455 239 l 1
 522 294 l 1
 530 329 l 1
 590 329 l 1
 576 269 l 1
 468 179 l 1
 289 179 l 1
 218 269 l 1
 256 447 l 1
 364 537 l 1
 542 537 l 1
EndSplineSet
Validated: 1
EndChar

StartChar: ordfeminine
Encoding: 170 170 109
Width: 505
VWidth: 1661
Flags: W
HStem: 276 55<141.088 306.094> 463 57<176 405> 608 56<206 415.467>
VStem: 111 55<542 570.713>
LayerCount: 2
Fore
SplineSet
171 571 m 1
 171 565 166 551 166 542 c 1
 111 542 l 1
 121 595 l 1
 206 664 l 1
 432 664 l 1
 487 595 l 1
 420 276 l 1
 365 276 l 1
 372 309 l 2
 376 328 377 345 382 357 c 1
 377 354 370 348 360 339 c 2
 328 312 l 2
 319 304 289 278 284 276 c 1
 125 276 l 1
 70 346 l 1
 91 450 l 1
 176 520 l 1
 417 520 l 1
 420 529 427 566 427 571 c 1
 423 579 400 604 399 608 c 1
 218 608 l 1
 210 600 171 571 171 571 c 1
130 369 m 1
 131 365 152 338 159 331 c 1
 281 331 l 1
 282 332 288 337 300 347 c 2
 378 412 l 2
 399 431 398 426 402 445 c 2
 405 463 l 1
 188 463 l 2
 187 463 185 462 182 460 c 2
 168 449 l 2
 159 443 146 432 141 427 c 1
 141 421 130 378 130 369 c 1
EndSplineSet
Validated: 1
EndChar

StartChar: guillemotleft
Encoding: 171 171 110
Width: 501
VWidth: 1661
Flags: W
LayerCount: 2
Fore
SplineSet
159 279 m 1
 158 272 l 1
 254 163 l 1
 238 81 l 1
 93 246 l 1
 105 306 l 1
 319 470 l 1
 302 389 l 1
 159 279 l 1
482 389 m 1
 339 279 l 1
 337 272 l 1
 434 163 l 1
 417 81 l 1
 272 246 l 1
 284 306 l 1
 498 470 l 1
 482 389 l 1
EndSplineSet
Validated: 1
EndChar

StartChar: logicalnot
Encoding: 172 172 111
Width: 649
VWidth: 1661
Flags: W
HStem: 329 60<108 543>
LayerCount: 2
Fore
SplineSet
108 389 m 1
 616 389 l 1
 565 150 l 1
 505 150 l 1
 543 329 l 1
 95 329 l 1
 108 389 l 1
EndSplineSet
Validated: 1
EndChar

StartChar: registered
Encoding: 174 174 112
Width: 549
VWidth: 1661
Flags: W
HStem: 306 41<203 334> 477 38<271 321> 571 40<282 356.504> 676 42<276 405>
VStem: 334 40<412 445.727>
LayerCount: 2
Fore
SplineSet
430 718 m 1
 430 717 528 593 528 593 c 1
 493 430 l 2
 493 429 485 422 470 410 c 2
 367 325 l 2
 352 312 343 306 342 306 c 2
 178 306 l 1
 98 410 l 2
 88 422 82 429 81 429 c 1
 116 593 l 1
 117 594 126 601 141 614 c 2
 242 697 l 2
 258 710 266 717 267 718 c 1
 430 718 l 1
455 447 m 1
 483 575 l 1
 405 676 l 1
 276 676 l 1
 154 576 l 1
 126 445 l 1
 203 347 l 1
 334 347 l 1
 455 447 l 1
262 477 m 1
 259 465 264 470 249 414 c 1
 209 414 l 1
 251 611 l 1
 365 611 l 1
 405 561 l 1
 397 527 l 1
 380 513 l 2
 367 502 366 499 362 497 c 1
 362 494 363 491 366 488 c 2
 385 465 l 1
 374 412 l 1
 334 412 l 1
 337 425 340 448 342 450 c 1
 321 477 l 1
 262 477 l 1
362 545 m 1
 357 550 343 569 341 571 c 1
 282 571 l 1
 271 515 l 1
 329 515 l 1
 362 543 l 1
 362 545 l 1
EndSplineSet
Validated: 1
EndChar

StartChar: macron
Encoding: 175 175 113
Width: 350
VWidth: 1661
Flags: W
HStem: 802 60<68 266>
VStem: 56 221
LayerCount: 2
Fore
SplineSet
56 802 m 1
 68 862 l 1
 277 862 l 1
 266 802 l 1
 56 802 l 1
EndSplineSet
Validated: 1
EndChar

StartChar: degree
Encoding: 176 176 114
Width: 294
VWidth: 1661
Flags: W
HStem: 507 53<203 246> 664 52<224 267>
VStem: 121 228
LayerCount: 2
Fore
SplineSet
301 716 m 1
 349 655 l 1
 331 568 l 1
 256 507 l 1
 169 507 l 1
 121 568 l 1
 140 655 l 1
 214 716 l 1
 301 716 l 1
282 590 m 1
 291 633 l 1
 267 664 l 1
 224 664 l 1
 186 633 l 1
 178 590 l 1
 203 560 l 1
 246 560 l 1
 282 590 l 1
EndSplineSet
Validated: 1
EndChar

StartChar: plusminus
Encoding: 177 177 115
Width: 672
VWidth: 1661
Flags: W
HStem: 0 60<63 301 360 586> 299 60<126 352 424 651>
LayerCount: 2
Fore
SplineSet
412 299 m 1
 360 60 l 1
 600 60 l 1
 586 0 l 1
 51 0 l 1
 63 60 l 1
 301 60 l 1
 352 299 l 1
 115 299 l 1
 126 359 l 1
 364 359 l 1
 415 598 l 1
 475 598 l 1
 424 359 l 1
 663 359 l 1
 651 299 l 1
 412 299 l 1
EndSplineSet
Validated: 1
EndChar

StartChar: twosuperior
Encoding: 178 178 116
Width: 411
VWidth: 1661
Flags: W
HStem: 296 55<123 327> 659 55<209 341.627>
VStem: 131 55<610 635.849>
LayerCount: 2
Fore
SplineSet
191 636 m 1
 191 633 186 615 186 610 c 1
 131 610 l 1
 141 658 l 1
 209 714 l 1
 359 714 l 1
 404 659 l 1
 384 566 l 1
 139 380 l 2
 132 375 127 371 126 370 c 1
 126 366 125 360 123 351 c 1
 339 351 l 1
 327 296 l 1
 56 296 l 1
 76 394 l 1
 291 559 l 2
 318 580 332 590 334 591 c 1
 334 596 342 627 342 636 c 256
 342 639 327 656 324 659 c 1
 219 659 l 1
 218 658 195 639 191 636 c 1
EndSplineSet
Validated: 1
EndChar

StartChar: threesuperior
Encoding: 179 179 117
Width: 411
VWidth: 1661
Flags: W
HStem: 296 55<129.043 271> 493 57<193 307.998> 659 55<209 342.957>
VStem: 78 55<380.195 400> 131 55<610 635.849>
LayerCount: 2
Fore
SplineSet
191 636 m 1xf0
 191 633 186 615 186 610 c 1
 131 610 l 1xe8
 141 658 l 1
 209 714 l 1
 359 714 l 1
 404 659 l 1
 380 550 l 1
 375 547 370 543 365 538 c 2
 354 529 l 2
 351 526 348 524 347 522 c 1
 349 518 363 499 369 493 c 1
 339 352 l 1
 271 296 l 1
 113 296 l 1
 68 352 l 1
 78 400 l 1
 133 400 l 1
 132 398 128 384 128 380 c 2
 128 374 l 1
 132 370 142 357 148 351 c 1
 259 351 l 2
 261 351 286 372 289 374 c 1
 291 384 309 468 309 470 c 1
 302 477 294 491 289 493 c 1
 181 493 l 1
 193 550 l 1
 301 550 l 1
 303 551 308 555 316 561 c 2
 331 573 l 1
 331 574 344 624 344 636 c 1
 340 640 330 653 324 659 c 1
 221 659 l 1
 216 654 194 638 191 636 c 1xf0
EndSplineSet
Validated: 1
EndChar

StartChar: acute
Encoding: 180 180 118
Width: 259
VWidth: 1661
Flags: W
HStem: 756 119
VStem: 216 144
LayerCount: 2
Fore
SplineSet
216 756 m 1
 286 875 l 1
 360 875 l 1
 246 756 l 1
 216 756 l 1
EndSplineSet
Validated: 1
EndChar

StartChar: mu
Encoding: 181 181 119
Width: 586
VWidth: 1661
Flags: W
HStem: -209 21G<13 75.1841> 0 60<183 322> 487 20G<158.81 223 547.732 611>
LayerCount: 2
Fore
SplineSet
552 507 m 1
 611 507 l 1
 503 0 l 1
 444 0 l 1
 470 120 l 1
 324 0 l 1
 145 0 l 1
 121 30 l 1
 71 -209 l 1
 13 -209 l 1
 163 507 l 1
 223 507 l 1
 140 113 l 1
 183 60 l 1
 322 60 l 1
 485 193 l 1
 552 507 l 1
EndSplineSet
Validated: 1
EndChar

StartChar: paragraph
Encoding: 182 182 120
Width: 463
VWidth: 1661
Flags: W
HStem: -209 21G<156 220.272 276 340.25>
LayerCount: 2
Fore
SplineSet
473 718 m 1
 533 718 l 1
 336 -209 l 1
 276 -209 l 1
 473 718 l 1
301 718 m 1
 414 718 l 1
 216 -209 l 1
 156 -209 l 1
 284 389 l 1
 231 389 l 1
 154 485 l 1
 183 621 l 1
 301 718 l 1
EndSplineSet
Validated: 1
EndChar

StartChar: periodcentered
Encoding: 183 183 121
Width: 264
VWidth: 1661
Flags: W
HStem: 299 118<120 145>
VStem: 66 132
LayerCount: 2
Fore
SplineSet
198 382 m 1
 186 334 l 1
 145 299 l 1
 95 299 l 1
 66 334 l 1
 78 382 l 1
 120 417 l 1
 169 417 l 1
 198 382 l 1
EndSplineSet
Validated: 1
EndChar

StartChar: cedilla
Encoding: 184 184 122
Width: 285
VWidth: 1661
Flags: W
HStem: -251 52<63 131>
VStem: 51 182
LayerCount: 2
Fore
SplineSet
233 -110 m 1
 216 -189 l 1
 141 -251 l 1
 51 -251 l 1
 63 -199 l 1
 131 -199 l 1
 168 -168 l 1
 174 -133 l 1
 151 -101 l 1
 83 -101 l 1
 90 -71 l 1
 198 33 l 1
 221 15 l 1
 171 -50 l 1
 184 -50 l 1
 233 -110 l 1
EndSplineSet
Validated: 1
EndChar

StartChar: onesuperior
Encoding: 185 185 123
Width: 257
VWidth: 1661
Flags: W
HStem: 696 20G<187.053 261>
VStem: 118 55<296 329.404>
LayerCount: 2
Fore
SplineSet
189 631 m 1
 180 627 163 609 151 600 c 1
 120 640 l 1
 211 716 l 1
 261 716 l 1
 173 296 l 1
 118 296 l 1
 175 568 l 2
 182 603 187 624 189 631 c 1
EndSplineSet
Validated: 1
EndChar

StartChar: ordmasculine
Encoding: 186 186 124
Width: 411
VWidth: 1661
Flags: W
HStem: 389 51<153 256> 605 51<188 291>
VStem: 71 301
LayerCount: 2
Fore
SplineSet
324 656 m 1
 372 596 l 1
 341 449 l 1
 266 389 l 1
 120 389 l 1
 71 449 l 1
 103 596 l 1
 178 656 l 1
 324 656 l 1
292 470 m 1
 314 573 l 1
 291 605 l 1
 188 605 l 1
 150 573 l 1
 128 470 l 1
 153 440 l 1
 256 440 l 1
 292 470 l 1
EndSplineSet
Validated: 1
EndChar

StartChar: guillemotright
Encoding: 187 187 125
Width: 501
VWidth: 1661
Flags: W
LayerCount: 2
Fore
SplineSet
321 470 m 1
 465 306 l 1
 454 246 l 1
 239 81 l 1
 256 161 l 1
 399 271 l 1
 400 279 l 1
 304 389 l 1
 321 470 l 1
286 306 m 1
 274 246 l 1
 60 81 l 1
 76 161 l 1
 219 271 l 1
 221 279 l 1
 125 389 l 1
 141 470 l 1
 286 306 l 1
EndSplineSet
Validated: 1
EndChar

StartChar: onequarter
Encoding: 188 188 126
Width: 764
VWidth: 1661
Flags: W
HStem: 0 21G<111 194.71 591 650.667> 66 55<490 605 671 693>
VStem: 184 55<297 329.948>
LayerCount: 2
Fore
SplineSet
704 121 m 1
 693 66 l 1
 659 66 l 1
 657 59 658 51 653 30 c 2
 646 0 l 1
 591 0 l 1
 598 30 l 2
 603 51 601 60 605 66 c 1
 424 66 l 1
 440 145 l 1
 440 146 l 1
 648 414 l 1
 651 419 l 1
 734 419 l 1
 704 274 l 2
 698 240 690 203 683 172 c 2
 674 137 l 2
 672 128 671 122 671 121 c 1
 704 121 l 1
668 359 m 1
 665 354 654 340 636 316 c 2
 519 166 l 2
 502 144 493 132 492 131 c 1
 490 121 l 1
 616 121 l 1
 668 359 l 1
743 718 m 1
 179 0 l 1
 111 0 l 1
 673 718 l 1
 743 718 l 1
256 633 m 1
 248 628 222 604 218 601 c 1
 188 641 l 1
 279 718 l 1
 327 718 l 1
 239 297 l 1
 184 297 l 1
 242 570 l 2
 249 605 254 626 256 633 c 1
EndSplineSet
Validated: 1
LCarets2: 2 0 0 
Ligature2: "'frac' Diagonal Fractions in Latin lookup 0 subtable" one fraction four
Ligature2: "'frac' Diagonal Fractions in Latin lookup 0 subtable" one slash four
EndChar

StartChar: onehalf
Encoding: 189 189 127
Width: 850
VWidth: 1661
Flags: W
HStem: 0 55<563 766> 364 55<648 780.132>
VStem: 571 55<312 340.666>
LayerCount: 2
Fore
SplineSet
631 341 m 1
 631 334 626 319 626 312 c 1
 571 312 l 1
 581 362 l 1
 648 419 l 1
 799 419 l 1
 842 362 l 1
 822 271 l 1
 608 107 l 2
 581 86 567 76 566 75 c 1
 563 55 l 1
 777 55 l 1
 766 0 l 1
 497 0 l 1
 517 98 l 1
 731 264 l 2
 758 284 771 295 772 296 c 1
 782 341 l 1
 777 343 765 361 764 364 c 1
 659 364 l 1
 658 358 635 343 631 341 c 1
183 299 m 1
 216 457 l 2
 229 514 229 526 240 571 c 2
 250 612 l 1
 254 633 l 1
 251 631 248 629 246 628 c 2
 229 615 l 1
 225 610 221 606 216 603 c 1
 186 641 l 1
 277 718 l 1
 326 718 l 1
 238 299 l 1
 183 299 l 1
741 718 m 1
 179 0 l 1
 110 0 l 1
 673 718 l 1
 741 718 l 1
EndSplineSet
Validated: 1
LCarets2: 2 0 0 
Ligature2: "'frac' Diagonal Fractions in Latin lookup 0 subtable" one fraction two
Ligature2: "'frac' Diagonal Fractions in Latin lookup 0 subtable" one slash two
EndChar

StartChar: threequarters
Encoding: 190 190 128
Width: 911
VWidth: 1661
Flags: W
HStem: 0 21G<256 341.627 739 798.667> 66 55<638 753 819 841> 297 57<203 316> 497 55<249 361.923> 663 55<266 397.815>
VStem: 135 54<383.278 404> 188 55<613 637.766>
LayerCount: 2
Fore
SplineSet
402 525 m 1xfa
 404 522 422 498 424 495 c 1
 394 354 l 1
 327 297 l 1
 169 297 l 1
 125 354 l 1
 135 404 l 1
 189 404 l 1xfc
 186 391 184 389 184 383 c 2
 184 377 l 1
 203 354 l 1
 316 354 l 1
 329 364 l 2
 335 368 338 371 344 377 c 1
 360 457 l 2
 363 467 364 472 364 473 c 1
 362 475 347 492 346 497 c 1
 238 497 l 1
 249 552 l 1
 357 552 l 1
 361 556 384 573 385 575 c 1
 399 638 l 1
 399 643 381 662 380 663 c 1
 276 663 l 1
 273 657 256 646 248 638 c 1
 248 633 243 628 243 613 c 1
 188 613 l 1
 198 661 l 1
 266 718 l 1
 415 718 l 1
 458 661 l 1
 435 553 l 1
 413 539 409 530 402 525 c 1xfa
852 121 m 1
 841 66 l 1
 807 66 l 1
 805 59 806 51 801 30 c 2
 794 0 l 1
 739 0 l 1
 746 30 l 2
 751 51 749 60 753 66 c 1
 571 66 l 1
 588 145 l 1
 588 146 l 1
 799 419 l 1
 882 419 l 1
 852 274 l 2
 846 240 838 203 831 172 c 2
 822 137 l 2
 820 128 819 122 819 121 c 1
 852 121 l 1
816 359 m 1
 813 354 802 340 784 316 c 2
 667 166 l 2
 650 144 641 132 640 131 c 1
 638 121 l 1
 764 121 l 1
 816 359 l 1
887 718 m 1
 326 0 l 1
 256 0 l 1
 819 718 l 1
 887 718 l 1
EndSplineSet
Validated: 1
LCarets2: 2 0 0 
Ligature2: "'frac' Diagonal Fractions in Latin lookup 0 subtable" three fraction four
Ligature2: "'frac' Diagonal Fractions in Latin lookup 0 subtable" three slash four
EndChar

StartChar: questiondown
Encoding: 191 191 129
Width: 584
VWidth: 1661
Flags: W
HStem: -209 59<135 354> 487 20G<346.273 417.273>
LayerCount: 2
Fore
SplineSet
385 432 m 1
 354 432 l 1
 337 455 l 1
 344 485 l 1
 369 507 l 1
 400 507 l 1
 419 485 l 1
 412 455 l 1
 385 432 l 1
429 -60 m 1
 488 -60 l 1
 475 -120 l 1
 367 -209 l 1
 98 -209 l 1
 30 -120 l 1
 61 32 l 1
 291 208 l 1
 322 359 l 1
 382 359 l 1
 346 181 l 1
 115 5 l 1
 93 -95 l 1
 135 -150 l 1
 354 -150 l 1
 420 -95 l 1
 429 -60 l 1
EndSplineSet
Validated: 1
EndChar

StartChar: AE
Encoding: 198 198 134
Width: 1003
VWidth: 1661
Flags: W
HStem: 0 60<596 919> 209 60<168 513> 329 60<611 959> 658 60<591 610 724 1058>
LayerCount: 2
Fore
SplineSet
658 603 m 1
 611 389 l 1
 970 389 l 1
 959 329 l 1
 600 329 l 1
 553 115 l 1
 596 60 l 1
 930 60 l 1
 919 0 l 1
 560 0 l 1
 488 90 l 1
 513 209 l 1
 154 209 l 1
 111 0 l 1
 53 0 l 1
 133 389 l 1
 591 718 l 1
 681 718 l 1
 676 688 l 1
 711 718 l 1
 1070 718 l 1
 1058 658 l 1
 724 658 l 1
 658 603 l 1
527 269 m 1
 610 658 l 1
 588 658 l 1
 189 372 l 1
 168 269 l 1
 527 269 l 1
EndSplineSet
Validated: 1
EndChar

StartChar: Ccedilla
Encoding: 199 199 135
Width: 616
VWidth: 1661
Flags: W
HStem: -249 51<191 259> 0 60<181 289 336 430> 656 60<309 558>
LayerCount: 2
Fore
SplineSet
360 -108 m 1
 344 -188 l 1
 269 -249 l 1
 179 -249 l 1
 191 -198 l 1
 259 -198 l 1
 296 -166 l 1
 302 -131 l 1
 279 -100 l 1
 211 -100 l 1
 218 -70 l 1
 289 0 l 1
 145 0 l 1
 75 90 l 1
 188 626 l 1
 296 716 l 1
 595 716 l 1
 666 626 l 1
 653 566 l 1
 593 566 l 1
 601 603 l 1
 558 656 l 1
 309 656 l 1
 243 601 l 1
 138 113 l 1
 181 60 l 1
 430 60 l 1
 497 115 l 1
 505 150 l 1
 565 150 l 1
 552 90 l 1
 444 0 l 1
 336 0 l 1
 299 -48 l 1
 312 -48 l 1
 360 -108 l 1
EndSplineSet
Validated: 1
EndChar

StartChar: Eth
Encoding: 208 208 144
Width: 676
VWidth: 1661
Flags: W
HStem: 0 60<184 488> 329 60<135 183 254 422> 656 60<312 616>
LayerCount: 2
Fore
SplineSet
653 716 m 1
 724 626 l 1
 610 90 l 1
 502 0 l 1
 113 0 l 1
 183 329 l 1
 123 329 l 1
 135 389 l 1
 194 389 l 1
 264 716 l 1
 653 716 l 1
555 115 m 1
 659 603 l 1
 616 656 l 1
 312 656 l 1
 254 389 l 1
 434 389 l 1
 422 329 l 1
 243 329 l 1
 184 60 l 1
 488 60 l 1
 555 115 l 1
EndSplineSet
Validated: 1
EndChar

StartChar: multiply
Encoding: 215 215 151
Width: 591
VWidth: 1661
Flags: W
LayerCount: 2
Fore
SplineSet
566 583 m 1
 573 578 589 554 596 547 c 1
 594 544 581 533 558 513 c 2
 478 449 l 1
 365 355 l 1
 490 198 l 2
 505 178 514 167 515 166 c 1
 498 149 472 132 468 128 c 1
 467 130 460 141 444 161 c 2
 321 319 l 1
 128 161 l 2
 105 141 92 130 90 128 c 1
 83 134 67 159 60 166 c 1
 63 166 67 173 98 198 c 2
 292 355 l 1
 166 513 l 2
 151 533 142 544 141 547 c 1
 142 548 145 550 150 553 c 0
 180 577 179 579 188 583 c 1
 189 581 196 570 212 550 c 2
 336 392 l 1
 340 392 342 400 396 442 c 2
 548 567 l 2
 559 576 565 582 566 583 c 1
EndSplineSet
Validated: 1
EndChar

StartChar: Oslash
Encoding: 216 216 152
Width: 644
VWidth: 1661
Flags: W
HStem: 0 60<178 457> 656 60<306 585>
LayerCount: 2
Fore
SplineSet
711 716 m 1
 664 661 l 1
 693 628 l 1
 578 90 l 1
 470 0 l 1
 141 0 l 1
 130 12 l 1
 96 -32 l 1
 53 0 l 1
 96 55 l 1
 71 90 l 1
 184 626 l 1
 292 716 l 1
 621 716 l 1
 631 704 l 1
 666 748 l 1
 711 716 l 1
135 113 m 1
 141 108 l 1
 588 651 l 1
 585 656 l 1
 306 656 l 1
 239 601 l 1
 135 113 l 1
628 603 m 1
 621 608 l 1
 174 65 l 1
 178 60 l 1
 457 60 l 1
 523 115 l 1
 628 603 l 1
EndSplineSet
Validated: 1
EndChar

StartChar: Thorn
Encoding: 222 222 158
Width: 588
VWidth: 1661
Flags: W
HStem: 0 21G<53 115.268> 164 60<158 432> 492 60<228 490> 696 20G<198.81 262>
LayerCount: 2
Fore
SplineSet
527 552 m 1
 598 463 l 1
 553 254 l 1
 445 164 l 1
 146 164 l 1
 111 0 l 1
 53 0 l 1
 203 716 l 1
 262 716 l 1
 228 552 l 1
 527 552 l 1
498 279 m 1
 533 439 l 1
 490 492 l 1
 216 492 l 1
 158 224 l 1
 432 224 l 1
 498 279 l 1
EndSplineSet
Validated: 1
EndChar

StartChar: uni00DF
Encoding: 223 223 159
Width: 556
VWidth: 1661
Flags: W
HStem: -209 21G<10 72.2611> 0 60<186 370> 656 60<307 467>
LayerCount: 2
Fore
SplineSet
422 354 m 1
 520 229 l 1
 492 90 l 1
 382 0 l 1
 173 0 l 1
 186 60 l 1
 370 60 l 1
 437 115 l 1
 455 204 l 1
 337 354 l 1
 482 472 l 1
 510 601 l 1
 467 656 l 1
 307 656 l 1
 241 603 l 1
 68 -209 l 1
 10 -209 l 1
 186 626 l 1
 296 716 l 1
 505 716 l 1
 575 626 l 1
 537 449 l 1
 422 354 l 1
EndSplineSet
Validated: 1
EndChar

StartChar: ae
Encoding: 230 230 166
Width: 1034
VWidth: 1661
Flags: W
HStem: 0 60<181 351 598 831> 224 60<591 949> 254 60<223 527> 449 59<262 512 681 930>
LayerCount: 2
Fore
SplineSet
997 224 m 1xd0
 580 224 l 1
 557 115 l 1
 598 60 l 1
 844 60 l 1
 831 0 l 1
 561 0 l 1
 490 90 l 1
 497 121 l 1
 352 0 l 1
 143 0 l 1
 71 90 l 1
 101 224 l 1xd0
 209 314 l 1
 538 314 l 1xb0
 555 394 l 1
 512 449 l 1
 262 449 l 1
 196 394 l 1
 189 359 l 1
 130 359 l 1
 143 419 l 1
 251 508 l 1
 550 508 l 1
 596 449 l 1
 669 508 l 1
 968 508 l 1
 1038 419 l 1
 997 224 l 1xd0
681 449 m 1
 615 394 l 1
 591 284 l 1
 949 284 l 1
 972 394 l 1
 930 449 l 1
 681 449 l 1
138 115 m 1
 181 60 l 1
 351 60 l 1
 513 194 l 1
 527 254 l 1
 223 254 l 1xb0
 154 199 l 1
 138 115 l 1
EndSplineSet
Validated: 1
EndChar

StartChar: ccedilla
Encoding: 231 231 167
Width: 619
VWidth: 1661
Flags: W
HStem: -249 51<193 261> 0 60<183 291 337 432> 449 59<264 513>
LayerCount: 2
Fore
SplineSet
362 -108 m 1
 346 -188 l 1
 271 -249 l 1
 181 -249 l 1
 193 -198 l 1
 261 -198 l 1
 297 -166 l 1
 304 -131 l 1
 281 -100 l 1
 213 -100 l 1
 219 -70 l 1
 291 0 l 1
 145 0 l 1
 73 90 l 1
 145 419 l 1
 253 508 l 1
 552 508 l 1
 623 419 l 1
 610 359 l 1
 550 359 l 1
 557 394 l 1
 513 449 l 1
 264 449 l 1
 198 394 l 1
 140 115 l 1
 183 60 l 1
 432 60 l 1
 498 115 l 1
 505 150 l 1
 565 150 l 1
 552 90 l 1
 444 0 l 1
 337 0 l 1
 301 -48 l 1
 314 -48 l 1
 362 -108 l 1
EndSplineSet
Validated: 1
EndChar

StartChar: eth
Encoding: 240 240 176
Width: 617
VWidth: 1661
Flags: W
HStem: 0 60<179 429> 449 59<262 434> 507 21G<492.444 538.261>
LayerCount: 2
Fore
SplineSet
774 648 m 1xa0
 656 586 l 1
 550 90 l 1
 442 0 l 1
 143 0 l 1
 73 90 l 1
 141 419 l 1
 251 508 l 1
 460 508 l 1xc0
 553 389 l 1
 588 553 l 1
 500 507 l 1
 483 552 l 1
 601 613 l 1
 623 718 l 1
 683 718 l 1
 668 648 l 1
 758 693 l 1
 774 648 l 1xa0
495 115 m 1
 538 314 l 1
 434 449 l 1
 262 449 l 1
 196 394 l 1
 136 115 l 1
 179 60 l 1
 429 60 l 1
 495 115 l 1
EndSplineSet
Validated: 1
EndChar

StartChar: divide
Encoding: 247 247 183
Width: 672
VWidth: 1661
Flags: W
HStem: 326 59<93 620>
LayerCount: 2
Fore
SplineSet
631 385 m 1
 620 326 l 1
 81 326 l 1
 93 385 l 1
 631 385 l 1
357 445 m 1
 336 472 l 1
 344 508 l 1
 375 535 l 1
 414 535 l 1
 434 508 l 1
 425 472 l 1
 395 445 l 1
 357 445 l 1
357 266 m 1
 377 239 l 1
 369 203 l 1
 339 176 l 1
 301 176 l 1
 279 203 l 1
 287 239 l 1
 319 266 l 1
 357 266 l 1
EndSplineSet
Validated: 1
EndChar

StartChar: oslash
Encoding: 248 248 184
Width: 616
VWidth: 1661
Flags: W
HStem: 0 60<183 429> 449 59<261 503>
LayerCount: 2
Fore
SplineSet
618 419 m 1
 548 90 l 1
 440 0 l 1
 141 0 l 1
 133 12 l 1
 91 -30 l 1
 53 8 l 1
 100 55 l 1
 70 90 l 1
 140 419 l 1
 249 508 l 1
 548 508 l 1
 557 500 l 1
 596 540 l 1
 635 502 l 1
 588 457 l 1
 618 419 l 1
136 115 m 1
 148 101 l 1
 503 449 l 1
 261 449 l 1
 194 394 l 1
 136 115 l 1
429 60 m 1
 495 115 l 1
 553 394 l 1
 540 410 l 1
 183 60 l 1
 429 60 l 1
EndSplineSet
Validated: 1
EndChar

StartChar: thorn
Encoding: 254 254 190
Width: 617
VWidth: 1661
Flags: W
HStem: 0 60<181 432> 449 59<264 513>
LayerCount: 2
Fore
SplineSet
621 419 m 1
 550 90 l 1
 442 0 l 1
 145 0 l 1
 121 30 l 1
 76 -179 l 1
 18 -179 l 1
 201 688 l 1
 261 688 l 1
 216 478 l 1
 253 508 l 1
 552 508 l 1
 621 419 l 1
432 60 m 1
 497 115 l 1
 555 394 l 1
 513 449 l 1
 264 449 l 1
 198 394 l 1
 140 115 l 1
 181 60 l 1
 432 60 l 1
EndSplineSet
Validated: 1
EndChar

StartChar: Lslash
Encoding: 321 321 192
Width: 563
VWidth: 1661
Flags: W
HStem: 0 60<131 478>
LayerCount: 2
Fore
SplineSet
131 60 m 1
 490 60 l 1
 478 0 l 1
 61 0 l 1
 116 272 l 1
 47 213 l 1
 65 297 l 1
 135 357 l 1
 211 718 l 1
 271 718 l 1
 208 415 l 1
 316 505 l 1
 299 422 l 1
 189 332 l 1
 131 60 l 1
EndSplineSet
Validated: 1
EndChar

StartChar: lslash
Encoding: 322 322 193
Width: 265
VWidth: 1661
Flags: W
HStem: 0 21G<60 122.22>
VStem: 47 234
LayerCount: 2
Fore
SplineSet
281 488 m 1
 262 405 l 1
 191 346 l 1
 118 0 l 1
 60 0 l 1
 118 286 l 1
 47 226 l 1
 65 309 l 1
 136 369 l 1
 209 718 l 1
 269 718 l 1
 208 429 l 1
 281 488 l 1
EndSplineSet
Validated: 1
EndChar

StartChar: OE
Encoding: 338 338 194
Width: 1005
VWidth: 1661
Flags: W
HStem: 0 60<179 513 598 920> 329 60<613 960> 658 60<307 641 726 1060>
CounterMasks: 1 e0
LayerCount: 2
Fore
SplineSet
659 603 m 1
 613 389 l 1
 972 389 l 1
 960 329 l 1
 601 329 l 1
 555 115 l 1
 598 60 l 1
 932 60 l 1
 920 0 l 1
 143 0 l 1
 73 90 l 1
 186 628 l 1
 294 718 l 1
 1071 718 l 1
 1060 658 l 1
 726 658 l 1
 659 603 l 1
179 60 m 1
 513 60 l 1
 490 90 l 1
 605 628 l 1
 641 658 l 1
 307 658 l 1
 241 603 l 1
 136 115 l 1
 179 60 l 1
EndSplineSet
Validated: 1
EndChar

StartChar: oe
Encoding: 339 339 195
Width: 1033
VWidth: 1661
Flags: W
HStem: 0 60<181 430 600 831> 224 60<591 950> 449 59<262 512 681 930>
LayerCount: 2
Fore
SplineSet
1040 419 m 1
 998 224 l 1
 580 224 l 1
 557 115 l 1
 600 60 l 1
 844 60 l 1
 831 0 l 1
 561 0 l 1
 515 60 l 1
 442 0 l 1
 143 0 l 1
 71 90 l 1
 143 419 l 1
 251 508 l 1
 550 508 l 1
 596 449 l 1
 669 508 l 1
 968 508 l 1
 1040 419 l 1
430 60 m 1
 497 115 l 1
 555 394 l 1
 512 449 l 1
 262 449 l 1
 196 394 l 1
 138 115 l 1
 181 60 l 1
 430 60 l 1
615 394 m 1
 591 284 l 1
 950 284 l 1
 973 394 l 1
 930 449 l 1
 681 449 l 1
 615 394 l 1
EndSplineSet
Validated: 1
EndChar

StartChar: florin
Encoding: 402 402 201
Width: 617
VWidth: 1661
Flags: W
HStem: 0 60<68 158> 389 60<259 352 439 532> 658 60<581 673>
LayerCount: 2
Fore
SplineSet
581 658 m 1
 505 603 l 1
 439 449 l 1
 558 449 l 1
 532 389 l 1
 412 389 l 1
 286 90 l 1
 158 0 l 1
 56 0 l 1
 68 60 l 1
 158 60 l 1
 236 115 l 1
 352 389 l 1
 233 389 l 1
 259 449 l 1
 379 449 l 1
 455 628 l 1
 581 718 l 1
 684 718 l 1
 673 658 l 1
 581 658 l 1
EndSplineSet
Validated: 1
EndChar

StartChar: circumflex
Encoding: 710 710 202
Width: 430
VWidth: 1661
Flags: W
HStem: 756 149
VStem: 55 296
LayerCount: 2
Fore
SplineSet
211 905 m 1
 249 905 l 1
 351 777 l 1
 326 756 l 1
 216 841 l 1
 71 756 l 1
 55 777 l 1
 211 905 l 1
EndSplineSet
Validated: 1
EndChar

StartChar: caron
Encoding: 711 711 203
Width: 430
VWidth: 1661
Flags: W
HStem: 756 149
VStem: 78 296
LayerCount: 2
Fore
SplineSet
219 756 m 1
 179 756 l 1
 78 884 l 1
 103 905 l 1
 213 821 l 1
 357 905 l 1
 374 884 l 1
 219 756 l 1
EndSplineSet
Validated: 1
EndChar

StartChar: breve
Encoding: 728 728 204
Width: 435
VWidth: 1661
Flags: W
HStem: 756 60<171 254>
VStem: 78 299
LayerCount: 2
Fore
SplineSet
377 890 m 1
 271 756 l 1
 128 756 l 1
 78 890 l 1
 111 905 l 1
 171 816 l 1
 254 816 l 1
 351 905 l 1
 377 890 l 1
EndSplineSet
Validated: 1
EndChar

StartChar: dotaccent
Encoding: 729 729 205
Width: 244
VWidth: 1661
Flags: W
HStem: 756 108<267 289>
VStem: 218 118
LayerCount: 2
Back
SplineSet
166 787 m 1
 128 756 l 1
 83 756 l 1
 58 787 l 1
 66 832 l 1
 105 864 l 1
 150 864 l 1
 174 832 l 1
 166 787 l 1
EndSplineSet
Fore
SplineSet
336 832 m 1
 326 787 l 1
 289 756 l 1
 244 756 l 1
 218 787 l 1
 228 832 l 1
 267 864 l 1
 312 864 l 1
 336 832 l 1
EndSplineSet
Validated: 1
EndChar

StartChar: ring
Encoding: 730 730 206
Width: 315
VWidth: 1661
Flags: W
HStem: 756 53<138 169> 884 51<153 184>
VStem: 63 194
LayerCount: 2
Fore
SplineSet
218 935 m 1
 257 882 l 1
 243 809 l 1
 179 756 l 1
 105 756 l 1
 63 809 l 1
 78 884 l 1
 143 935 l 1
 218 935 l 1
153 884 m 1
 126 861 l 1
 121 831 l 1
 138 809 l 1
 169 809 l 1
 196 831 l 1
 201 861 l 1
 184 884 l 1
 153 884 l 1
EndSplineSet
Validated: 1
EndChar

StartChar: ogonek
Encoding: 731 731 207
Width: 285
VWidth: 1661
Flags: W
HStem: -251 52<92 150>
VStem: 11 177
LayerCount: 2
Fore
SplineSet
102 -50 m 1
 115 -50 l 1
 93 15 l 1
 125 33 l 1
 188 -71 l 1
 182 -101 l 1
 113 -101 l 1
 76 -133 l 1
 68 -168 l 1
 92 -199 l 1
 161 -199 l 1
 150 -251 l 1
 60 -251 l 1
 11 -189 l 1
 28 -110 l 1
 102 -50 l 1
EndSplineSet
Validated: 1
EndChar

StartChar: tilde
Encoding: 732 732 208
Width: 400
VWidth: 1661
Flags: W
HStem: 606 120
VStem: 56 276
LayerCount: 2
Fore
SplineSet
238 671 m 1
 245 675 260 694 304 726 c 1
 332 689 l 1
 233 606 l 1
 166 651 l 2
 157 656 152 660 151 661 c 1
 148 658 102 622 85 606 c 1
 56 643 l 1
 156 726 l 1
 224 681 l 2
 232 676 237 672 238 671 c 1
EndSplineSet
Validated: 1
EndChar

StartChar: uni0E01
Encoding: 3585 3585 211
Width: 647
VWidth: 1661
Flags: W
HStem: 0 21G<85 149.323 503 567.261> 598 60<297 576>
LayerCount: 2
Fore
SplineSet
615 658 m 1
 684 568 l 1
 563 0 l 1
 503 0 l 1
 620 543 l 1
 576 598 l 1
 297 598 l 1
 261 568 l 1
 336 473 l 1
 228 384 l 1
 145 0 l 1
 85 0 l 1
 173 409 l 1
 251 473 l 1
 176 568 l 1
 286 658 l 1
 615 658 l 1
EndSplineSet
Validated: 1
EndChar

StartChar: uni0E02
Encoding: 3586 3586 212
Width: 622
VWidth: 1661
Flags: W
HStem: 0 21G<373.444 473.222> 359 51<201 244> 515 53<236 266> 598 60<272 372>
LayerCount: 2
Fore
SplineSet
620 658 m 1
 679 658 l 1
 558 90 l 1
 449 0 l 1
 389 0 l 1
 319 90 l 1
 415 543 l 1
 372 598 l 1
 272 598 l 1
 236 568 l 1
 299 568 l 1
 347 507 l 1
 329 420 l 1
 254 359 l 1
 168 359 l 1
 120 420 l 1
 151 568 l 1
 261 658 l 1
 410 658 l 1
 480 568 l 1
 384 115 l 1
 427 60 l 1
 437 60 l 1
 503 115 l 1
 620 658 l 1
289 485 m 1
 266 515 l 1
 223 515 l 1
 184 485 l 1
 176 442 l 1
 201 410 l 1
 244 410 l 1
 281 442 l 1
 289 485 l 1
EndSplineSet
Validated: 1
EndChar

StartChar: uni0E03
Encoding: 3587 3587 213
Width: 624
VWidth: 1661
Flags: W
HStem: 0 21G<376.222 476> 359 51<204 248> 515 53<239 269> 598 60<274 341 458 492>
LayerCount: 2
Fore
SplineSet
621 658 m 1
 681 658 l 1
 560 90 l 1
 452 0 l 1
 392 0 l 1
 321 90 l 1
 404 477 l 1
 495 552 l 1
 502 585 l 1
 492 598 l 1
 458 598 l 1
 387 538 l 1
 341 598 l 1
 274 598 l 1
 239 568 l 1
 302 568 l 1
 351 507 l 1
 332 420 l 1
 257 359 l 1
 171 359 l 1
 123 419 l 1
 154 568 l 1
 262 658 l 1
 367 658 l 1
 402 611 l 1
 458 658 l 1
 517 658 l 1
 563 598 l 1
 552 538 l 1
 460 463 l 1
 385 115 l 1
 429 60 l 1
 440 60 l 1
 505 115 l 1
 621 658 l 1
269 515 m 1
 226 515 l 1
 189 485 l 1
 179 442 l 1
 204 410 l 1
 248 410 l 1
 284 442 l 1
 292 485 l 1
 269 515 l 1
EndSplineSet
Validated: 1
EndChar

StartChar: uni0E04
Encoding: 3588 3588 214
Width: 664
VWidth: 1661
Flags: W
HStem: 0 21G<71 135.286 520 584.261> 239 53<367 410> 395 54<389 432> 598 60<314 593>
LayerCount: 2
Fore
SplineSet
631 658 m 1
 701 568 l 1
 580 0 l 1
 520 0 l 1
 636 543 l 1
 593 598 l 1
 314 598 l 1
 248 543 l 1
 194 297 l 1
 379 449 l 1
 465 449 l 1
 513 387 l 1
 495 301 l 1
 420 239 l 1
 334 239 l 1
 286 301 l 1
 289 314 l 1
 179 224 l 1
 131 0 l 1
 71 0 l 1
 193 568 l 1
 302 658 l 1
 631 658 l 1
455 365 m 1
 432 395 l 1
 389 395 l 1
 351 365 l 1
 342 322 l 1
 367 292 l 1
 410 292 l 1
 447 322 l 1
 455 365 l 1
EndSplineSet
Validated: 1
EndChar

StartChar: uni0E05
Encoding: 3589 3589 215
Width: 662
VWidth: 1661
Flags: W
HStem: 0 21G<71 135.215 520 584.205> 238 53<365 409> 395 52<387 430> 507 21G<416.27 456.719> 596 60<312 362 542 591>
LayerCount: 2
Fore
SplineSet
628 656 m 1
 699 566 l 1
 580 0 l 1
 520 0 l 1
 635 542 l 1
 591 596 l 1
 542 596 l 1
 432 507 l 1
 362 596 l 1
 312 596 l 1
 246 542 l 1
 193 296 l 1
 377 447 l 1
 463 447 l 1
 512 385 l 1
 493 299 l 1
 419 238 l 1
 332 238 l 1
 284 299 l 1
 286 312 l 1
 178 223 l 1
 131 0 l 1
 71 0 l 1
 191 566 l 1
 299 656 l 1
 399 656 l 1
 450 591 l 1
 530 656 l 1
 628 656 l 1
454 364 m 1
 430 395 l 1
 387 395 l 1
 349 364 l 1
 341 321 l 1
 365 291 l 1
 409 291 l 1
 445 321 l 1
 454 364 l 1
EndSplineSet
Validated: 1
EndChar

StartChar: uni0E06
Encoding: 3590 3590 216
Width: 742
VWidth: 1661
Flags: W
HStem: 0 53<274 317> 158 51<296 339> 360 52<201 244> 517 53<236 266> 600 59<271 344 463 488>
LayerCount: 2
Fore
SplineSet
738 658 m 1
 797 658 l 1
 658 0 l 1
 598 0 l 1
 414 118 l 1
 402 61 l 1
 327 0 l 1
 241 0 l 1
 193 61 l 1
 211 148 l 1
 286 209 l 1
 344 209 l 1
 400 478 l 1
 492 553 l 1
 498 586 l 1
 488 600 l 1
 463 600 l 1
 392 540 l 1
 344 600 l 1
 271 600 l 1
 236 570 l 1
 299 570 l 1
 347 508 l 1
 329 422 l 1
 254 360 l 1
 168 360 l 1
 120 422 l 1
 151 570 l 1
 259 659 l 1
 370 659 l 1
 407 613 l 1
 462 659 l 1
 513 659 l 1
 561 601 l 1
 548 540 l 1
 457 465 l 1
 400 194 l 1
 610 61 l 1
 738 658 l 1
266 517 m 1
 223 517 l 1
 186 487 l 1
 176 444 l 1
 201 412 l 1
 244 412 l 1
 281 444 l 1
 291 487 l 1
 266 517 l 1
354 83 m 1
 362 126 l 1
 339 158 l 1
 296 158 l 1
 259 126 l 1
 249 83 l 1
 274 53 l 1
 317 53 l 1
 354 83 l 1
EndSplineSet
Validated: 1
EndChar

StartChar: uni0E07
Encoding: 3591 3591 217
Width: 531
VWidth: 1661
Flags: W
HStem: 0 21G<376.409 451.295> 449 53<429 472> 606 52<450 493>
LayerCount: 2
Fore
SplineSet
527 658 m 1
 575 596 l 1
 447 0 l 1
 387 0 l 1
 154 440 l 1
 208 475 l 1
 409 100 l 1
 483 450 l 1
 482 449 l 1
 395 449 l 1
 347 510 l 1
 365 596 l 1
 440 658 l 1
 527 658 l 1
472 502 m 1
 508 532 l 1
 518 575 l 1
 493 606 l 1
 450 606 l 1
 414 575 l 1
 404 532 l 1
 429 502 l 1
 472 502 l 1
EndSplineSet
Validated: 1
EndChar

StartChar: uni0E08
Encoding: 3592 3592 218
Width: 646
VWidth: 1661
Flags: W
HStem: 0 21G<502 565.296> 239 53<349 392> 397 52<370 414> 508 21G<161 225.571> 598 60<296 575>
LayerCount: 2
Fore
SplineSet
613 658 m 1
 683 568 l 1
 561 0 l 1
 502 0 l 1
 550 224 l 1
 480 314 l 1
 477 301 l 1
 402 239 l 1
 316 239 l 1
 267 301 l 1
 286 387 l 1
 360 449 l 1
 447 449 l 1
 565 297 l 1
 618 543 l 1
 575 598 l 1
 296 598 l 1
 229 543 l 1
 221 508 l 1
 161 508 l 1
 174 568 l 1
 284 658 l 1
 613 658 l 1
429 322 m 1
 437 365 l 1
 414 397 l 1
 370 397 l 1
 334 365 l 1
 326 322 l 1
 349 292 l 1
 392 292 l 1
 429 322 l 1
EndSplineSet
Validated: 1
EndChar

StartChar: uni0E09
Encoding: 3593 3593 219
Width: 712
VWidth: 1661
Flags: W
HStem: 0 51<538 581> 239 52<231 274> 395 54<253 296> 508 21G<163 227.571> 598 60<297 576>
LayerCount: 2
Fore
SplineSet
636 209 m 1
 684 148 l 1
 666 61 l 1
 591 0 l 1
 505 0 l 1
 457 61 l 1
 467 103 l 1
 294 0 l 1
 234 0 l 1
 286 241 l 1
 284 239 l 1
 198 239 l 1
 150 301 l 1
 168 387 l 1
 243 449 l 1
 329 449 l 1
 377 387 l 1
 307 63 l 1
 548 208 l 1
 620 543 l 1
 576 598 l 1
 297 598 l 1
 231 543 l 1
 223 508 l 1
 163 508 l 1
 176 568 l 1
 286 658 l 1
 615 658 l 1
 684 568 l 1
 608 209 l 1
 636 209 l 1
274 291 m 1
 312 322 l 1
 321 365 l 1
 296 395 l 1
 253 395 l 1
 216 365 l 1
 208 322 l 1
 231 291 l 1
 274 291 l 1
620 83 m 1
 630 126 l 1
 603 156 l 1
 560 156 l 1
 525 126 l 1
 515 83 l 1
 538 51 l 1
 581 51 l 1
 620 83 l 1
EndSplineSet
Validated: 1
EndChar

StartChar: uni0E0A
Encoding: 3594 3594 220
Width: 624
VWidth: 1661
Flags: W
HStem: 0 21G<373.864 474> 357 53<201 244> 515 51<236 267> 596 60<272 374>
LayerCount: 2
Fore
SplineSet
625 566 m 1
 653 530 l 1
 558 90 l 1
 450 0 l 1
 390 0 l 1
 319 88 l 1
 415 543 l 1
 374 596 l 1
 272 596 l 1
 236 566 l 1
 301 566 l 1
 347 505 l 1
 329 419 l 1
 256 357 l 1
 168 357 l 1
 120 419 l 1
 151 566 l 1
 261 656 l 1
 410 656 l 1
 480 566 l 1
 384 113 l 1
 427 60 l 1
 437 60 l 1
 503 115 l 1
 590 507 l 1
 540 566 l 1
 759 746 l 1
 792 704 l 1
 625 566 l 1
292 483 m 1
 267 515 l 1
 224 515 l 1
 188 483 l 1
 178 440 l 1
 201 410 l 1
 244 410 l 1
 282 440 l 1
 292 483 l 1
EndSplineSet
Validated: 1
EndChar

StartChar: uni0E0B
Encoding: 3595 3595 221
Width: 622
VWidth: 1661
Flags: W
HStem: 0 21G<371.444 471.444> 359 53<199 243> 517 51<234 264> 598 60<271 344 462 487>
LayerCount: 2
Fore
SplineSet
789 706 m 1
 621 568 l 1
 650 532 l 1
 557 90 l 1
 447 0 l 1
 387 0 l 1
 317 90 l 1
 399 478 l 1
 490 553 l 1
 497 585 l 1
 487 598 l 1
 462 598 l 1
 390 538 l 1
 344 598 l 1
 271 598 l 1
 234 568 l 1
 297 568 l 1
 346 507 l 1
 327 420 l 1
 253 359 l 1
 166 359 l 1
 118 420 l 1
 150 568 l 1
 257 658 l 1
 370 658 l 1
 405 613 l 1
 462 658 l 1
 512 658 l 1
 560 600 l 1
 557 583 l 1
 756 748 l 1
 789 706 l 1
264 517 m 1
 221 517 l 1
 184 485 l 1
 174 442 l 1
 199 412 l 1
 243 412 l 1
 279 442 l 1
 289 485 l 1
 264 517 l 1
502 115 m 1
 585 507 l 1
 550 553 l 1
 547 538 l 1
 455 463 l 1
 382 115 l 1
 425 60 l 1
 435 60 l 1
 502 115 l 1
EndSplineSet
Validated: 1
EndChar

StartChar: uni0E0C
Encoding: 3596 3596 222
Width: 943
VWidth: 1661
Flags: W
HStem: 0 51<176 219 473 517> 156 52<199 243 497 540> 596 60<294 573>
LayerCount: 2
Fore
SplineSet
937 656 m 1
 997 656 l 1
 859 0 l 1
 799 0 l 1
 613 115 l 1
 601 60 l 1
 530 0 l 1
 442 0 l 1
 392 60 l 1
 410 148 l 1
 485 208 l 1
 543 208 l 1
 615 543 l 1
 573 596 l 1
 294 596 l 1
 256 566 l 1
 332 472 l 1
 223 382 l 1
 186 208 l 1
 274 208 l 1
 322 148 l 1
 304 60 l 1
 231 0 l 1
 143 0 l 1
 95 60 l 1
 169 407 l 1
 248 472 l 1
 173 566 l 1
 281 656 l 1
 610 656 l 1
 679 566 l 1
 600 191 l 1
 811 60 l 1
 937 656 l 1
199 156 m 1
 161 126 l 1
 151 81 l 1
 176 51 l 1
 219 51 l 1
 256 81 l 1
 266 126 l 1
 243 156 l 1
 199 156 l 1
555 81 m 1
 565 126 l 1
 540 156 l 1
 497 156 l 1
 460 126 l 1
 450 81 l 1
 473 51 l 1
 517 51 l 1
 555 81 l 1
EndSplineSet
Validated: 1
EndChar

StartChar: uni0E0D
Encoding: 3597 3597 223
Width: 945
VWidth: 1661
Flags: W
HStem: -267 59<636 683> -267 51<530 560> -141 53<543 575> 0 60<573 758> 0 51<176 219> 156 53<199 243> 598 60<294 573>
LayerCount: 2
Fore
SplineSet
683 -208 m 1xa6
 791 -118 l 1
 826 -161 l 1
 694 -267 l 1
 495 -267 l 1x66
 455 -214 l 1
 470 -141 l 1
 535 -88 l 1
 608 -88 l 1
 650 -141 l 1
 636 -208 l 1
 683 -208 l 1xa6
560 -216 m 1
 586 -194 l 1
 593 -163 l 1
 575 -141 l 1
 543 -141 l 1
 518 -163 l 1
 512 -193 l 1
 530 -216 l 1
 560 -216 l 1
940 658 m 1
 1000 658 l 1
 879 90 l 1
 771 0 l 1
 502 0 l 1
 616 543 l 1
 573 598 l 1
 294 598 l 1
 257 568 l 1
 332 472 l 1
 223 382 l 1
 186 208 l 1
 188 209 l 1
 274 209 l 1
 322 148 l 1
 304 61 l 1
 231 0 l 1
 145 0 l 1x2e
 95 61 l 1
 169 407 l 1
 248 472 l 1
 173 566 l 1
 173 568 l 1
 282 658 l 1
 611 658 l 1
 681 568 l 1
 573 60 l 1
 758 60 l 1x36
 824 115 l 1
 940 658 l 1
199 156 m 1
 163 126 l 1
 153 83 l 1
 176 51 l 1
 219 51 l 1
 257 83 l 1
 267 126 l 1
 243 156 l 1
 199 156 l 1
EndSplineSet
Validated: 1
Substitution2: "Single Substitution lookup 22 subtable" uni0E0D.alt1
Substitution2: "Single Substitution lookup 22 subtable" uni0E0D.alt1
EndChar

StartChar: uni0E0E
Encoding: 3598 3598 224
Width: 742
VWidth: 1661
Flags: W
HStem: -299 60<214 399> -150 60<233 417> 0 51<125 168> 156 53<148 191> 598 60<392 671>
LayerCount: 2
Fore
SplineSet
709 658 m 1
 779 568 l 1
 595 -299 l 1
 535 -299 l 1
 487 -236 l 1
 410 -299 l 1
 176 -299 l 1
 130 -239 l 1
 148 -150 l 1
 221 -90 l 1
 455 -90 l 1
 553 -214 l 1
 714 543 l 1
 671 598 l 1
 392 598 l 1
 355 568 l 1
 430 473 l 1
 322 384 l 1
 253 61 l 1
 179 0 l 1
 93 0 l 1
 43 61 l 1
 61 148 l 1
 136 209 l 1
 223 209 l 1
 224 208 l 1
 267 407 l 1
 346 473 l 1
 271 568 l 1
 380 658 l 1
 709 658 l 1
206 83 m 1
 216 126 l 1
 191 156 l 1
 148 156 l 1
 111 126 l 1
 101 83 l 1
 125 51 l 1
 168 51 l 1
 206 83 l 1
399 -239 m 1
 454 -194 l 1
 417 -150 l 1
 233 -150 l 1
 203 -174 l 1
 194 -214 l 1
 214 -239 l 1
 399 -239 l 1
EndSplineSet
Validated: 1
Substitution2: "Single Substitution lookup 22 subtable" uni0E0E.alt1
Substitution2: "Single Substitution lookup 22 subtable" uni0E0E.alt1
EndChar

StartChar: uni0E0F
Encoding: 3599 3599 225
Width: 744
VWidth: 1661
Flags: W
HStem: -297 59<214 272> -148 58<234 292> 0 53<125 168> 158 51<148 191> 598 60<392 671>
LayerCount: 2
Fore
SplineSet
709 658 m 1
 779 568 l 1
 595 -297 l 1
 533 -297 l 1
 485 -236 l 1
 409 -299 l 1
 360 -236 l 1
 284 -297 l 1
 176 -297 l 1
 130 -238 l 1
 150 -148 l 1
 221 -90 l 1
 329 -90 l 1
 427 -214 l 1
 503 -151 l 1
 553 -214 l 1
 714 543 l 1
 671 598 l 1
 392 598 l 1
 355 568 l 1
 430 473 l 1
 322 384 l 1
 253 61 l 1
 179 0 l 1
 93 0 l 1
 43 61 l 1
 61 148 l 1
 136 209 l 1
 223 209 l 1
 224 208 l 1
 267 409 l 1
 346 473 l 1
 271 568 l 1
 380 658 l 1
 709 658 l 1
204 83 m 1
 214 126 l 1
 191 158 l 1
 148 158 l 1
 110 126 l 1
 100 83 l 1
 125 53 l 1
 168 53 l 1
 204 83 l 1
272 -238 m 1
 327 -193 l 1
 292 -148 l 1
 234 -148 l 1
 203 -173 l 1
 194 -213 l 1
 214 -238 l 1
 272 -238 l 1
EndSplineSet
Validated: 1
Substitution2: "Single Substitution lookup 22 subtable" uni0E0F.alt1
Substitution2: "Single Substitution lookup 22 subtable" uni0E0F.alt1
EndChar

StartChar: uni0E10
Encoding: 3600 3600 226
Width: 616
VWidth: 1661
Flags: W
HStem: -267 51<380 412> -141 53<397 427> 0 21G<470 534.276> 179 54<304 347> 337 52<327 369> 598 60<294 658>
LayerCount: 2
Fore
SplineSet
658 598 m 1
 294 598 l 1
 233 547 l 1
 626 449 l 1
 530 0 l 1
 470 0 l 1
 505 164 l 1
 435 254 l 1
 432 241 l 1
 359 179 l 1
 271 179 l 1
 223 241 l 1
 241 327 l 1
 316 389 l 1
 402 389 l 1
 522 238 l 1
 558 410 l 1
 161 508 l 1
 173 568 l 1
 282 658 l 1
 671 658 l 1
 658 598 l 1
385 262 m 1
 394 306 l 1
 369 337 l 1
 327 337 l 1
 289 306 l 1
 281 262 l 1
 304 233 l 1
 347 233 l 1
 385 262 l 1
460 -88 m 1
 500 -141 l 1
 485 -216 l 1
 422 -267 l 1
 349 -267 l 1
 267 -166 l 1
 146 -267 l 1
 37 -130 l 1
 81 -91 l 1
 161 -193 l 1
 284 -91 l 1
 322 -141 l 1
 385 -88 l 1
 460 -88 l 1
439 -193 m 1
 444 -163 l 1
 427 -141 l 1
 397 -141 l 1
 370 -163 l 1
 364 -193 l 1
 380 -216 l 1
 412 -216 l 1
 439 -193 l 1
EndSplineSet
Validated: 1
Substitution2: "Single Substitution lookup 22 subtable" uni0E10.alt1
Substitution2: "Single Substitution lookup 22 subtable" uni0E10.alt1
EndChar

StartChar: uni0E11
Encoding: 3601 3601 227
Width: 802
VWidth: 1661
Flags: W
HStem: 0 21G<301 371.443 658 722.276> 357 53<201 244> 515 51<236 267> 596 60<272 346 465 488 701 731>
LayerCount: 2
Fore
SplineSet
769 656 m 1
 839 566 l 1
 718 0 l 1
 658 0 l 1
 774 543 l 1
 731 596 l 1
 701 596 l 1
 360 0 l 1
 301 0 l 1
 402 477 l 1
 492 552 l 1
 498 585 l 1
 488 596 l 1
 465 596 l 1
 392 537 l 1
 346 596 l 1
 272 596 l 1
 236 566 l 1
 299 566 l 1
 347 505 l 1
 329 419 l 1
 256 357 l 1
 168 357 l 1
 120 419 l 1
 151 566 l 1
 261 656 l 1
 372 656 l 1
 409 611 l 1
 463 656 l 1
 515 656 l 1
 561 598 l 1
 548 538 l 1
 458 463 l 1
 392 154 l 1
 678 656 l 1
 769 656 l 1
267 515 m 1
 224 515 l 1
 186 483 l 1
 178 440 l 1
 201 410 l 1
 244 410 l 1
 282 440 l 1
 291 483 l 1
 267 515 l 1
EndSplineSet
Validated: 1
EndChar

StartChar: uni0E12
Encoding: 3602 3602 228
Width: 961
VWidth: 1661
Flags: W
HStem: 0 51<492 535> 156 53<515 558> 395 54<385 429> 507 21G<414.27 454.719> 596 60<311 360 540 590>
LayerCount: 2
Fore
SplineSet
955 656 m 1
 1015 656 l 1
 877 0 l 1
 817 0 l 1
 631 116 l 1
 620 61 l 1
 547 0 l 1
 460 0 l 1
 410 61 l 1
 429 148 l 1
 503 209 l 1
 561 209 l 1
 633 543 l 1
 590 596 l 1
 540 596 l 1
 430 507 l 1
 360 596 l 1
 311 596 l 1
 244 543 l 1
 145 75 l 1
 344 239 l 1
 331 239 l 1
 282 301 l 1
 301 387 l 1
 375 449 l 1
 462 449 l 1
 510 387 l 1
 492 301 l 1
 130 0 l 1
 70 0 l 1
 189 566 l 1
 297 656 l 1
 397 656 l 1
 449 591 l 1
 527 656 l 1
 626 656 l 1
 698 568 l 1
 618 193 l 1
 829 60 l 1
 955 656 l 1
341 322 m 1
 364 291 l 1
 407 291 l 1
 444 322 l 1
 452 365 l 1
 429 395 l 1
 385 395 l 1
 349 365 l 1
 341 322 l 1
571 83 m 1
 581 126 l 1
 558 156 l 1
 515 156 l 1
 477 126 l 1
 467 83 l 1
 492 51 l 1
 535 51 l 1
 571 83 l 1
EndSplineSet
Validated: 1
EndChar

StartChar: uni0E13
Encoding: 3603 3603 229
Width: 1010
VWidth: 1661
Flags: W
HStem: 0 51<178 221 836 879> 156 52<201 244> 596 60<296 575>
LayerCount: 2
Fore
SplineSet
934 208 m 1
 982 148 l 1
 963 60 l 1
 890 0 l 1
 804 0 l 1
 754 60 l 1
 766 110 l 1
 561 0 l 1
 503 0 l 1
 618 543 l 1
 575 596 l 1
 296 596 l 1
 259 566 l 1
 334 472 l 1
 224 382 l 1
 188 208 l 1
 276 208 l 1
 324 148 l 1
 306 60 l 1
 233 0 l 1
 146 0 l 1
 96 60 l 1
 171 407 l 1
 249 472 l 1
 174 566 l 1
 282 656 l 1
 611 656 l 1
 683 566 l 1
 575 61 l 1
 844 206 l 1
 846 208 l 1
 940 656 l 1
 1000 656 l 1
 905 208 l 1
 934 208 l 1
201 156 m 1
 163 126 l 1
 153 81 l 1
 178 51 l 1
 221 51 l 1
 257 81 l 1
 267 126 l 1
 244 156 l 1
 201 156 l 1
915 81 m 1
 925 126 l 1
 902 156 l 1
 861 156 l 1
 821 126 l 1
 811 81 l 1
 836 51 l 1
 879 51 l 1
 915 81 l 1
EndSplineSet
Validated: 1
EndChar

StartChar: uni0E14
Encoding: 3604 3604 230
Width: 666
VWidth: 1661
Flags: W
HStem: 0 21G<73 157.214 522 585.24> 395 52<389 432> 596 60<314 593>
LayerCount: 2
Fore
SplineSet
630 656 m 1
 701 566 l 1
 581 0 l 1
 522 0 l 1
 636 543 l 1
 593 596 l 1
 314 596 l 1
 248 542 l 1
 148 73 l 1
 346 239 l 1
 334 239 l 1
 286 299 l 1
 304 387 l 1
 379 447 l 1
 465 447 l 1
 513 387 l 1
 495 299 l 1
 133 0 l 1
 73 0 l 1
 193 566 l 1
 301 656 l 1
 630 656 l 1
342 321 m 1
 367 291 l 1
 410 291 l 1
 447 321 l 1
 455 365 l 1
 432 395 l 1
 389 395 l 1
 351 365 l 1
 342 321 l 1
EndSplineSet
Validated: 1
EndChar

StartChar: uni0E15
Encoding: 3605 3605 231
Width: 664
VWidth: 1661
Flags: W
HStem: 0 21G<71 155.147 518 582.24> 395 52<385 430> 507 21G<415.82 456.719> 596 60<312 360 542 591>
LayerCount: 2
Fore
SplineSet
628 656 m 1
 698 566 l 1
 578 0 l 1
 518 0 l 1
 633 543 l 1
 591 596 l 1
 542 596 l 1
 432 507 l 1
 360 596 l 1
 312 596 l 1
 246 542 l 1
 146 73 l 1
 344 239 l 1
 331 239 l 1
 284 299 l 1
 302 387 l 1
 375 447 l 1
 463 447 l 1
 510 387 l 1
 492 299 l 1
 131 0 l 1
 71 0 l 1
 191 566 l 1
 299 656 l 1
 397 656 l 1
 450 591 l 1
 528 656 l 1
 628 656 l 1
341 321 m 1
 364 291 l 1
 409 291 l 1
 445 321 l 1
 454 365 l 1
 430 395 l 1
 385 395 l 1
 349 365 l 1
 341 321 l 1
EndSplineSet
Validated: 1
EndChar

StartChar: uni0E16
Encoding: 3606 3606 232
Width: 642
VWidth: 1661
Flags: W
HStem: 0 53<178 221> 158 51<201 244> 598 60<296 575>
LayerCount: 2
Fore
SplineSet
613 658 m 1
 681 568 l 1
 560 0 l 1
 502 0 l 1
 618 543 l 1
 575 598 l 1
 296 598 l 1
 259 568 l 1
 334 473 l 1
 226 384 l 1
 188 209 l 1
 276 209 l 1
 324 148 l 1
 306 61 l 1
 231 0 l 1
 145 0 l 1
 96 61 l 1
 171 409 l 1
 249 473 l 1
 174 568 l 1
 284 658 l 1
 613 658 l 1
201 158 m 1
 163 126 l 1
 153 83 l 1
 178 53 l 1
 221 53 l 1
 257 83 l 1
 267 126 l 1
 244 158 l 1
 201 158 l 1
EndSplineSet
Validated: 1
EndChar

StartChar: uni0E17
Encoding: 3607 3607 233
Width: 740
VWidth: 1661
Flags: W
HStem: 0 21G<179 254.211 598 662.261> 449 53<221 264> 598 60<636 671> 605 53<243 286>
LayerCount: 2
Fore
SplineSet
709 658 m 1xd0
 779 568 l 1
 658 0 l 1
 598 0 l 1
 714 543 l 1
 671 598 l 1
 636 598 l 1xe0
 241 0 l 1
 179 0 l 1
 276 450 l 1
 274 449 l 1
 188 449 l 1
 140 510 l 1
 158 596 l 1
 233 658 l 1
 319 658 l 1
 367 596 l 1
 267 126 l 1
 620 658 l 1
 709 658 l 1xd0
264 502 m 1
 301 532 l 1
 311 575 l 1
 286 605 l 1
 243 605 l 1xd0
 206 575 l 1
 196 532 l 1
 221 502 l 1
 264 502 l 1
EndSplineSet
Validated: 1
EndChar

StartChar: uni0E18
Encoding: 3608 3608 234
Width: 616
VWidth: 1661
Flags: W
HStem: 0 60<211 430> 598 60<296 659>
LayerCount: 2
Fore
SplineSet
659 598 m 1
 296 598 l 1
 233 547 l 1
 628 449 l 1
 552 90 l 1
 442 0 l 1
 173 0 l 1
 103 90 l 1
 173 419 l 1
 233 419 l 1
 168 115 l 1
 211 60 l 1
 430 60 l 1
 497 115 l 1
 560 410 l 1
 161 508 l 1
 174 568 l 1
 284 658 l 1
 673 658 l 1
 659 598 l 1
EndSplineSet
Validated: 1
EndChar

StartChar: uni0E19
Encoding: 3609 3609 235
Width: 747
VWidth: 1661
Flags: W
HStem: 0 53<571 615> 449 51<218 261> 605 53<241 284>
LayerCount: 2
Fore
SplineSet
669 209 m 1
 718 148 l 1
 699 61 l 1
 625 0 l 1
 538 0 l 1
 490 61 l 1
 503 120 l 1
 238 0 l 1
 178 0 l 1
 274 450 l 1
 272 449 l 1
 186 449 l 1
 138 510 l 1
 156 596 l 1
 231 658 l 1
 317 658 l 1
 365 596 l 1
 251 58 l 1
 581 208 l 1
 678 658 l 1
 738 658 l 1
 641 209 l 1
 669 209 l 1
261 500 m 1
 299 532 l 1
 309 575 l 1
 284 605 l 1
 241 605 l 1
 204 575 l 1
 194 532 l 1
 218 500 l 1
 261 500 l 1
653 83 m 1
 663 126 l 1
 638 158 l 1
 595 158 l 1
 558 126 l 1
 548 83 l 1
 571 53 l 1
 615 53 l 1
 653 83 l 1
EndSplineSet
Validated: 1
EndChar

StartChar: uni0E1A
Encoding: 3610 3610 236
Width: 712
VWidth: 1661
Flags: W
HStem: 0 60<307 527> 449 51<219 262> 605 53<243 286>
LayerCount: 2
Fore
SplineSet
709 658 m 1
 769 658 l 1
 648 90 l 1
 538 0 l 1
 269 0 l 1
 199 90 l 1
 276 450 l 1
 274 449 l 1
 188 449 l 1
 140 510 l 1
 158 596 l 1
 233 658 l 1
 319 658 l 1
 367 596 l 1
 264 115 l 1
 307 60 l 1
 527 60 l 1
 593 115 l 1
 709 658 l 1
262 500 m 1
 299 532 l 1
 309 575 l 1
 286 605 l 1
 243 605 l 1
 206 575 l 1
 196 532 l 1
 219 500 l 1
 262 500 l 1
EndSplineSet
Validated: 1
EndChar

StartChar: uni0E1B
Encoding: 3611 3611 237
Width: 712
VWidth: 1661
Flags: W
HStem: 0 60<309 528> 447 53<221 264> 605 51<244 287>
LayerCount: 2
Fore
SplineSet
774 955 m 1
 834 955 l 1
 650 90 l 1
 540 0 l 1
 271 0 l 1
 201 88 l 1
 277 449 l 1
 276 447 l 1
 189 447 l 1
 140 508 l 1
 158 595 l 1
 233 656 l 1
 319 656 l 1
 367 595 l 1
 266 113 l 1
 309 60 l 1
 528 60 l 1
 595 113 l 1
 774 955 l 1
264 500 m 1
 301 530 l 1
 311 573 l 1
 287 605 l 1
 244 605 l 1
 206 573 l 1
 196 530 l 1
 221 500 l 1
 264 500 l 1
EndSplineSet
Validated: 1
EndChar

StartChar: uni0E1C
Encoding: 3612 3612 238
Width: 662
VWidth: 1661
Flags: W
HStem: 0 21G<71 151.9 504.787 582.286> 449 51<259 302> 605 53<282 326>
LayerCount: 2
Fore
SplineSet
719 658 m 1
 578 0 l 1
 518 0 l 1
 372 221 l 1
 130 0 l 1
 71 0 l 1
 198 596 l 1
 272 658 l 1
 359 658 l 1
 407 596 l 1
 389 510 l 1
 314 449 l 1
 228 449 l 1
 226 450 l 1
 148 80 l 1
 389 299 l 1
 537 80 l 1
 659 658 l 1
 719 658 l 1
246 575 m 1
 236 532 l 1
 259 500 l 1
 302 500 l 1
 341 532 l 1
 351 575 l 1
 326 605 l 1
 282 605 l 1
 246 575 l 1
EndSplineSet
Validated: 1
EndChar

StartChar: uni0E1D
Encoding: 3613 3613 239
Width: 661
VWidth: 1661
Flags: W
HStem: 0 21G<71 151.918 503.575 580.293> 447 53<259 302> 605 51<282 326>
LayerCount: 2
Fore
SplineSet
781 955 m 1
 576 0 l 1
 517 0 l 1
 370 219 l 1
 130 0 l 1
 71 0 l 1
 196 595 l 1
 271 656 l 1
 357 656 l 1
 405 595 l 1
 387 508 l 1
 314 447 l 1
 228 447 l 1
 226 449 l 1
 146 78 l 1
 389 299 l 1
 533 78 l 1
 721 955 l 1
 781 955 l 1
244 573 m 1
 234 530 l 1
 259 500 l 1
 302 500 l 1
 339 530 l 1
 349 573 l 1
 326 605 l 1
 282 605 l 1
 244 573 l 1
EndSplineSet
Validated: 1
EndChar

StartChar: uni0E1E
Encoding: 3614 3614 240
Width: 772
VWidth: 1661
Flags: W
HStem: 0 21G<181 252.843 626.588 693.207> 447 53<219 262> 605 51<243 286>
LayerCount: 2
Fore
SplineSet
767 656 m 1
 827 656 l 1
 689 0 l 1
 630 0 l 1
 543 510 l 1
 241 0 l 1
 181 0 l 1
 276 449 l 1
 274 447 l 1
 188 447 l 1
 140 508 l 1
 158 595 l 1
 231 656 l 1
 317 656 l 1
 367 595 l 1
 271 146 l 1
 573 656 l 1
 659 145 l 1
 767 656 l 1
262 500 m 1
 299 530 l 1
 309 573 l 1
 286 605 l 1
 243 605 l 1
 204 573 l 1
 194 530 l 1
 219 500 l 1
 262 500 l 1
EndSplineSet
Validated: 1
EndChar

StartChar: uni0E1F
Encoding: 3615 3615 241
Width: 772
VWidth: 1661
Flags: W
HStem: 0 21G<181 252.843 624.667 692.272> 447 53<221 264> 605 51<244 287>
LayerCount: 2
Fore
SplineSet
832 955 m 1
 892 955 l 1
 688 0 l 1
 628 0 l 1
 543 510 l 1
 241 0 l 1
 181 0 l 1
 277 449 l 1
 276 447 l 1
 189 447 l 1
 140 508 l 1
 158 595 l 1
 233 656 l 1
 319 656 l 1
 367 595 l 1
 272 146 l 1
 573 656 l 1
 659 146 l 1
 832 955 l 1
264 500 m 1
 301 530 l 1
 311 573 l 1
 287 605 l 1
 244 605 l 1
 206 573 l 1
 196 530 l 1
 221 500 l 1
 264 500 l 1
EndSplineSet
Validated: 1
EndChar

StartChar: uni0E20
Encoding: 3616 3616 242
Width: 740
VWidth: 1661
Flags: W
HStem: 0 51<125 168> 156 53<146 189> 598 60<392 671>
LayerCount: 2
Fore
SplineSet
709 658 m 1
 779 568 l 1
 658 0 l 1
 598 0 l 1
 714 543 l 1
 671 598 l 1
 392 598 l 1
 355 568 l 1
 430 472 l 1
 321 382 l 1
 253 61 l 1
 178 0 l 1
 91 0 l 1
 45 61 l 1
 63 148 l 1
 136 209 l 1
 223 209 l 1
 224 208 l 1
 266 407 l 1
 346 472 l 1
 271 568 l 1
 380 658 l 1
 709 658 l 1
206 83 m 1
 216 126 l 1
 189 156 l 1
 146 156 l 1
 111 126 l 1
 101 83 l 1
 125 51 l 1
 168 51 l 1
 206 83 l 1
EndSplineSet
Validated: 1
EndChar

StartChar: uni0E21
Encoding: 3617 3617 243
Width: 682
VWidth: 1661
Flags: W
HStem: 0 53<154 198> 158 51<178 221> 449 51<219 262> 605 53<243 286>
LayerCount: 2
Fore
SplineSet
679 658 m 1
 739 658 l 1
 598 0 l 1
 538 0 l 1
 296 125 l 1
 282 61 l 1
 208 0 l 1
 121 0 l 1
 73 61 l 1
 91 148 l 1
 166 209 l 1
 224 209 l 1
 276 450 l 1
 274 449 l 1
 188 449 l 1
 140 510 l 1
 158 596 l 1
 233 658 l 1
 319 658 l 1
 367 596 l 1
 281 196 l 1
 552 58 l 1
 679 658 l 1
262 500 m 1
 301 532 l 1
 311 575 l 1
 286 605 l 1
 243 605 l 1
 206 575 l 1
 196 532 l 1
 219 500 l 1
 262 500 l 1
236 83 m 1
 246 126 l 1
 221 158 l 1
 178 158 l 1
 141 126 l 1
 131 83 l 1
 154 53 l 1
 198 53 l 1
 236 83 l 1
EndSplineSet
Validated: 1
EndChar

StartChar: uni0E22
Encoding: 3618 3618 244
Width: 647
VWidth: 1661
Flags: W
HStem: 0 60<214 463> 449 53<248 291> 606 52<269 312>
LayerCount: 2
Fore
SplineSet
646 658 m 1
 706 658 l 1
 585 90 l 1
 475 0 l 1
 176 0 l 1
 106 90 l 1
 136 234 l 1
 216 299 l 1
 141 394 l 1
 184 596 l 1
 259 658 l 1
 346 658 l 1
 394 596 l 1
 375 510 l 1
 301 449 l 1
 214 449 l 1
 213 450 l 1
 206 419 l 1
 301 299 l 1
 191 209 l 1
 171 115 l 1
 214 60 l 1
 463 60 l 1
 530 115 l 1
 646 658 l 1
231 575 m 1
 221 532 l 1
 248 502 l 1
 291 502 l 1
 326 532 l 1
 336 575 l 1
 312 606 l 1
 269 606 l 1
 231 575 l 1
EndSplineSet
Validated: 1
EndChar

StartChar: uni0E23
Encoding: 3619 3619 245
Width: 528
VWidth: 1661
Flags: W
HStem: 0 51<326 369> 156 52<349 392> 596 60<294 598>
LayerCount: 2
Fore
SplineSet
294 596 m 1
 228 542 l 1
 223 518 l 1
 537 447 l 1
 454 60 l 1
 380 0 l 1
 294 0 l 1
 244 60 l 1
 262 148 l 1
 337 208 l 1
 425 208 l 1
 468 407 l 1
 154 477 l 1
 173 566 l 1
 281 656 l 1
 610 656 l 1
 598 596 l 1
 294 596 l 1
407 81 m 1
 417 126 l 1
 392 156 l 1
 349 156 l 1
 312 126 l 1
 302 81 l 1
 326 51 l 1
 369 51 l 1
 407 81 l 1
EndSplineSet
Validated: 1
EndChar

StartChar: uni0E24
Encoding: 3620 3620 246
Width: 646
VWidth: 1661
Flags: W
HStem: 0 51<176 219> 156 53<199 243> 598 60<294 573>
LayerCount: 2
Fore
SplineSet
611 658 m 1
 681 568 l 1
 497 -299 l 1
 437 -299 l 1
 616 543 l 1
 573 598 l 1
 294 598 l 1
 257 568 l 1
 332 472 l 1
 223 382 l 1
 186 208 l 1
 188 209 l 1
 274 209 l 1
 322 148 l 1
 304 61 l 1
 231 0 l 1
 145 0 l 1
 95 61 l 1
 169 407 l 1
 248 472 l 1
 173 568 l 1
 282 658 l 1
 611 658 l 1
199 156 m 1
 163 126 l 1
 153 83 l 1
 176 51 l 1
 219 51 l 1
 256 83 l 1
 266 126 l 1
 243 156 l 1
 199 156 l 1
EndSplineSet
Validated: 1
EndChar

StartChar: uni0E25
Encoding: 3621 3621 247
Width: 646
VWidth: 1661
Flags: W
HStem: 0 53<179 223> 158 51<203 246> 389 60<282 442> 508 21G<163 227.571> 598 60<297 576>
LayerCount: 2
Fore
SplineSet
615 658 m 1
 684 568 l 1
 563 0 l 1
 503 0 l 1
 557 244 l 1
 442 389 l 1
 282 389 l 1
 216 334 l 1
 189 208 l 1
 191 209 l 1
 277 209 l 1
 326 148 l 1
 307 61 l 1
 233 0 l 1
 146 0 l 1
 98 61 l 1
 161 359 l 1
 271 449 l 1
 480 449 l 1
 575 329 l 1
 620 543 l 1
 576 598 l 1
 297 598 l 1
 231 543 l 1
 223 508 l 1
 163 508 l 1
 176 568 l 1
 286 658 l 1
 615 658 l 1
203 158 m 1
 166 126 l 1
 156 83 l 1
 179 53 l 1
 223 53 l 1
 259 83 l 1
 269 126 l 1
 246 158 l 1
 203 158 l 1
EndSplineSet
Validated: 1
EndChar

StartChar: uni0E26
Encoding: 3622 3622 248
Width: 742
VWidth: 1661
Flags: W
HStem: 0 51<125 168> 156 52<148 191> 596 60<392 671>
LayerCount: 2
Fore
SplineSet
709 656 m 1
 779 566 l 1
 595 -299 l 1
 535 -299 l 1
 714 543 l 1
 671 596 l 1
 392 596 l 1
 355 566 l 1
 430 472 l 1
 322 382 l 1
 253 60 l 1
 179 0 l 1
 93 0 l 1
 43 60 l 1
 63 148 l 1
 136 208 l 1
 224 208 l 1
 267 407 l 1
 346 472 l 1
 271 566 l 1
 380 656 l 1
 709 656 l 1
206 81 m 1
 216 126 l 1
 191 156 l 1
 148 156 l 1
 111 126 l 1
 101 83 l 1
 125 51 l 1
 168 51 l 1
 206 81 l 1
EndSplineSet
Validated: 1
EndChar

StartChar: uni0E27
Encoding: 3623 3623 249
Width: 586
VWidth: 1661
Flags: W
HStem: 0 53<387 430> 158 51<410 454> 508 21G<161 225.571> 598 60<296 515>
LayerCount: 2
Fore
SplineSet
553 658 m 1
 623 568 l 1
 515 61 l 1
 440 0 l 1
 354 0 l 1
 306 61 l 1
 324 148 l 1
 399 209 l 1
 485 209 l 1
 487 208 l 1
 558 543 l 1
 515 598 l 1
 296 598 l 1
 229 543 l 1
 221 508 l 1
 161 508 l 1
 174 568 l 1
 284 658 l 1
 553 658 l 1
468 83 m 1
 478 126 l 1
 454 158 l 1
 410 158 l 1
 374 126 l 1
 364 83 l 1
 387 53 l 1
 430 53 l 1
 468 83 l 1
EndSplineSet
Validated: 1
EndChar

StartChar: uni0E28
Encoding: 3624 3624 250
Width: 664
VWidth: 1661
Flags: W
HStem: 0 21G<75 137.107 520 584.19> 239 53<365 410> 397 52<387 432> 598 60<312 593>
LayerCount: 2
Fore
SplineSet
659 621 m 1
 699 568 l 1
 580 0 l 1
 520 0 l 1
 635 543 l 1
 593 598 l 1
 312 598 l 1
 248 543 l 1
 196 297 l 1
 377 449 l 1
 465 449 l 1
 512 387 l 1
 493 301 l 1
 420 239 l 1
 332 239 l 1
 286 301 l 1
 289 314 l 1
 179 224 l 1
 133 0 l 1
 75 0 l 1
 193 568 l 1
 302 658 l 1
 630 658 l 1
 738 748 l 1
 769 711 l 1
 659 621 l 1
455 365 m 1
 432 397 l 1
 387 397 l 1
 351 365 l 1
 342 322 l 1
 365 292 l 1
 410 292 l 1
 447 322 l 1
 455 365 l 1
EndSplineSet
Validated: 1
EndChar

StartChar: uni0E29
Encoding: 3625 3625 251
Width: 712
VWidth: 1661
Flags: W
HStem: 0 60<306 525> 238 53<444 488 561 618> 395 52<465 510> 447 53<219 262> 605 51<243 286>
LayerCount: 2
Fore
SplineSet
706 656 m 1
 766 656 l 1
 646 90 l 1
 538 0 l 1
 269 0 l 1
 199 88 l 1
 276 449 l 1
 274 447 l 1
 188 447 l 1
 140 508 l 1
 158 595 l 1
 231 656 l 1
 317 656 l 1
 367 595 l 1
 264 113 l 1
 306 60 l 1
 525 60 l 1
 591 113 l 1
 618 238 l 1
 410 238 l 1
 364 299 l 1
 382 387 l 1
 455 447 l 1
 543 447 l 1
 590 387 l 1
 571 299 l 1
 561 291 l 1
 630 291 l 1
 706 656 l 1
488 291 m 1
 525 321 l 1
 533 364 l 1
 510 395 l 1
 465 395 l 1
 429 364 l 1
 420 321 l 1
 444 291 l 1
 488 291 l 1
262 500 m 1
 299 530 l 1
 309 573 l 1
 286 605 l 1
 243 605 l 1
 204 573 l 1
 194 530 l 1
 219 500 l 1
 262 500 l 1
EndSplineSet
Validated: 1
EndChar

StartChar: uni0E2A
Encoding: 3626 3626 252
Width: 646
VWidth: 1661
Flags: W
HStem: 0 51<178 221> 156 53<201 244> 387 60<281 440> 507 21G<163 226.429> 596 60<296 575>
LayerCount: 2
Fore
SplineSet
641 620 m 1
 681 566 l 1
 561 0 l 1
 502 0 l 1
 553 244 l 1
 440 387 l 1
 281 387 l 1
 216 334 l 1
 188 208 l 1
 191 209 l 1
 277 209 l 1
 326 148 l 1
 307 61 l 1
 233 0 l 1
 146 0 l 1
 98 61 l 1
 159 357 l 1
 269 447 l 1
 478 447 l 1
 571 327 l 1
 616 543 l 1
 575 596 l 1
 296 596 l 1
 229 542 l 1
 223 507 l 1
 163 507 l 1
 174 566 l 1
 284 656 l 1
 613 656 l 1
 721 746 l 1
 751 709 l 1
 641 620 l 1
201 156 m 1
 163 126 l 1
 153 83 l 1
 178 51 l 1
 221 51 l 1
 257 83 l 1
 267 126 l 1
 244 156 l 1
 201 156 l 1
EndSplineSet
Validated: 1
EndChar

StartChar: uni0E2B
Encoding: 3627 3627 253
Width: 742
VWidth: 1661
Flags: W
HStem: 0 21G<179 258.272 598 662.289> 449 51<219 262> 605 53<243 286 661 704>
LayerCount: 2
Fore
SplineSet
767 510 m 1
 693 449 l 1
 741 387 l 1
 658 0 l 1
 598 0 l 1
 676 362 l 1
 636 412 l 1
 239 0 l 1
 179 0 l 1
 276 449 l 1
 188 449 l 1
 140 510 l 1
 158 596 l 1
 233 658 l 1
 321 658 l 1
 367 596 l 1
 259 88 l 1
 606 449 l 1
 558 510 l 1
 576 596 l 1
 651 658 l 1
 738 658 l 1
 786 596 l 1
 767 510 l 1
262 500 m 1
 301 532 l 1
 311 575 l 1
 286 605 l 1
 243 605 l 1
 206 575 l 1
 196 532 l 1
 219 500 l 1
 262 500 l 1
615 532 m 1
 638 500 l 1
 681 500 l 1
 719 532 l 1
 729 575 l 1
 704 605 l 1
 661 605 l 1
 625 575 l 1
 615 532 l 1
EndSplineSet
Validated: 1
EndChar

StartChar: uni0E2C
Encoding: 3628 3628 254
Width: 742
VWidth: 1661
Flags: W
HStem: 0 21G<181 256.732 592.866 663.259> 449 53<223 266> 478 54<646 689> 606 52<244 287> 636 52<669 713>
LayerCount: 2
Fore
SplineSet
882 689 m 1xa8
 912 653 l 1
 774 540 l 1
 659 0 l 1
 600 0 l 1
 488 314 l 1
 241 0 l 1
 181 0 l 1
 277 450 l 1
 276 449 l 1
 189 449 l 1
 141 510 l 1
 159 596 l 1
 234 658 l 1
 321 658 l 1xd0
 369 596 l 1
 264 106 l 1
 510 419 l 1
 623 106 l 1
 703 480 l 1
 701 478 l 1
 615 478 l 1
 565 540 l 1
 585 626 l 1
 658 688 l 1
 744 688 l 1
 794 626 l 1
 791 613 l 1
 882 689 l 1xa8
266 502 m 1
 302 532 l 1
 312 575 l 1
 287 606 l 1
 244 606 l 1
 208 575 l 1
 198 532 l 1xb0
 223 502 l 1
 266 502 l 1
689 532 m 1
 726 561 l 1
 736 605 l 1
 713 636 l 1
 669 636 l 1xa8
 631 605 l 1
 621 561 l 1
 646 532 l 1
 689 532 l 1
EndSplineSet
Validated: 1
Substitution2: "Single Substitution lookup 22 subtable" uni0E2C.alt1
Substitution2: "Single Substitution lookup 22 subtable" uni0E2C.alt1
EndChar

StartChar: uni0E2D
Encoding: 3629 3629 255
Width: 647
VWidth: 1661
Flags: W
HStem: 0 60<211 460> 239 52<229 272> 395 52<251 294> 507 21G<161 225.571> 596 60<296 575>
LayerCount: 2
Fore
SplineSet
611 656 m 1
 683 566 l 1
 581 90 l 1
 473 0 l 1
 174 0 l 1
 103 90 l 1
 166 387 l 1
 241 447 l 1
 327 447 l 1
 375 387 l 1
 357 299 l 1
 282 239 l 1
 194 239 l 1
 168 113 l 1
 211 60 l 1
 460 60 l 1
 527 115 l 1
 618 543 l 1
 575 596 l 1
 296 596 l 1
 229 542 l 1
 221 507 l 1
 161 507 l 1
 174 566 l 1
 282 656 l 1
 611 656 l 1
213 365 m 1
 204 321 l 1
 229 291 l 1
 272 291 l 1
 309 321 l 1
 317 365 l 1
 294 395 l 1
 251 395 l 1
 213 365 l 1
EndSplineSet
Validated: 1
EndChar

StartChar: uni0E2E
Encoding: 3630 3630 256
Width: 647
VWidth: 1661
Flags: W
HStem: 0 60<211 460> 179 54<216 259> 337 52<239 282> 449 59<248 432> 598 60<266 540>
LayerCount: 2
Fore
SplineSet
751 711 m 1
 641 621 l 1
 683 568 l 1
 581 90 l 1
 473 0 l 1
 174 0 l 1
 103 90 l 1
 154 327 l 1
 228 389 l 1
 314 389 l 1
 364 327 l 1
 344 241 l 1
 271 179 l 1
 184 179 l 1
 183 181 l 1
 168 115 l 1
 211 60 l 1
 460 60 l 1
 527 115 l 1
 618 543 l 1
 591 578 l 1
 434 449 l 1
 209 449 l 1
 163 508 l 1
 181 598 l 1
 254 658 l 1
 613 658 l 1
 721 748 l 1
 751 711 l 1
201 306 m 1
 191 262 l 1
 216 233 l 1
 259 233 l 1
 296 262 l 1
 306 306 l 1
 282 337 l 1
 239 337 l 1
 201 306 l 1
540 598 m 1
 266 598 l 1
 236 573 l 1
 228 533 l 1
 248 508 l 1
 432 508 l 1
 540 598 l 1
EndSplineSet
Validated: 1
EndChar

StartChar: uni0E2F
Encoding: 3631 3631 257
Width: 533
VWidth: 1661
Flags: W
HStem: 0 21G<390 454.286> 449 53<223 266 347 384> 606 52<244 287>
LayerCount: 2
Fore
SplineSet
532 658 m 1
 591 658 l 1
 450 0 l 1
 390 0 l 1
 505 538 l 1
 397 449 l 1
 189 449 l 1
 141 510 l 1
 159 596 l 1
 234 658 l 1
 321 658 l 1
 369 596 l 1
 351 510 l 1
 347 508 l 1
 384 508 l 1
 523 623 l 1
 532 658 l 1
223 502 m 1
 266 502 l 1
 302 532 l 1
 312 575 l 1
 287 606 l 1
 244 606 l 1
 208 575 l 1
 198 532 l 1
 223 502 l 1
EndSplineSet
Validated: 1
EndChar

StartChar: uni0E30
Encoding: 3632 3632 258
Width: 533
VWidth: 1661
Flags: W
HStem: 0 60<249 331> 0 53<143 173> 128 51<159 189> 447 60<344 425> 447 53<238 267> 575 51<254 284>
LayerCount: 2
Fore
SplineSet
163 500 m 1x2c
 179 575 l 1
 244 626 l 1
 317 626 l 1
 359 575 l 1
 359 573 l 1
 344 507 l 1
 425 507 l 1x34
 533 596 l 1
 566 555 l 1
 437 447 l 1
 206 447 l 1
 163 500 l 1x2c
228 553 m 1
 221 522 l 1
 238 500 l 1
 267 500 l 1x2c
 296 522 l 1
 302 553 l 1
 284 575 l 1
 254 575 l 1
 228 553 l 1
68 53 m 1x64
 85 128 l 1
 148 179 l 1
 221 179 l 1
 264 128 l 1
 264 126 l 1
 249 60 l 1
 331 60 l 1xa4
 439 150 l 1
 472 108 l 1
 341 0 l 1
 110 0 l 1
 68 53 l 1x64
126 75 m 1
 143 53 l 1
 173 53 l 1x64
 201 75 l 1
 208 106 l 1
 189 128 l 1
 159 128 l 1
 133 106 l 1
 126 75 l 1
EndSplineSet
Validated: 1
EndChar

StartChar: uni0E31
Encoding: 3633 3633 259
Width: 0
VWidth: 1661
Flags: W
HStem: 756 51<-148 -116 -43 128> 882 53<-133 -101>
LayerCount: 2
Fore
SplineSet
276 869 m 1
 219 812 203 816 136 756 c 1
 -181 756 l 1
 -223 807 l 1
 -206 882 l 1
 -143 935 l 1
 -68 935 l 1
 -27 882 l 1
 -43 809 l 1
 128 807 l 1
 246 905 l 1
 276 869 l 1
-148 807 m 1
 -116 807 l 1
 -91 831 l 1
 -85 861 l 1
 -101 882 l 1
 -133 882 l 1
 -159 861 l 1
 -164 831 l 1
 -148 807 l 1
EndSplineSet
Validated: 1
Substitution2: "Single Substitution lookup 22 subtable" uni0E31.alt1
Substitution2: "Single Substitution lookup 22 subtable" uni0E31.alt1
EndChar

StartChar: uni0E32
Encoding: 3634 3634 260
Width: 586
VWidth: 1661
Flags: W
HStem: 0 21G<442 506.19> 507 21G<159 224> 596 60<294 513>
LayerCount: 2
Fore
SplineSet
550 656 m 1
 621 568 l 1
 502 0 l 1
 442 0 l 1
 557 543 l 1
 513 596 l 1
 294 596 l 1
 228 543 l 1
 219 507 l 1
 159 507 l 1
 173 566 l 1
 281 656 l 1
 550 656 l 1
EndSplineSet
Validated: 1
EndChar

StartChar: uni0E34
Encoding: 3636 3636 262
Width: 0
VWidth: 1661
Flags: W
HStem: 756 53<-337 37> 884 51<-264 10.4438>
LayerCount: 2
Fore
SplineSet
25 935 m 1
 95 846 l 1
 76 756 l 1
 -400 756 l 1
 -380 847 l 1
 -274 935 l 1
 25 935 l 1
-337 809 m 1
 37 809 l 1
 40 824 l 1
 2 872 8 868 -8 884 c 1
 -264 884 l 1
 -334 826 l 1
 -337 809 l 1
EndSplineSet
Validated: 1
Substitution2: "Single Substitution lookup 22 subtable" uni0E34.alt1
Substitution2: "Single Substitution lookup 22 subtable" uni0E34.alt1
EndChar

StartChar: uni0E35
Encoding: 3637 3637 263
Width: 0
VWidth: 1661
Flags: W
HStem: 756 51<-339 35> 882 53<-266 -8>
LayerCount: 2
Fore
SplineSet
81 1025 m 1
 133 1025 l 1
 75 756 l 1
 -402 756 l 1
 -382 846 l 1
 -276 935 l 1
 25 935 l 1
 53 897 l 1
 81 1025 l 1
38 824 m 1
 -8 882 l 1
 -266 882 l 1
 -336 824 l 1
 -339 807 l 1
 35 807 l 1
 38 824 l 1
EndSplineSet
Validated: 1
Substitution2: "Single Substitution lookup 22 subtable" uni0E35.alt1
Substitution2: "Single Substitution lookup 22 subtable" uni0E35.alt1
EndChar

StartChar: uni0E36
Encoding: 3638 3638 264
Width: 0
VWidth: 1661
Flags: W
HStem: 756 51<-339 35> 882 53<-264 -13> 972 51<70 100>
LayerCount: 2
Fore
SplineSet
158 897 m 1
 95 846 l 1
 95 844 l 1
 75 756 l 1
 -402 756 l 1
 -382 846 l 1
 -276 935 l 1
 -13 935 l 1
 -5 972 l 1
 60 1023 l 1
 133 1023 l 1
 174 972 l 1
 158 897 l 1
35 807 m 1
 38 824 l 1
 23 843 8 862 -7 882 c 1
 -264 882 l 1
 -336 824 l 1
 -339 807 l 1
 35 807 l 1
37 920 m 1
 42 910 49 907 53 897 c 1
 83 897 l 1
 110 919 l 1
 116 950 l 1
 100 972 l 1
 70 972 l 1
 43 950 l 1
 37 920 l 1
EndSplineSet
Validated: 1
Substitution2: "Single Substitution lookup 22 subtable" uni0E36.alt1
Substitution2: "Single Substitution lookup 22 subtable" uni0E36.alt1
EndChar

StartChar: uni0E37
Encoding: 3639 3639 265
Width: 0
VWidth: 1661
Flags: W
HStem: 754 53<-341 33> 882 52<-276 -60 -7 8.13824>
LayerCount: 2
Fore
SplineSet
80 1023 m 1
 133 1023 l 1
 75 754 l 1
 -404 754 l 1
 -384 846 l 1
 -276 934 l 1
 -60 934 l 1
 -40 1023 l 1
 13 1023 l 1
 -7 934 l 1
 23 934 l 1
 53 897 l 1
 80 1023 l 1
37 822 m 1
 18 845 15 852 -8 882 c 1
 -264 882 l 1
 -294 860 -307 846 -337 824 c 1
 -341 807 l 1
 33 807 l 1
 37 822 l 1
EndSplineSet
Validated: 1
Substitution2: "Single Substitution lookup 22 subtable" uni0E37.alt1
Substitution2: "Single Substitution lookup 22 subtable" uni0E37.alt1
EndChar

StartChar: uni0E38
Encoding: 3640 3640 266
Width: 0
VWidth: 1661
Flags: W
HStem: -228 54<-229 -198> -100 52<-213 -181>
VStem: -302 196
LayerCount: 2
Fore
SplineSet
-166 -377 m 1
 -226 -377 l 1
 -193 -228 l 1
 -261 -228 l 1
 -302 -174 l 1
 -286 -100 l 1
 -223 -48 l 1
 -148 -48 l 1
 -106 -100 l 1
 -166 -377 l 1
-229 -174 m 1
 -198 -174 l 1
 -171 -153 l 1
 -164 -123 l 1
 -181 -100 l 1
 -213 -100 l 1
 -239 -123 l 1
 -246 -153 l 1
 -229 -174 l 1
EndSplineSet
Validated: 1
Substitution2: "Single Substitution lookup 21 subtable" a
Substitution2: "Single Substitution lookup 22 subtable" uni0E38.alt1
Substitution2: "Single Substitution lookup 21 subtable" a
Substitution2: "Single Substitution lookup 22 subtable" uni0E38.alt1
EndChar

StartChar: uni0E39
Encoding: 3641 3641 267
Width: 0
VWidth: 1661
Flags: W
HStem: -375 59<-301 -211> -226 52<-377 -346> -100 52<-360 -329>
LayerCount: 2
Fore
SplineSet
-154 -48 m 1
 -95 -48 l 1
 -163 -375 l 1
 -372 -375 l 1
 -341 -226 l 1
 -409 -226 l 1
 -450 -174 l 1
 -434 -100 l 1
 -370 -48 l 1
 -297 -48 l 1
 -254 -100 l 1
 -301 -316 l 1
 -211 -316 l 1
 -154 -48 l 1
-377 -174 m 1
 -346 -174 l 1
 -319 -153 l 1
 -312 -121 l 1
 -329 -100 l 1
 -360 -100 l 1
 -387 -121 l 1
 -394 -153 l 1
 -377 -174 l 1
EndSplineSet
Validated: 1
Substitution2: "Single Substitution lookup 21 subtable" b
Substitution2: "Single Substitution lookup 22 subtable" uni0E39.alt1
Substitution2: "Single Substitution lookup 21 subtable" b
Substitution2: "Single Substitution lookup 22 subtable" uni0E39.alt1
EndChar

StartChar: uni0E3A
Encoding: 3642 3642 268
Width: 0
VWidth: 1661
Flags: W
HStem: -168 120<-181 -156>
VStem: -233 130
LayerCount: 2
Fore
SplineSet
-103 -83 m 1
 -113 -131 l 1
 -156 -168 l 1
 -206 -168 l 1
 -233 -131 l 1
 -223 -83 l 1
 -181 -48 l 1
 -131 -48 l 1
 -103 -83 l 1
EndSplineSet
Validated: 1
Substitution2: "Single Substitution lookup 21 subtable" c
Substitution2: "Single Substitution lookup 22 subtable" uni0E3A.alt1
Substitution2: "Single Substitution lookup 21 subtable" c
Substitution2: "Single Substitution lookup 22 subtable" uni0E3A.alt1
EndChar

StartChar: uni0E3F
Encoding: 3647 3647 269
Width: 588
VWidth: 1661
Flags: W
HStem: 0 60<125 218 289 399> 329 60<194 287 359 439> 658 60<253 357 429 497>
CounterMasks: 1 e0
LayerCount: 2
Fore
SplineSet
505 374 m 1
 565 299 l 1
 520 90 l 1
 412 0 l 1
 277 0 l 1
 264 -60 l 1
 204 -60 l 1
 218 0 l 1
 55 0 l 1
 204 718 l 1
 369 718 l 1
 382 777 l 1
 442 777 l 1
 429 718 l 1
 533 718 l 1
 605 628 l 1
 560 419 l 1
 505 374 l 1
497 658 m 1
 417 658 l 1
 359 389 l 1
 439 389 l 1
 505 444 l 1
 540 603 l 1
 497 658 l 1
253 658 m 1
 194 389 l 1
 299 389 l 1
 357 658 l 1
 253 658 l 1
125 60 m 1
 229 60 l 1
 287 329 l 1
 183 329 l 1
 125 60 l 1
465 115 m 1
 500 274 l 1
 457 329 l 1
 347 329 l 1
 289 60 l 1
 399 60 l 1
 465 115 l 1
EndSplineSet
Validated: 1
EndChar

StartChar: uni0E40
Encoding: 3648 3648 270
Width: 302
VWidth: 1661
Flags: W
HStem: 0 53<148 191> 158 51<171 214> 638 20G<189.779 254>
VStem: 68 228
LayerCount: 2
Fore
SplineSet
246 209 m 1
 296 150 l 1
 276 61 l 1
 201 0 l 1
 115 0 l 1
 68 61 l 1
 194 658 l 1
 254 658 l 1
 158 208 l 1
 159 209 l 1
 246 209 l 1
228 83 m 1
 238 126 l 1
 214 158 l 1
 171 158 l 1
 135 126 l 1
 125 83 l 1
 148 53 l 1
 191 53 l 1
 228 83 l 1
EndSplineSet
Validated: 1
EndChar

StartChar: uni0E41
Encoding: 3649 3649 271
Width: 571
VWidth: 1661
Flags: W
HStem: 0 51<148 193 417 460> 156 53<169 214 439 482> 638 20G<191.779 256 458.745 523>
LayerCount: 2
Fore
SplineSet
159 209 m 1
 248 209 l 1
 294 148 l 1
 276 61 l 1
 203 0 l 1
 115 0 l 1
 70 61 l 1
 196 658 l 1
 256 658 l 1
 159 209 l 1
229 83 m 1
 239 126 l 1
 214 156 l 1
 169 156 l 1
 135 126 l 1
 125 83 l 1
 148 51 l 1
 193 51 l 1
 229 83 l 1
515 209 m 1
 563 148 l 1
 545 61 l 1
 470 0 l 1
 384 0 l 1
 336 61 l 1
 463 658 l 1
 523 658 l 1
 427 208 l 1
 429 209 l 1
 515 209 l 1
498 83 m 1
 508 126 l 1
 482 156 l 1
 439 156 l 1
 404 126 l 1
 394 83 l 1
 417 51 l 1
 460 51 l 1
 498 83 l 1
EndSplineSet
Validated: 1
EndChar

StartChar: uni0E42
Encoding: 3650 3650 272
Width: 485
VWidth: 1661
Flags: W
HStem: 0 53<331 374> 158 51<354 397> 957 60<286 530>
LayerCount: 2
Fore
SplineSet
429 209 m 1
 477 148 l 1
 458 61 l 1
 384 0 l 1
 297 0 l 1
 249 61 l 1
 402 774 l 1
 154 882 l 1
 164 927 l 1
 274 1017 l 1
 543 1017 l 1
 530 957 l 1
 286 957 l 1
 231 910 l 1
 468 807 l 1
 341 208 l 1
 342 209 l 1
 429 209 l 1
412 83 m 1
 422 126 l 1
 397 158 l 1
 354 158 l 1
 317 126 l 1
 307 83 l 1
 331 53 l 1
 374 53 l 1
 412 83 l 1
EndSplineSet
Validated: 1
EndChar

StartChar: uni0E43
Encoding: 3651 3651 273
Width: 486
VWidth: 1661
Flags: W
HStem: 0 51<331 374> 156 53<354 397> 718 51<214 257> 874 53<249 279> 957 58<286 385>
LayerCount: 2
Fore
SplineSet
429 209 m 1
 477 148 l 1
 458 61 l 1
 385 0 l 1
 299 0 l 1
 249 61 l 1
 429 902 l 1
 385 957 l 1
 286 957 l 1
 249 927 l 1
 312 927 l 1
 360 865 l 1
 342 779 l 1
 267 718 l 1
 181 718 l 1
 133 779 l 1
 164 925 l 1
 272 1015 l 1
 422 1015 l 1
 493 927 l 1
 341 208 l 1
 342 209 l 1
 429 209 l 1
304 844 m 1
 279 874 l 1
 236 874 l 1
 199 844 l 1
 189 801 l 1
 214 769 l 1
 257 769 l 1
 294 801 l 1
 304 844 l 1
410 83 m 1
 420 126 l 1
 397 156 l 1
 354 156 l 1
 316 126 l 1
 306 83 l 1
 331 51 l 1
 374 51 l 1
 410 83 l 1
EndSplineSet
Validated: 1
EndChar

StartChar: uni0E44
Encoding: 3652 3652 274
Width: 485
VWidth: 1661
Flags: W
HStem: 0 51<331 375> 156 53<352 397> 955 60<184 228>
LayerCount: 2
Fore
SplineSet
430 209 m 1
 477 148 l 1
 458 61 l 1
 385 0 l 1
 297 0 l 1
 251 61 l 1
 435 930 l 1
 321 836 l 1
 228 955 l 1
 173 955 l 1
 184 1015 l 1
 264 1015 l 1
 339 920 l 1
 455 1017 l 1
 515 1017 l 1
 342 209 l 1
 430 209 l 1
412 83 m 1
 422 126 l 1
 397 156 l 1
 352 156 l 1
 317 126 l 1
 307 83 l 1
 331 51 l 1
 375 51 l 1
 412 83 l 1
EndSplineSet
Validated: 1
EndChar

StartChar: uni0E45
Encoding: 3653 3653 275
Width: 588
VWidth: 1661
Flags: W
HStem: 508 21G<164 229.143> 598 60<299 518>
LayerCount: 2
Fore
SplineSet
557 658 m 1
 626 568 l 1
 442 -297 l 1
 382 -297 l 1
 561 543 l 1
 518 598 l 1
 299 598 l 1
 233 543 l 1
 224 508 l 1
 164 508 l 1
 178 568 l 1
 287 658 l 1
 557 658 l 1
EndSplineSet
Validated: 1
EndChar

StartChar: uni0E46
Encoding: 3654 3654 276
Width: 561
VWidth: 1661
Flags: W
HStem: 327 55<224 267> 485 53<246 289> 596 60<301 351 470 490>
LayerCount: 2
Fore
SplineSet
528 656 m 1
 598 566 l 1
 414 -301 l 1
 354 -301 l 1
 533 542 l 1
 490 596 l 1
 470 596 l 1
 397 537 l 1
 351 596 l 1
 301 596 l 1
 234 542 l 1
 233 537 l 1
 236 538 l 1
 322 538 l 1
 370 477 l 1
 351 389 l 1
 277 327 l 1
 191 327 l 1
 143 390 l 1
 179 566 l 1
 289 656 l 1
 389 656 l 1
 415 621 l 1
 458 656 l 1
 528 656 l 1
246 485 m 1
 208 455 l 1
 198 412 l 1
 224 382 l 1
 267 382 l 1
 302 412 l 1
 312 455 l 1
 289 485 l 1
 246 485 l 1
EndSplineSet
Validated: 1
EndChar

StartChar: uni0E47
Encoding: 3655 3655 277
Width: 0
VWidth: 1661
Flags: W
HStem: 756 51<-117.506 -88 -31.7656 13> 875 52<0 28> 942 53<-133 43>
LayerCount: 2
Fore
SplineSet
146 1018 m 1
 135 1010 55 944 55 944 c 1
 55 942 l 1
 -133 942 l 1
 -204 884 l 1
 -218 822 l 1
 -206 833 -166 863 -154 875 c 1
 -153 874 -101 807 -101 807 c 1
 -88 807 l 1
 -73 877 l 1
 -13 927 l 1
 60 927 l 1
 101 879 l 1
 86 806 l 1
 25 756 l 1
 -135 756 l 1
 -169 801 l 1
 -226 756 l 1
 -284 756 l 1
 -253 905 l 1
 -145 995 l 1
 43 995 l 1
 116 1055 l 1
 146 1018 l 1
43 856 m 1
 28 875 l 1
 0 875 l 1
 -25 856 l 1
 -32 827 l 1
 -27 823 -22 816 -15 807 c 1
 13 807 l 1
 38 827 l 1
 43 856 l 1
EndSplineSet
Validated: 1
Substitution2: "Single Substitution lookup 22 subtable" uni0E47.alt1
Substitution2: "Single Substitution lookup 22 subtable" uni0E47.alt1
EndChar

StartChar: uni0E48
Encoding: 3656 3656 278
Width: 0
VWidth: 1661
Flags: W
HStem: 1063 239<140 141>
VStem: 90 103
LayerCount: 2
Fore
SplineSet
193 1302 m 1
 141 1063 l 1
 90 1063 l 1
 90 1087 140 1254 140 1302 c 1
 193 1302 l 1
EndSplineSet
Validated: 1
Substitution2: "Single Substitution lookup 22 subtable" uni0E48.alt2
Substitution2: "Single Substitution lookup 22 subtable" uni0E48.alt2
EndChar

StartChar: uni0E49
Encoding: 3657 3657 279
Width: 0
VWidth: 1661
Flags: W
HStem: 1063 53<-63 -10.0123 45 126> 1251 51<38 66>
LayerCount: 2
Fore
SplineSet
-28 1116 m 1
 -27 1117 -10 1131 -10 1131 c 1
 -48 1181 l 1
 -33 1253 l 1
 27 1302 l 1
 100 1302 l 1
 138 1253 l 1
 123 1181 l 1
 45 1116 l 1
 126 1116 l 1
 321 1276 l 1
 349 1239 l 1
 348 1238 342 1234 332 1224 c 2
 242 1152 l 1
 154 1078 l 2
 143 1069 137 1064 136 1063 c 1
 -73 1063 l 1
 -63 1116 l 1
 -28 1116 l 1
8 1203 m 1
 23 1183 l 1
 51 1183 l 1
 76 1203 l 1
 81 1231 l 1
 66 1251 l 1
 38 1251 l 1
 13 1231 l 1
 8 1203 l 1
EndSplineSet
Validated: 1
Substitution2: "Single Substitution lookup 22 subtable" uni0E49.alt2
Substitution2: "Single Substitution lookup 22 subtable" uni0E49.alt2
EndChar

StartChar: uni0E4A
Encoding: 3658 3658 280
Width: 0
VWidth: 1661
Flags: W
HStem: 1101 50<7 48> 1219 53<10 50>
LayerCount: 2
Fore
SplineSet
372 1243 m 1
 154 1063 l 1
 126 1100 l 1
 196 1158 l 1
 164 1198 l 1
 48 1101 l 1
 -25 1101 l 1
 -65 1150 l 1
 -48 1223 l 1
 10 1272 l 1
 83 1272 l 1
 121 1223 l 1
 181 1271 l 1
 241 1194 l 1
 344 1279 l 1
 372 1243 l 1
35 1151 m 1
 38 1154 47 1161 60 1171 c 1
 66 1199 l 1
 50 1219 l 1
 22 1219 l 1
 13 1213 5 1206 -2 1199 c 1
 -8 1171 l 1
 7 1151 l 1
 35 1151 l 1
EndSplineSet
Validated: 1
Substitution2: "Single Substitution lookup 22 subtable" uni0E4A.alt2
Substitution2: "Single Substitution lookup 22 subtable" uni0E4A.alt2
EndChar

StartChar: uni0E4B
Encoding: 3659 3659 281
Width: 0
VWidth: 1661
Flags: W
HStem: 1156 53<27 108 173 254>
VStem: 15 251
LayerCount: 2
Fore
SplineSet
266 1209 m 1
 254 1156 l 1
 161 1156 l 1
 141 1063 l 1
 90 1063 l 1
 108 1156 l 1
 15 1156 l 1
 27 1209 l 1
 120 1209 l 1
 140 1302 l 1
 193 1302 l 1
 173 1209 l 1
 266 1209 l 1
EndSplineSet
Validated: 1
Substitution2: "Single Substitution lookup 22 subtable" uni0E4B.alt2
Substitution2: "Single Substitution lookup 22 subtable" uni0E4B.alt2
EndChar

StartChar: uni0E4C
Encoding: 3660 3660 282
Width: 0
VWidth: 1661
Flags: W
HStem: 970 52<48 78>
VStem: -27 289
LayerCount: 2
Fore
SplineSet
153 1022 m 1
 90 970 l 1
 15 970 l 1
 -27 1022 l 1
 -12 1096 l 1
 234 1299 l 1
 262 1263 l 1
 218 1224 l 1
 126 1148 l 1
 168 1096 l 1
 153 1022 l 1
111 1075 m 1
 95 1096 l 1
 63 1096 l 1
 37 1075 l 1
 30 1043 l 1
 48 1022 l 1
 78 1022 l 1
 105 1043 l 1
 111 1075 l 1
EndSplineSet
Validated: 1
Substitution2: "Single Substitution lookup 22 subtable" uni0E4C.alt2
Substitution2: "Single Substitution lookup 22 subtable" uni0E4C.alt2
EndChar

StartChar: uni0E4D
Encoding: 3661 3661 283
Width: 0
VWidth: 1661
Flags: W
HStem: 756 51<-40 3> 912 53<-17 27>
VStem: -121 227
LayerCount: 2
Fore
SplineSet
-28 965 m 1
 58 965 l 1
 106 904 l 1
 88 817 l 1
 15 756 l 1
 -73 756 l 1
 -121 817 l 1
 -103 904 l 1
 -28 965 l 1
42 839 m 1
 50 882 l 1
 27 912 l 1
 -17 912 l 1
 -55 882 l 1
 -63 839 l 1
 -40 807 l 1
 3 807 l 1
 42 839 l 1
EndSplineSet
Validated: 1
Substitution2: "Single Substitution lookup 22 subtable" uni0E4D.alt1
Substitution2: "Single Substitution lookup 22 subtable" uni0E4D.alt1
EndChar

StartChar: uni0E4E
Encoding: 3662 3662 284
Width: 0
VWidth: 1661
Flags: W
HStem: 861 59<48 96> 965 60<176 271>
VStem: -43 325
LayerCount: 2
Fore
SplineSet
282 1025 m 1
 271 965 l 1
 176 965 l 1
 163 954 l 1
 143 861 l 1
 48 861 l 1
 37 849 l 1
 17 756 l 1
 -43 756 l 1
 -18 874 l 1
 37 920 l 1
 96 920 l 1
 108 978 l 1
 163 1025 l 1
 282 1025 l 1
EndSplineSet
Validated: 1
Substitution2: "Single Substitution lookup 22 subtable" uni0E4E.alt1
Substitution2: "Single Substitution lookup 22 subtable" uni0E4E.alt1
EndChar

StartChar: uni0E4F
Encoding: 3663 3663 285
Width: 586
VWidth: 1661
Flags: W
HStem: 0 60<223 352> 120 59<296 334> 269 60<314 352> 389 60<296 424>
LayerCount: 2
Fore
SplineSet
390 329 m 1
 439 267 l 1
 420 181 l 1
 346 120 l 1
 259 120 l 1
 213 179 l 1
 231 269 l 1
 304 329 l 1
 390 329 l 1
365 206 m 1
 374 243 l 1
 352 269 l 1
 314 269 l 1
 284 243 l 1
 276 206 l 1
 296 179 l 1
 334 179 l 1
 365 206 l 1
460 449 m 1
 568 312 l 1
 530 135 l 1
 365 0 l 1
 186 0 l 1
 81 135 l 1
 120 314 l 1
 282 449 l 1
 460 449 l 1
475 159 m 1
 503 287 l 1
 424 389 l 1
 296 389 l 1
 174 289 l 1
 146 159 l 1
 223 60 l 1
 352 60 l 1
 475 159 l 1
EndSplineSet
Validated: 1
EndChar

StartChar: uni0E50
Encoding: 3664 3664 286
Width: 646
VWidth: 1661
Flags: W
HStem: 0 60<181 460> 419 58<256 535>
LayerCount: 2
Fore
SplineSet
573 478 m 1
 643 387 l 1
 580 90 l 1
 472 0 l 1
 143 0 l 1
 71 90 l 1
 136 389 l 1
 244 477 l 1
 573 478 l 1
525 113 m 1
 578 364 l 1
 535 419 l 1
 256 419 l 1
 189 364 l 1
 138 115 l 1
 181 60 l 1
 460 60 l 1
 525 113 l 1
EndSplineSet
Validated: 1
EndChar

StartChar: uni0E51
Encoding: 3665 3665 287
Width: 647
VWidth: 1661
Flags: W
HStem: 0 51<267 311> 156 53<291 334> 417 60<257 537>
LayerCount: 2
Fore
SplineSet
575 477 m 1
 645 387 l 1
 570 30 l 1
 460 -60 l 1
 427 -18 l 1
 515 53 l 1
 580 362 l 1
 537 417 l 1
 257 417 l 1
 191 364 l 1
 138 115 l 1
 181 60 l 1
 188 60 l 1
 188 61 l 1
 206 148 l 1
 281 209 l 1
 367 209 l 1
 415 148 l 1
 397 61 l 1
 322 0 l 1
 145 0 l 1
 73 90 l 1
 136 387 l 1
 246 477 l 1
 575 477 l 1
254 126 m 1
 244 83 l 1
 267 51 l 1
 311 51 l 1
 347 83 l 1
 357 126 l 1
 334 156 l 1
 291 156 l 1
 254 126 l 1
EndSplineSet
Validated: 1
EndChar

StartChar: uni0E52
Encoding: 3666 3666 288
Width: 765
VWidth: 1661
Flags: W
HStem: 0 60<179 578> 148 53<327 370> 306 51<349 392> 417 60<405 455 635 655>
LayerCount: 2
Fore
SplineSet
691 477 m 1
 762 387 l 1
 699 90 l 1
 590 0 l 1
 141 0 l 1
 71 90 l 1
 173 566 l 1
 233 566 l 1
 136 115 l 1
 179 60 l 1
 578 60 l 1
 645 115 l 1
 698 362 l 1
 655 417 l 1
 635 417 l 1
 525 327 l 1
 455 417 l 1
 405 417 l 1
 339 362 l 1
 337 355 l 1
 339 357 l 1
 425 357 l 1
 473 297 l 1
 455 209 l 1
 380 148 l 1
 294 148 l 1
 246 209 l 1
 284 387 l 1
 392 477 l 1
 492 477 l 1
 543 412 l 1
 621 477 l 1
 691 477 l 1
349 306 m 1
 311 274 l 1
 302 231 l 1
 327 201 l 1
 370 201 l 1
 407 231 l 1
 415 274 l 1
 392 306 l 1
 349 306 l 1
EndSplineSet
Validated: 1
EndChar

StartChar: uni0E53
Encoding: 3667 3667 289
Width: 735
VWidth: 1661
Flags: W
HStem: 0 51<148 191> 156 53<169 213> 417 60<256 387 553 625>
LayerCount: 2
Fore
SplineSet
663 477 m 1
 734 387 l 1
 651 0 l 1
 591 0 l 1
 669 364 l 1
 625 417 l 1
 553 417 l 1
 490 364 l 1
 412 0 l 1
 352 0 l 1
 430 364 l 1
 387 417 l 1
 256 417 l 1
 189 362 l 1
 158 208 l 1
 159 209 l 1
 246 209 l 1
 294 148 l 1
 276 61 l 1
 201 0 l 1
 115 0 l 1
 66 61 l 1
 136 387 l 1
 244 477 l 1
 424 477 l 1
 470 417 l 1
 543 477 l 1
 663 477 l 1
169 156 m 1
 133 126 l 1
 125 83 l 1
 148 51 l 1
 191 51 l 1
 229 83 l 1
 238 126 l 1
 213 156 l 1
 169 156 l 1
EndSplineSet
Validated: 1
EndChar

StartChar: uni0E54
Encoding: 3668 3668 290
Width: 676
VWidth: 1661
Flags: W
HStem: 0 60<181 367 442 591> 276 53<375 419> 417 60<257 621>
LayerCount: 2
Fore
SplineSet
442 60 m 1
 605 60 l 1
 591 0 l 1
 143 0 l 1
 73 90 l 1
 136 387 l 1
 244 477 l 1
 621 477 l 1
 731 566 l 1
 762 525 l 1
 635 417 l 1
 257 417 l 1
 191 362 l 1
 138 115 l 1
 181 60 l 1
 367 60 l 1
 271 181 l 1
 289 267 l 1
 364 329 l 1
 450 329 l 1
 498 267 l 1
 480 181 l 1
 407 120 l 1
 395 120 l 1
 442 60 l 1
339 246 m 1
 329 203 l 1
 352 171 l 1
 395 171 l 1
 434 203 l 1
 444 246 l 1
 419 276 l 1
 375 276 l 1
 339 246 l 1
EndSplineSet
Validated: 1
EndChar

StartChar: uni0E55
Encoding: 3669 3669 291
Width: 676
VWidth: 1661
Flags: W
HStem: 0 60<183 369 442 593> 276 53<377 420> 417 60<259 337 410 468 543 621> 575 51<440 483>
LayerCount: 2
Fore
SplineSet
442 60 m 1
 606 60 l 1
 593 0 l 1
 145 0 l 1
 75 90 l 1
 138 387 l 1
 246 477 l 1
 337 477 l 1
 337 478 l 1
 355 565 l 1
 430 626 l 1
 517 626 l 1
 565 565 l 1
 547 478 l 1
 543 477 l 1
 621 477 l 1
 733 568 l 1
 766 525 l 1
 635 417 l 1
 259 417 l 1
 193 364 l 1
 140 115 l 1
 183 60 l 1
 369 60 l 1
 274 181 l 1
 292 267 l 1
 367 329 l 1
 454 329 l 1
 502 267 l 1
 483 181 l 1
 409 120 l 1
 395 120 l 1
 442 60 l 1
339 246 m 1
 329 203 l 1
 354 171 l 1
 397 171 l 1
 434 203 l 1
 444 246 l 1
 420 276 l 1
 377 276 l 1
 339 246 l 1
392 500 m 1
 410 477 l 1
 468 477 l 1
 497 500 l 1
 507 543 l 1
 483 575 l 1
 440 575 l 1
 402 543 l 1
 392 500 l 1
EndSplineSet
Validated: 1
EndChar

StartChar: uni0E56
Encoding: 3670 3670 292
Width: 722
VWidth: 1661
Flags: W
HStem: 0 60<382 538> 0 51<256 299> 156 53<277 321> 417 60<274 615>
LayerCount: 2
Fore
SplineSet
651 477 m 1xb0
 723 387 l 1
 659 90 l 1
 550 0 l 1
 223 0 l 1x70
 174 61 l 1
 193 148 l 1
 267 209 l 1
 354 209 l 1
 402 148 l 1
 384 61 l 1
 382 60 l 1
 538 60 l 1
 605 115 l 1
 658 362 l 1
 615 417 l 1
 238 417 l 1
 153 525 l 1
 204 566 l 1
 274 477 l 1
 651 477 l 1xb0
256 51 m 1
 299 51 l 1
 336 83 l 1
 344 126 l 1
 321 156 l 1
 277 156 l 1
 239 126 l 1
 231 83 l 1
 256 51 l 1
EndSplineSet
Validated: 1
EndChar

StartChar: uni0E57
Encoding: 3671 3671 293
Width: 825
VWidth: 1661
Flags: W
HStem: 0 51<148 191> 156 53<169 213> 417 60<257 322 502 566>
LayerCount: 2
Fore
SplineSet
802 566 m 1
 862 566 l 1
 772 150 l 1
 591 0 l 1
 532 0 l 1
 610 364 l 1
 566 417 l 1
 502 417 l 1
 392 327 l 1
 322 417 l 1
 257 417 l 1
 191 362 l 1
 158 208 l 1
 159 209 l 1
 246 209 l 1
 294 148 l 1
 276 60 l 1
 201 0 l 1
 115 0 l 1
 66 60 l 1
 136 387 l 1
 244 477 l 1
 359 477 l 1
 410 412 l 1
 488 477 l 1
 603 477 l 1
 674 387 l 1
 610 85 l 1
 719 174 l 1
 802 566 l 1
169 156 m 1
 133 126 l 1
 125 83 l 1
 148 51 l 1
 191 51 l 1
 229 83 l 1
 238 126 l 1
 213 156 l 1
 169 156 l 1
EndSplineSet
Validated: 1
EndChar

StartChar: uni0E58
Encoding: 3672 3672 294
Width: 704
VWidth: 1661
Flags: W
HStem: 0 61<369 424> 0 53<505 548> 158 51<527 570> 419 59<257 620>
LayerCount: 2
Fore
SplineSet
517 209 m 1xb0
 603 209 l 1
 651 148 l 1
 633 60 l 1
 558 0 l 1
 331 0 l 1
 256 95 l 1
 141 0 l 1x70
 71 90 l 1
 135 389 l 1
 243 478 l 1
 620 478 l 1
 728 568 l 1
 762 527 l 1
 633 419 l 1
 257 419 l 1
 189 364 l 1
 136 115 l 1
 159 85 l 1
 274 179 l 1
 369 61 l 1
 424 61 l 1
 442 148 l 1
 517 209 l 1xb0
585 83 m 1
 593 126 l 1
 570 158 l 1
 527 158 l 1
 488 126 l 1
 480 83 l 1
 505 53 l 1
 548 53 l 1
 585 83 l 1
EndSplineSet
Validated: 1
EndChar

StartChar: uni0E59
Encoding: 3673 3673 295
Width: 727
VWidth: 1661
Flags: W
HStem: 0 51<267 311> 156 53<289 332> 417 60<257 316 557 623>
LayerCount: 2
Fore
SplineSet
257 417 m 1
 191 364 l 1
 138 113 l 1
 181 60 l 1
 186 60 l 1
 204 148 l 1
 279 209 l 1
 365 209 l 1
 414 148 l 1
 395 60 l 1
 321 0 l 1
 143 0 l 1
 73 90 l 1
 136 387 l 1
 244 477 l 1
 342 477 l 1
 420 375 l 1
 543 477 l 1
 623 477 l 1
 733 566 l 1
 764 525 l 1
 636 417 l 1
 557 417 l 1
 455 334 l 1
 689 37 l 1
 645 0 l 1
 316 417 l 1
 257 417 l 1
253 126 m 1
 244 83 l 1
 267 51 l 1
 311 51 l 1
 349 83 l 1
 357 126 l 1
 332 156 l 1
 289 156 l 1
 253 126 l 1
EndSplineSet
Validated: 1
EndChar

StartChar: uni0E5A
Encoding: 3674 3674 296
Width: 742
VWidth: 1661
Flags: W
HStem: 0 21G<389 453.206 598 662.207> 447 60<344 380 555 590> 447 53<218 261> 605 51<241 284>
LayerCount: 2
Fore
SplineSet
736 656 m 1xd0
 796 656 l 1
 658 0 l 1
 598 0 l 1
 711 537 l 1
 603 447 l 1
 543 447 l 1
 449 0 l 1
 389 0 l 1
 502 537 l 1
 394 447 l 1
 186 447 l 1xb0
 138 508 l 1
 156 595 l 1
 229 656 l 1
 316 656 l 1
 365 595 l 1
 347 508 l 1
 344 507 l 1
 380 507 l 1
 520 621 l 1
 527 656 l 1
 586 656 l 1
 555 507 l 1
 590 507 l 1
 729 621 l 1
 736 656 l 1xd0
218 500 m 1
 261 500 l 1
 299 530 l 1
 309 573 l 1
 284 605 l 1
 241 605 l 1
 204 573 l 1
 194 530 l 1
 218 500 l 1
EndSplineSet
Validated: 1
EndChar

StartChar: uni0E5B
Encoding: 3675 3675 297
Width: 1225
VWidth: 1661
Flags: W
HStem: 90 60<178 427> 209 52<306 349> 351 14<1145.1 1199> 365 54<327 370> 478 60<249 365>
LayerCount: 2
Fore
SplineSet
1203 365 m 1
 1199 351 l 1
 1045 331 l 1
 1022 359 l 1
 924 276 l 1
 857 359 l 1
 758 276 l 1
 693 359 l 1
 593 276 l 1
 575 299 l 1
 548 179 l 1
 440 90 l 1
 141 90 l 1
 70 179 l 1
 128 449 l 1
 236 538 l 1
 400 538 l 1
 472 449 l 1
 434 271 l 1
 359 209 l 1
 272 209 l 1
 224 271 l 1
 243 357 l 1
 317 419 l 1
 404 419 l 1
 405 417 l 1
 407 424 l 1
 365 478 l 1
 249 478 l 1
 183 424 l 1
 135 203 l 1
 178 150 l 1
 427 150 l 1
 493 204 l 1
 543 434 l 1
 608 351 l 1
 709 434 l 1
 772 351 l 1
 874 434 l 1
 939 351 l 1
 1038 434 l 1
 1083 377 l 1
 1203 365 l 1
387 292 m 1
 395 336 l 1
 370 365 l 1
 327 365 l 1
 291 336 l 1
 282 292 l 1
 306 261 l 1
 349 261 l 1
 387 292 l 1
EndSplineSet
Validated: 1
EndChar

StartChar: zerowidthnonjoiner
Encoding: 8204 8204 298
Width: 0
VWidth: 1661
Flags: W
LayerCount: 2
Back
SplineSet
-79 -512 m 1
 -137 -512 l 1
 57 399 l 1
 115 399 l 1
 -79 -512 l 1
EndSplineSet
EndChar

StartChar: zerowidthjoiner
Encoding: 8205 8205 299
Width: 0
VWidth: 1661
Flags: W
LayerCount: 2
Back
SplineSet
-79 -512 m 1
 -137 -512 l 1
 25 249 l 1
 -16 214 l 1
 -39 243 l 1
 37 306 l 1
 -12 370 l 1
 24 399 l 1
 71 336 l 1
 148 399 l 1
 172 370 l 1
 95 306 l 1
 145 243 l 1
 108 214 l 1
 83 249 l 1
 -79 -512 l 1
EndSplineSet
EndChar

StartChar: lefttorightmark
Encoding: 8206 8206 300
Width: 0
VWidth: 1661
Flags: W
LayerCount: 2
Back
SplineSet
-79 -512 m 1
 -137 -512 l 1
 44 339 l 1
 266 339 l 1
 244 369 l 1
 277 397 l 1
 347 309 l 1
 240 221 l 1
 219 251 l 1
 253 279 l 1
 89 279 l 1
 -79 -512 l 1
EndSplineSet
EndChar

StartChar: righttoleftmark
Encoding: 8207 8207 301
Width: 0
VWidth: 1661
Flags: W
LayerCount: 2
Back
SplineSet
-79 -512 m 1
 -137 -512 l 1
 31 279 l 1
 -134 279 l 1
 -111 251 l 1
 -144 221 l 1
 -213 309 l 1
 -107 397 l 1
 -86 369 l 1
 -121 339 l 1
 102 339 l 1
 -79 -512 l 1
EndSplineSet
EndChar

StartChar: endash
Encoding: 8211 8211 302
Width: 556
VWidth: 1661
Flags: W
HStem: 329 60<66 472>
LayerCount: 2
Fore
SplineSet
472 329 m 1
 55 329 l 1
 66 389 l 1
 483 389 l 1
 472 329 l 1
EndSplineSet
Validated: 1
EndChar

StartChar: emdash
Encoding: 8212 8212 303
Width: 852
VWidth: 1661
Flags: W
HStem: 329 60<63 767>
LayerCount: 2
Fore
SplineSet
779 389 m 1
 767 329 l 1
 51 329 l 1
 63 389 l 1
 779 389 l 1
EndSplineSet
Validated: 1
EndChar

StartChar: quoteleft
Encoding: 8216 8216 304
Width: 252
VWidth: 1661
Flags: W
HStem: 538 210
VStem: 169 157
LayerCount: 2
Fore
SplineSet
169 573 m 1
 181 630 l 1
 296 748 l 1
 326 748 l 1
 261 658 l 1
 269 658 l 1
 299 623 l 1
 289 573 l 1
 244 538 l 1
 196 538 l 1
 169 573 l 1
EndSplineSet
Validated: 1
EndChar

StartChar: quoteright
Encoding: 8217 8217 305
Width: 252
VWidth: 1661
Flags: W
HStem: 538 210
VStem: 163 156
LayerCount: 2
Fore
SplineSet
319 713 m 1
 307 658 l 1
 193 538 l 1
 163 538 l 1
 228 628 l 1
 218 628 l 1
 189 663 l 1
 199 713 l 1
 243 748 l 1
 292 748 l 1
 319 713 l 1
EndSplineSet
Validated: 1
EndChar

StartChar: quotesinglbase
Encoding: 8218 8218 306
Width: 250
VWidth: 1661
Flags: W
HStem: -90 210
VStem: 48 156
LayerCount: 2
Fore
SplineSet
204 83 m 1
 193 28 l 1
 78 -90 l 1
 48 -90 l 1
 113 0 l 1
 103 0 l 1
 75 35 l 1
 85 83 l 1
 128 120 l 1
 178 120 l 1
 204 83 l 1
EndSplineSet
Validated: 1
EndChar

StartChar: quotedblleft
Encoding: 8220 8220 307
Width: 430
VWidth: 1661
Flags: W
HStem: 537 209
LayerCount: 2
Fore
SplineSet
262 656 m 1
 271 656 l 1
 301 621 l 1
 291 573 l 1
 246 537 l 1
 198 537 l 1
 171 573 l 1
 183 628 l 1
 297 746 l 1
 327 746 l 1
 262 656 l 1
450 656 m 1
 478 621 l 1
 468 573 l 1
 425 537 l 1
 377 537 l 1
 349 573 l 1
 360 628 l 1
 475 746 l 1
 505 746 l 1
 440 656 l 1
 450 656 l 1
EndSplineSet
Validated: 1
EndChar

StartChar: quotedblright
Encoding: 8221 8221 308
Width: 430
VWidth: 1661
Flags: W
HStem: 538 210
LayerCount: 2
Fore
SplineSet
472 748 m 1
 498 713 l 1
 487 656 l 1
 372 538 l 1
 342 538 l 1
 407 628 l 1
 397 628 l 1
 369 663 l 1
 379 713 l 1
 422 748 l 1
 472 748 l 1
243 748 m 1
 292 748 l 1
 319 713 l 1
 307 656 l 1
 193 538 l 1
 163 538 l 1
 228 628 l 1
 218 628 l 1
 189 663 l 1
 199 713 l 1
 243 748 l 1
EndSplineSet
Validated: 1
EndChar

StartChar: quotedblbase
Encoding: 8222 8222 309
Width: 431
VWidth: 1661
Flags: W
HStem: -90 210
LayerCount: 2
Fore
SplineSet
128 120 m 1
 178 120 l 1
 204 83 l 1
 193 28 l 1
 78 -90 l 1
 48 -90 l 1
 113 0 l 1
 103 0 l 1
 75 35 l 1
 85 83 l 1
 128 120 l 1
357 120 m 1
 384 83 l 1
 372 28 l 1
 257 -90 l 1
 228 -90 l 1
 292 0 l 1
 282 0 l 1
 254 35 l 1
 264 83 l 1
 307 120 l 1
 357 120 l 1
EndSplineSet
Validated: 1
EndChar

StartChar: dagger
Encoding: 8224 8224 310
Width: 528
VWidth: 1661
Flags: W
HStem: -209 21G<176 240.249> 417 60<158 309 382 533> 636 20G<355.754 420>
LayerCount: 2
Fore
SplineSet
382 477 m 1
 547 477 l 1
 533 417 l 1
 369 417 l 1
 236 -209 l 1
 176 -209 l 1
 309 417 l 1
 145 417 l 1
 158 477 l 1
 322 477 l 1
 360 656 l 1
 420 656 l 1
 382 477 l 1
EndSplineSet
Validated: 1
EndChar

StartChar: daggerdbl
Encoding: 8225 8225 311
Width: 528
VWidth: 1661
Flags: W
HStem: -209 21G<174 238.289> 178 60<105 257 329 480> 417 60<156 307 380 530> 636 20G<354.754 419>
LayerCount: 2
Fore
SplineSet
530 417 m 1
 367 417 l 1
 329 238 l 1
 492 238 l 1
 480 178 l 1
 317 178 l 1
 234 -209 l 1
 174 -209 l 1
 257 178 l 1
 93 178 l 1
 105 238 l 1
 269 238 l 1
 307 417 l 1
 143 417 l 1
 156 477 l 1
 321 477 l 1
 359 656 l 1
 419 656 l 1
 380 477 l 1
 543 477 l 1
 530 417 l 1
EndSplineSet
Validated: 1
EndChar

StartChar: bullet
Encoding: 8226 8226 312
Width: 373
VWidth: 1661
Flags: W
HStem: 239 239<173 221>
VStem: 66 261
LayerCount: 2
Fore
SplineSet
327 407 m 1
 306 309 l 1
 221 239 l 1
 121 239 l 1
 66 309 l 1
 88 407 l 1
 173 478 l 1
 272 478 l 1
 327 407 l 1
EndSplineSet
Validated: 1
EndChar

StartChar: ellipsis
Encoding: 8230 8230 313
Width: 789
VWidth: 1661
Flags: W
HStem: 0 120<108 133 377 402 646 671>
LayerCount: 2
Fore
SplineSet
108 120 m 1
 158 120 l 1
 184 83 l 1
 174 35 l 1
 133 0 l 1
 83 0 l 1
 55 35 l 1
 65 83 l 1
 108 120 l 1
377 120 m 1
 427 120 l 1
 454 83 l 1
 444 35 l 1
 402 0 l 1
 352 0 l 1
 324 35 l 1
 334 83 l 1
 377 120 l 1
696 120 m 1
 723 83 l 1
 713 35 l 1
 671 0 l 1
 621 0 l 1
 593 35 l 1
 603 83 l 1
 646 120 l 1
 696 120 l 1
EndSplineSet
Validated: 1
EndChar

StartChar: perthousand
Encoding: 8240 8240 314
Width: 976
VWidth: 1661
Flags: W
HStem: 0 21G<75 158.682> 60 53<450 523 749 822> 277 52<485 558 784 857> 389 53<221 294> 606 52<256 329>
LayerCount: 2
Fore
SplineSet
304 389 m 1
 188 389 l 1
 140 450 l 1
 171 596 l 1
 246 658 l 1
 362 658 l 1
 410 596 l 1
 379 450 l 1
 304 389 l 1
219 575 m 1
 198 472 l 1
 221 442 l 1
 294 442 l 1
 332 472 l 1
 354 575 l 1
 329 606 l 1
 256 606 l 1
 219 575 l 1
475 329 m 1
 591 329 l 1
 640 267 l 1
 608 121 l 1
 533 60 l 1
 417 60 l 1
 369 121 l 1
 400 267 l 1
 475 329 l 1
561 143 m 1
 583 246 l 1
 558 277 l 1
 485 277 l 1
 449 246 l 1
 427 143 l 1
 450 113 l 1
 523 113 l 1
 561 143 l 1
890 329 m 1
 939 267 l 1
 907 121 l 1
 832 60 l 1
 716 60 l 1
 668 121 l 1
 699 267 l 1
 774 329 l 1
 890 329 l 1
859 143 m 1
 880 246 l 1
 857 277 l 1
 784 277 l 1
 746 246 l 1
 724 143 l 1
 749 113 l 1
 822 113 l 1
 859 143 l 1
638 718 m 1
 706 718 l 1
 143 0 l 1
 75 0 l 1
 638 718 l 1
EndSplineSet
Validated: 1
EndChar

StartChar: minute
Encoding: 8242 8242 315
Width: 229
VWidth: 1661
Flags: W
HStem: 565 149
VStem: 176 121
LayerCount: 2
Fore
SplineSet
176 565 m 1
 238 714 l 1
 297 714 l 1
 206 565 l 1
 176 565 l 1
EndSplineSet
Validated: 1
EndChar

StartChar: second
Encoding: 8243 8243 316
Width: 320
VWidth: 1661
Flags: W
HStem: 566 150
VStem: 176 211
LayerCount: 2
Fore
SplineSet
176 566 m 1
 238 716 l 1
 297 716 l 1
 206 566 l 1
 176 566 l 1
327 716 m 1
 387 716 l 1
 296 566 l 1
 266 566 l 1
 327 716 l 1
EndSplineSet
Validated: 1
EndChar

StartChar: guilsinglleft
Encoding: 8249 8249 317
Width: 317
VWidth: 1661
Flags: W
VStem: 90 226
LayerCount: 2
Fore
SplineSet
299 389 m 1
 156 279 l 1
 154 271 l 1
 251 161 l 1
 234 81 l 1
 90 246 l 1
 101 306 l 1
 316 468 l 1
 299 389 l 1
EndSplineSet
Validated: 1
EndChar

StartChar: guilsinglright
Encoding: 8250 8250 318
Width: 317
VWidth: 1661
Flags: W
VStem: 55 226
LayerCount: 2
Fore
SplineSet
136 468 m 1
 281 304 l 1
 269 244 l 1
 55 81 l 1
 71 161 l 1
 214 271 l 1
 216 277 l 1
 120 389 l 1
 136 468 l 1
EndSplineSet
Validated: 1
EndChar

StartChar: fraction
Encoding: 8260 8260 319
Width: 616
VWidth: 1661
Flags: W
HStem: 0 21G<51 133.726> 696 20G<595.358 681>
LayerCount: 2
Fore
SplineSet
611 716 m 1
 681 716 l 1
 118 0 l 1
 51 0 l 1
 611 716 l 1
EndSplineSet
Validated: 1
EndChar

StartChar: Euro
Encoding: 8364 8364 320
Width: 735
VWidth: 1661
Flags: W
HStem: 0 60<239 548> 238 59<116 163 236 552> 417 60<154 201 274 590> 656 60<367 676>
LayerCount: 2
Fore
SplineSet
771 566 m 1
 711 566 l 1
 719 601 l 1
 676 656 l 1
 367 656 l 1
 301 601 l 1
 274 477 l 1
 603 477 l 1
 590 417 l 1
 261 417 l 1
 236 297 l 1
 565 297 l 1
 552 238 l 1
 223 238 l 1
 196 113 l 1
 239 60 l 1
 548 60 l 1
 615 113 l 1
 623 148 l 1
 683 148 l 1
 669 90 l 1
 561 0 l 1
 203 0 l 1
 131 88 l 1
 163 238 l 1
 103 238 l 1
 116 297 l 1
 176 297 l 1
 201 417 l 1
 141 417 l 1
 154 477 l 1
 214 477 l 1
 246 626 l 1
 354 716 l 1
 713 716 l 1
 784 626 l 1
 771 566 l 1
EndSplineSet
Validated: 1
EndChar

StartChar: uni2113
Encoding: 8467 8467 321
Width: 408
VWidth: 1661
Flags: W
HStem: 0 60<241 324>
VStem: 96 331
LayerCount: 2
Fore
SplineSet
241 60 m 1
 336 60 l 1
 324 0 l 1
 204 0 l 1
 133 90 l 1
 164 239 l 1
 131 211 l 1
 96 253 l 1
 183 324 l 1
 266 718 l 1
 355 718 l 1
 427 628 l 1
 382 419 l 1
 238 299 l 1
 198 115 l 1
 241 60 l 1
314 658 m 1
 256 384 l 1
 327 444 l 1
 362 603 l 1
 319 658 l 1
 314 658 l 1
EndSplineSet
Validated: 1
EndChar

StartChar: trademark
Encoding: 8482 8482 322
Width: 913
VWidth: 1661
Flags: W
HStem: 664 52<148 256 307 427>
VStem: 179 52<306 402.922> 507 53<700 716> 777 52<306 402.875>
LayerCount: 2
Fore
SplineSet
917 716 m 1
 917 715 915 704 910 684 c 2
 836 338 l 2
 831 317 829 307 829 306 c 1
 777 306 l 1
 777 308 780 323 786 352 c 2
 807 449 l 2
 816 490 826 536 836 588 c 1
 710 395 l 2
 689 363 674 346 651 306 c 1
 596 306 l 1
 596 306 547 515 532 591 c 1
 502 450 l 2
 494 406 470 317 470 306 c 1
 419 306 l 1
 500 684 l 2
 505 704 507 715 507 716 c 1
 560 716 l 1
 563 700 l 2
 566 684 591 574 600 543 c 2
 640 372 l 1
 853 700 l 2
 859 709 863 715 864 716 c 1
 917 716 l 1
136 664 m 1
 136 672 148 706 148 716 c 1
 439 716 l 1
 439 708 427 679 427 664 c 1
 307 664 l 1
 234 323 l 2
 232 312 231 307 231 306 c 1
 179 306 l 1
 179 316 191 354 204 422 c 2
 256 664 l 1
 136 664 l 1
EndSplineSet
Validated: 1
EndChar

StartChar: Ohm
Encoding: 8486 8486 323
Width: 707
VWidth: 1661
Flags: W
HStem: 0 60<68 216 485 621> 598 60<326 605>
LayerCount: 2
Fore
SplineSet
485 60 m 1
 635 60 l 1
 621 0 l 1
 412 0 l 1
 444 145 l 1
 588 264 l 1
 648 543 l 1
 605 598 l 1
 326 598 l 1
 259 543 l 1
 199 264 l 1
 294 145 l 1
 262 0 l 1
 55 0 l 1
 68 60 l 1
 216 60 l 1
 229 120 l 1
 135 239 l 1
 204 568 l 1
 314 658 l 1
 643 658 l 1
 713 568 l 1
 643 239 l 1
 498 120 l 1
 485 60 l 1
EndSplineSet
Validated: 1
EndChar

StartChar: estimated
Encoding: 8494 8494 324
Width: 377
VWidth: 1661
Flags: W
HStem: 0 21G<125.889 225.444> 269 60<181 301>
VStem: 73 319
LayerCount: 2
Fore
SplineSet
349 269 m 1
 169 269 l 1
 136 115 l 1
 179 60 l 1
 189 60 l 1
 256 115 l 1
 262 150 l 1
 322 150 l 1
 311 90 l 1
 201 0 l 1
 141 0 l 1
 73 90 l 1
 153 478 l 1
 262 568 l 1
 324 568 l 1
 392 478 l 1
 349 269 l 1
181 329 m 1
 301 329 l 1
 327 454 l 1
 286 508 l 1
 274 508 l 1
 208 454 l 1
 181 329 l 1
EndSplineSet
Validated: 1
EndChar

StartChar: partialdiff
Encoding: 8706 8706 325
Width: 375
VWidth: 1661
Flags: W
HStem: 0 21G<125.444 225.444> 299 60<229 294>
VStem: 71 321
LayerCount: 2
Fore
SplineSet
392 478 m 1
 311 90 l 1
 201 0 l 1
 141 0 l 1
 71 90 l 1
 110 269 l 1
 218 359 l 1
 307 359 l 1
 327 454 l 1
 284 508 l 1
 274 508 l 1
 208 454 l 1
 201 419 l 1
 141 419 l 1
 153 478 l 1
 262 568 l 1
 322 568 l 1
 392 478 l 1
189 60 m 1
 256 115 l 1
 294 299 l 1
 229 299 l 1
 163 244 l 1
 136 115 l 1
 179 60 l 1
 189 60 l 1
EndSplineSet
Validated: 1
EndChar

StartChar: Delta
Encoding: 8710 8710 326
Width: 701
VWidth: 1661
Flags: W
HStem: 0 60<128 561> 478 60<425 442>
LayerCount: 2
Fore
SplineSet
492 538 m 1
 630 60 l 1
 616 0 l 1
 50 0 l 1
 61 60 l 1
 402 538 l 1
 492 538 l 1
128 60 m 1
 561 60 l 1
 442 478 l 1
 425 478 l 1
 128 60 l 1
EndSplineSet
Validated: 1
EndChar

StartChar: product
Encoding: 8719 8719 327
Width: 647
VWidth: 1661
Flags: W
HStem: -209 21G<13 75.2676 460 524.272> 658 60<256 645>
LayerCount: 2
Fore
SplineSet
71 -209 m 1
 13 -209 l 1
 209 718 l 1
 718 718 l 1
 520 -209 l 1
 460 -209 l 1
 645 658 l 1
 256 658 l 1
 71 -209 l 1
EndSplineSet
Validated: 1
EndChar

StartChar: summation
Encoding: 8721 8721 328
Width: 616
VWidth: 1661
Flags: W
HStem: 0 60<125 532> 658 60<253 671>
LayerCount: 2
Fore
SplineSet
671 658 m 1
 253 658 l 1
 238 591 l 1
 410 359 l 1
 140 126 l 1
 125 60 l 1
 543 60 l 1
 532 0 l 1
 55 0 l 1
 85 150 l 1
 327 359 l 1
 173 568 l 1
 204 718 l 1
 683 718 l 1
 671 658 l 1
EndSplineSet
Validated: 1
EndChar

StartChar: minus
Encoding: 8722 8722 329
Width: 672
VWidth: 1661
Flags: W
HStem: 326 59<63 588>
LayerCount: 2
Fore
SplineSet
588 326 m 1
 51 326 l 1
 63 385 l 1
 600 385 l 1
 588 326 l 1
EndSplineSet
Validated: 1
EndChar

StartChar: radical
Encoding: 8730 8730 330
Width: 651
VWidth: 1661
Flags: W
HStem: 0 21G<232.653 308.727> 239 60<120 196>
LayerCount: 2
Fore
SplineSet
655 718 m 1
 718 718 l 1
 297 0 l 1
 236 0 l 1
 196 239 l 1
 106 239 l 1
 120 299 l 1
 251 299 l 1
 284 90 l 1
 655 718 l 1
EndSplineSet
Validated: 1
EndChar

StartChar: infinity
Encoding: 8734 8734 331
Width: 913
VWidth: 1661
Flags: W
HStem: 163 60<223 304 600 681> 492 60<281 362 658 741>
LayerCount: 2
Fore
SplineSet
776 552 m 1
 882 417 l 1
 857 297 l 1
 694 163 l 1
 560 163 l 1
 472 311 l 1
 321 163 l 1
 186 163 l 1
 80 297 l 1
 105 417 l 1
 267 552 l 1
 402 552 l 1
 492 405 l 1
 641 552 l 1
 776 552 l 1
304 223 m 1
 444 357 l 1
 362 492 l 1
 281 492 l 1
 159 392 l 1
 145 322 l 1
 223 223 l 1
 304 223 l 1
802 322 m 1
 817 394 l 1
 741 492 l 1
 658 492 l 1
 520 357 l 1
 600 223 l 1
 681 223 l 1
 802 322 l 1
EndSplineSet
Validated: 1
EndChar

StartChar: integral
Encoding: 8747 8747 332
Width: 559
VWidth: 1661
Flags: W
HStem: 0 60<13 103> 658 60<527 618>
LayerCount: 2
Fore
SplineSet
527 658 m 1
 450 603 l 1
 231 90 l 1
 103 0 l 1
 2 0 l 1
 13 60 l 1
 103 60 l 1
 181 115 l 1
 400 628 l 1
 527 718 l 1
 630 718 l 1
 618 658 l 1
 527 658 l 1
EndSplineSet
Validated: 1
EndChar

StartChar: approxequal
Encoding: 8776 8776 333
Width: 661
VWidth: 1661
Flags: W
HStem: 206 299
LayerCount: 2
Fore
SplineSet
115 379 m 1
 96 430 l 1
 243 505 l 1
 488 435 l 1
 610 498 l 1
 628 447 l 1
 482 370 l 1
 236 440 l 1
 115 379 l 1
575 334 m 1
 593 281 l 1
 447 206 l 1
 201 276 l 1
 80 213 l 1
 61 264 l 1
 208 341 l 1
 454 271 l 1
 575 334 l 1
EndSplineSet
Validated: 1
EndChar

StartChar: notequal
Encoding: 8800 8800 334
Width: 495
VWidth: 1661
Flags: W
HStem: 0 21G<128 196.492> 179 60<105 204 289 450> 374 60<146 287 372 492>
LayerCount: 2
Fore
SplineSet
492 374 m 1
 347 374 l 1
 289 239 l 1
 463 239 l 1
 450 179 l 1
 264 179 l 1
 188 0 l 1
 128 0 l 1
 204 179 l 1
 91 179 l 1
 105 239 l 1
 229 239 l 1
 287 374 l 1
 133 374 l 1
 146 434 l 1
 312 434 l 1
 382 598 l 1
 442 598 l 1
 372 434 l 1
 505 434 l 1
 492 374 l 1
EndSplineSet
Validated: 1
EndChar

StartChar: lessequal
Encoding: 8804 8804 335
Width: 672
VWidth: 1661
Flags: W
HStem: 0 60<63 586>
LayerCount: 2
Fore
SplineSet
63 60 m 1
 600 60 l 1
 586 0 l 1
 50 0 l 1
 63 60 l 1
184 360 m 1
 184 355 l 1
 626 183 l 1
 613 120 l 1
 115 314 l 1
 135 404 l 1
 714 598 l 1
 699 533 l 1
 184 360 l 1
EndSplineSet
Validated: 1
EndChar

StartChar: greaterequal
Encoding: 8805 8805 336
Width: 672
VWidth: 1661
Flags: W
HStem: 0 60<63 586>
LayerCount: 2
Fore
SplineSet
63 60 m 1
 600 60 l 1
 586 0 l 1
 50 0 l 1
 63 60 l 1
673 404 m 1
 653 314 l 1
 75 120 l 1
 88 183 l 1
 603 355 l 1
 603 360 l 1
 161 533 l 1
 176 598 l 1
 673 404 l 1
EndSplineSet
Validated: 1
EndChar

StartChar: lozenge
Encoding: 9674 9674 337
Width: 566
VWidth: 1661
Flags: W
HStem: 0 60<266 282> 628 60<387 404>
LayerCount: 2
Fore
SplineSet
452 688 m 1
 552 344 l 1
 307 0 l 1
 218 0 l 1
 120 344 l 1
 362 688 l 1
 452 688 l 1
282 60 m 1
 485 344 l 1
 404 628 l 1
 387 628 l 1
 186 344 l 1
 266 60 l 1
 282 60 l 1
EndSplineSet
Validated: 1
EndChar

StartChar: dottedcircle
Encoding: 9676 9676 338
Width: 850
VWidth: 1661
Flags: W
HStem: 0 21G<367.429 457.429>
LayerCount: 2
Fore
SplineSet
535 718 m 1
 585 718 l 1
 613 683 l 1
 603 633 l 1
 560 598 l 1
 510 598 l 1
 483 633 l 1
 493 683 l 1
 535 718 l 1
409 120 m 1
 458 120 l 1
 485 85 l 1
 475 35 l 1
 434 0 l 1
 384 0 l 1
 355 35 l 1
 365 85 l 1
 409 120 l 1
251 384 m 1
 239 334 l 1
 198 299 l 1
 148 299 l 1
 120 334 l 1
 131 384 l 1
 173 419 l 1
 223 419 l 1
 251 384 l 1
821 419 m 1
 849 384 l 1
 837 334 l 1
 796 299 l 1
 746 299 l 1
 718 334 l 1
 729 384 l 1
 771 419 l 1
 821 419 l 1
266 208 m 1
 294 173 l 1
 282 123 l 1
 241 88 l 1
 191 88 l 1
 163 123 l 1
 174 173 l 1
 216 208 l 1
 266 208 l 1
703 510 m 1
 674 545 l 1
 686 595 l 1
 728 630 l 1
 777 630 l 1
 806 595 l 1
 794 545 l 1
 753 510 l 1
 703 510 l 1
638 208 m 1
 688 208 l 1
 716 173 l 1
 704 123 l 1
 663 88 l 1
 613 88 l 1
 585 123 l 1
 596 173 l 1
 638 208 l 1
306 630 m 1
 355 630 l 1
 384 595 l 1
 372 545 l 1
 331 510 l 1
 281 510 l 1
 253 545 l 1
 264 595 l 1
 306 630 l 1
EndSplineSet
Validated: 1
EndChar

StartChar: uni0E10.alt1
Encoding: 63232 63232 339
Width: 616
VWidth: 1661
Flags: W
HStem: 0 21G<470 534.276> 179 54<304 347> 337 52<327 369> 598 60<294 658>
LayerCount: 2
Fore
SplineSet
658 598 m 1
 294 598 l 1
 233 547 l 1
 626 449 l 1
 530 0 l 1
 470 0 l 1
 505 164 l 1
 435 254 l 1
 432 241 l 1
 359 179 l 1
 271 179 l 1
 223 241 l 1
 241 327 l 1
 316 389 l 1
 402 389 l 1
 522 238 l 1
 558 410 l 1
 161 508 l 1
 173 568 l 1
 282 658 l 1
 671 658 l 1
 658 598 l 1
385 262 m 1
 394 306 l 1
 369 337 l 1
 327 337 l 1
 289 306 l 1
 281 262 l 1
 304 233 l 1
 347 233 l 1
 385 262 l 1
EndSplineSet
Validated: 1
EndChar

StartChar: uni0E48.alt2
Encoding: 63242 63242 349
Width: 0
VWidth: 1661
Flags: W
HStem: 756 237<73 75>
VStem: 23 103
LayerCount: 2
Fore
SplineSet
23 756 m 1
 23 756 73 989 73 993 c 1
 126 993 l 1
 77 761 75 759 75 756 c 1
 23 756 l 1
EndSplineSet
Validated: 1
Substitution2: "Single Substitution lookup 20 subtable" uni0E48.alt3
Substitution2: "Single Substitution lookup 21 subtable" uni0E48
Substitution2: "Single Substitution lookup 22 subtable" uni0E48.alt1
Substitution2: "Single Substitution lookup 20 subtable" uni0E48.alt3
Substitution2: "Single Substitution lookup 21 subtable" uni0E48
Substitution2: "Single Substitution lookup 22 subtable" uni0E48.alt1
EndChar

StartChar: uni0E49.alt2
Encoding: 63243 63243 350
Width: 0
VWidth: 1661
Flags: W
HStem: 756 51<-126 -73.0123 -18 63> 942 51<-25 3>
LayerCount: 2
Fore
SplineSet
-91 807 m 1
 -90 808 -73 822 -73 822 c 1
 -113 872 l 1
 -96 944 l 1
 -37 993 l 1
 35 993 l 1
 75 945 l 1
 58 872 l 1
 -18 807 l 1
 63 807 l 1
 257 967 l 1
 264 960 279 937 286 930 c 1
 285 929 279 925 268 916 c 2
 73 756 l 1
 -136 756 l 1
 -126 807 l 1
 -91 807 l 1
-55 894 m 1
 -40 874 l 1
 -12 874 l 1
 13 894 l 1
 18 922 l 1
 3 942 l 1
 -25 942 l 1
 -50 922 l 1
 -55 894 l 1
EndSplineSet
Validated: 1
Substitution2: "Single Substitution lookup 20 subtable" uni0E49.alt3
Substitution2: "Single Substitution lookup 21 subtable" uni0E49
Substitution2: "Single Substitution lookup 22 subtable" uni0E49.alt1
Substitution2: "Single Substitution lookup 20 subtable" uni0E49.alt3
Substitution2: "Single Substitution lookup 21 subtable" uni0E49
Substitution2: "Single Substitution lookup 22 subtable" uni0E49.alt1
EndChar

StartChar: uni0E4A.alt2
Encoding: 63244 63244 351
Width: 0
VWidth: 1661
Flags: W
HStem: 794 50<-55 -15> 912 53<-40 -12>
LayerCount: 2
Fore
SplineSet
311 934 m 1
 93 754 l 1
 63 791 l 1
 135 849 l 1
 103 890 l 1
 -15 794 l 1
 -88 794 l 1
 -126 841 l 1
 -111 915 l 1
 -53 965 l 1
 20 965 l 1
 60 915 l 1
 118 963 l 1
 179 887 l 1
 281 972 l 1
 311 934 l 1
-27 844 m 1
 -23 848 -6 862 -3 864 c 1
 3 892 l 1
 -12 912 l 1
 -40 912 l 1
 -65 892 l 1
 -71 864 l 1
 -55 844 l 1
 -27 844 l 1
EndSplineSet
Validated: 1
Substitution2: "Single Substitution lookup 20 subtable" uni0E4A.alt3
Substitution2: "Single Substitution lookup 21 subtable" uni0E4A
Substitution2: "Single Substitution lookup 22 subtable" uni0E4A.alt1
Substitution2: "Single Substitution lookup 20 subtable" uni0E4A.alt3
Substitution2: "Single Substitution lookup 21 subtable" uni0E4A
Substitution2: "Single Substitution lookup 22 subtable" uni0E4A.alt1
EndChar

StartChar: uni0E4B.alt2
Encoding: 63245 63245 352
Width: 0
VWidth: 1661
Flags: W
HStem: 849 53<-38 43 106 189>
VStem: -50 251
LayerCount: 2
Fore
SplineSet
201 902 m 1
 189 849 l 1
 96 849 l 1
 76 756 l 1
 23 756 l 1
 43 849 l 1
 -50 849 l 1
 -38 902 l 1
 55 902 l 1
 75 995 l 1
 126 995 l 1
 106 902 l 1
 201 902 l 1
EndSplineSet
Validated: 1
Substitution2: "Single Substitution lookup 20 subtable" uni0E4B.alt3
Substitution2: "Single Substitution lookup 21 subtable" uni0E4B
Substitution2: "Single Substitution lookup 22 subtable" uni0E4B.alt1
Substitution2: "Single Substitution lookup 20 subtable" uni0E4B.alt3
Substitution2: "Single Substitution lookup 21 subtable" uni0E4B
Substitution2: "Single Substitution lookup 22 subtable" uni0E4B.alt1
EndChar

StartChar: uni0E4C.alt2
Encoding: 63246 63246 353
Width: 0
VWidth: 1661
Flags: W
HStem: 756 51<-18 12>
VStem: -93 291
LayerCount: 2
Fore
SplineSet
86 807 m 1
 23 756 l 1
 -51 756 l 1
 -93 807 l 1
 -76 882 l 1
 168 1085 l 1
 198 1048 l 1
 60 935 l 1
 101 882 l 1
 86 807 l 1
45 861 m 1
 28 882 l 1
 -3 882 l 1
 -30 861 l 1
 -37 829 l 1
 -18 807 l 1
 12 807 l 1
 38 829 l 1
 45 861 l 1
EndSplineSet
Validated: 1
Substitution2: "Single Substitution lookup 20 subtable" uni0E4C.alt3
Substitution2: "Single Substitution lookup 21 subtable" uni0E4C
Substitution2: "Single Substitution lookup 22 subtable" uni0E4C.alt1
Substitution2: "Single Substitution lookup 20 subtable" uni0E4C.alt3
Substitution2: "Single Substitution lookup 21 subtable" uni0E4C
Substitution2: "Single Substitution lookup 22 subtable" uni0E4C.alt1
EndChar

StartChar: uni0E0D.alt1
Encoding: 63247 63247 354
Width: 945
VWidth: 1661
Flags: W
HStem: 0 60<573 758> 0 51<176 219> 156 53<199 243> 598 60<294 573>
LayerCount: 2
Fore
SplineSet
940 658 m 1xb0
 1000 658 l 1
 879 90 l 1
 771 0 l 1
 502 0 l 1
 616 543 l 1
 573 598 l 1
 294 598 l 1
 257 568 l 1
 332 472 l 1
 223 382 l 1
 186 208 l 1
 188 209 l 1
 274 209 l 1
 322 148 l 1
 304 61 l 1
 231 0 l 1
 145 0 l 1x70
 95 61 l 1
 169 407 l 1
 248 472 l 1
 173 566 l 1
 173 568 l 1
 282 658 l 1
 611 658 l 1
 681 568 l 1
 573 60 l 1
 758 60 l 1
 824 115 l 1
 940 658 l 1xb0
199 156 m 1
 163 126 l 1
 153 83 l 1
 176 51 l 1
 219 51 l 1
 257 83 l 1
 267 126 l 1
 243 156 l 1
 199 156 l 1
EndSplineSet
Validated: 1
EndChar

StartChar: uni0E0E.alt1
Encoding: 63259 63259 366
Width: 744
VWidth: 1661
Flags: W
HStem: -299 60<214 399> -150 60<233 417> 0 51<125 168> 156 53<148 191> 598 60<392 671>
LayerCount: 2
Fore
SplineSet
779 568 m 1
 595 -299 l 1
 535 -299 l 1
 487 -236 l 1
 410 -299 l 1
 176 -299 l 1
 130 -239 l 1
 148 -150 l 1
 221 -90 l 1
 455 -90 l 1
 553 -214 l 1
 714 543 l 1
 671 598 l 1
 392 598 l 1
 355 568 l 1
 430 473 l 1
 322 384 l 1
 253 61 l 1
 179 0 l 1
 93 0 l 1
 43 61 l 1
 61 148 l 1
 136 209 l 1
 223 209 l 1
 224 208 l 1
 267 407 l 1
 346 473 l 1
 271 568 l 1
 380 658 l 1
 709 658 l 1
 779 568 l 1
216 126 m 1
 191 156 l 1
 148 156 l 1
 111 126 l 1
 101 83 l 1
 125 51 l 1
 168 51 l 1
 206 83 l 1
 216 126 l 1
454 -194 m 1
 417 -150 l 1
 233 -150 l 1
 203 -174 l 1
 194 -214 l 1
 214 -239 l 1
 399 -239 l 1
 454 -194 l 1
EndSplineSet
Validated: 1
EndChar

StartChar: uni0E0F.alt1
Encoding: 63260 63260 367
Width: 742
VWidth: 1661
Flags: W
HStem: -297 59<279 337> -148 58<299 357> 0 53<189 233> 158 51<213 256> 598 60<457 736>
LayerCount: 2
Fore
SplineSet
844 568 m 1
 659 -297 l 1
 598 -297 l 1
 550 -236 l 1
 473 -299 l 1
 425 -236 l 1
 349 -297 l 1
 241 -297 l 1
 194 -238 l 1
 214 -148 l 1
 286 -90 l 1
 394 -90 l 1
 492 -214 l 1
 568 -151 l 1
 618 -214 l 1
 779 543 l 1
 736 598 l 1
 457 598 l 1
 420 568 l 1
 495 473 l 1
 387 384 l 1
 317 61 l 1
 244 0 l 1
 158 0 l 1
 108 61 l 1
 126 148 l 1
 201 209 l 1
 287 209 l 1
 289 208 l 1
 332 409 l 1
 410 473 l 1
 336 568 l 1
 445 658 l 1
 774 658 l 1
 844 568 l 1
279 126 m 1
 256 158 l 1
 213 158 l 1
 174 126 l 1
 164 83 l 1
 189 53 l 1
 233 53 l 1
 269 83 l 1
 279 126 l 1
392 -193 m 1
 357 -148 l 1
 299 -148 l 1
 267 -173 l 1
 259 -213 l 1
 279 -238 l 1
 337 -238 l 1
 392 -193 l 1
EndSplineSet
Validated: 1
EndChar

StartChar: uni0E2C.alt1
Encoding: 63261 63261 368
Width: 742
VWidth: 1661
Flags: W
HStem: 0 21G<181 256.732 592.866 663.259> 449 53<223 266> 478 54<646 689> 606 52<244 287> 636 52<669 713>
LayerCount: 2
Fore
SplineSet
882 689 m 1xa8
 912 653 l 1
 774 540 l 1
 659 0 l 1
 600 0 l 1
 488 314 l 1
 241 0 l 1
 181 0 l 1
 277 450 l 1
 276 449 l 1
 189 449 l 1
 141 510 l 1
 159 596 l 1
 234 658 l 1
 321 658 l 1xd0
 369 596 l 1
 264 106 l 1
 510 419 l 1
 623 106 l 1
 703 480 l 1
 701 478 l 1
 615 478 l 1
 565 540 l 1
 585 626 l 1
 658 688 l 1
 744 688 l 1
 794 626 l 1
 791 613 l 1
 882 689 l 1xa8
266 502 m 1
 302 532 l 1
 312 575 l 1
 287 606 l 1
 244 606 l 1
 208 575 l 1
 198 532 l 1xb0
 223 502 l 1
 266 502 l 1
689 532 m 1
 726 561 l 1
 736 605 l 1
 713 636 l 1
 669 636 l 1xa8
 631 605 l 1
 621 561 l 1
 646 532 l 1
 689 532 l 1
EndSplineSet
Validated: 1
EndChar

StartChar: uni0E24.liga
Encoding: 63617 63617 370
Width: 1033
VWidth: 1661
Flags: W
HStem: 0 51<176 219> 156 53<199 243> 598 60<294 573 743 962>
LayerCount: 2
Fore
SplineSet
1000 658 m 1
 1068 568 l 1
 884 -299 l 1
 824 -299 l 1
 1003 543 l 1
 962 598 l 1
 743 598 l 1
 676 543 l 1
 497 -299 l 1
 437 -299 l 1
 616 543 l 1
 573 598 l 1
 294 598 l 1
 257 566 l 1
 332 472 l 1
 223 382 l 1
 186 208 l 1
 188 209 l 1
 274 209 l 1
 322 148 l 1
 304 61 l 1
 231 0 l 1
 145 0 l 1
 95 61 l 1
 169 407 l 1
 248 472 l 1
 173 568 l 1
 282 658 l 1
 611 658 l 1
 658 598 l 1
 731 658 l 1
 1000 658 l 1
199 156 m 1
 161 126 l 1
 151 83 l 1
 176 51 l 1
 219 51 l 1
 256 83 l 1
 266 126 l 1
 243 156 l 1
 199 156 l 1
EndSplineSet
Validated: 1
Ligature2: "'liga' Standard Ligatures in Latin lookup 19 subtable" uni0E24 uni0E45
EndChar

StartChar: uni0E26.liga
Encoding: 63618 63618 371
Width: 1131
VWidth: 1661
Flags: W
HStem: 0 53<123 168> 158 51<146 191> 598 60<390 671 839 1058>
LayerCount: 2
Fore
SplineSet
1096 658 m 1
 1166 568 l 1
 982 -299 l 1
 922 -299 l 1
 1101 543 l 1
 1058 598 l 1
 839 598 l 1
 772 543 l 1
 593 -299 l 1
 533 -299 l 1
 713 543 l 1
 671 598 l 1
 390 598 l 1
 354 568 l 1
 429 473 l 1
 321 384 l 1
 251 61 l 1
 179 0 l 1
 91 0 l 1
 43 61 l 1
 61 148 l 1
 135 209 l 1
 223 209 l 1
 224 208 l 1
 267 409 l 1
 346 473 l 1
 271 568 l 1
 380 658 l 1
 708 658 l 1
 754 598 l 1
 827 658 l 1
 1096 658 l 1
204 83 m 1
 214 126 l 1
 191 158 l 1
 146 158 l 1
 110 126 l 1
 100 83 l 1
 123 53 l 1
 168 53 l 1
 204 83 l 1
EndSplineSet
Validated: 1
Ligature2: "'liga' Standard Ligatures in Latin lookup 19 subtable" uni0E26 uni0E45
EndChar

StartChar: fi
Encoding: 64257 64257 372
Width: 406
VWidth: 1661
Flags: W
HStem: 0 21G<53 115.216 261 325.187> 389 60<206 342> 658 60<306 400>
LayerCount: 2
Fore
SplineSet
206 449 m 1
 415 449 l 1
 321 0 l 1
 261 0 l 1
 342 389 l 1
 193 389 l 1
 111 0 l 1
 53 0 l 1
 184 628 l 1
 292 718 l 1
 412 718 l 1
 400 658 l 1
 306 658 l 1
 239 603 l 1
 206 449 l 1
EndSplineSet
Validated: 1
LCarets2: 1 0 
Ligature2: "'liga' Standard Ligatures in Latin lookup 19 subtable" f i
EndChar

StartChar: fl
Encoding: 64258 64258 373
Width: 406
VWidth: 1661
Flags: W
HStem: 0 21G<55 117.165 262 326.206> 389 60<208 284> 658 60<307 401>
LayerCount: 2
Fore
SplineSet
186 628 m 1
 294 718 l 1
 473 718 l 1
 322 0 l 1
 262 0 l 1
 401 658 l 1
 307 658 l 1
 241 603 l 1
 208 449 l 1
 297 449 l 1
 284 389 l 1
 194 389 l 1
 113 0 l 1
 55 0 l 1
 186 628 l 1
EndSplineSet
Validated: 1
LCarets2: 1 0 
Ligature2: "'liga' Standard Ligatures in Latin lookup 19 subtable" f l
EndChar

StartChar: CHAKRA
Encoding: 65541 -1 374
Width: 2352
VWidth: 1661
Flags: W
HStem: 0 17<894 914 1196 1218 1375 1395> 169 55<877 914> 208 16<678 694 753 789 935 972 1002 1038 1121 1143 1292 1304 1483 1500 1558 1595> 253 21<1209 1379> 302 30<158 213 756 811 968 997 1209 1238 1351 1379 1625 1678 1766 1777 2106 2165 2248 2264> 543 30<781 811 897 927> 560 30<158 188 1209 1243> 615 28<71 213 341 370 457 512 640 669 1027 1080 1126 1379 1508 1537 1807 1866 1993 2023> 689 54<213 299> 689 25<299 382>
VStem: 71 87<332 560> 213 86<332 615 714 743> 370 87<302 615> 512 86<302 615> 669 87<332 615> 694 59<0 208> 789 58<0 208> 811 86<332 543 573 643> 877 58<186 208> 914 58<17 169> 997 83<332 560> 1038 55<0 208> 1126 83<332 560> 1143 53<17 208> 1321 133<0 85.6471> 1379 88<332 615 643 701> 1395 59<17 261> 1500 58<0 208> 1537 88<332 615> 1595 58<0 208> 1678 88<291 302 332 643> 1866 83<302 615> 2023 83<332 615> 2165 83<291 302 332 643>
LayerCount: 2
Fore
SplineSet
299 302 m 1x9b3c0003c0
 71 302 l 1
 71 590 l 1
 188 590 l 1
 188 560 l 1
 158 560 l 1
 158 332 l 1
 213 332 l 1
 213 615 l 1
 71 615 l 1
 71 643 l 1
 299 643 l 1
 299 302 l 1x9b3c0003c0
382 714 m 1x997c0003c0
 382 689 l 1x997c0003c0
 213 689 l 1
 213 743 l 1
 299 743 l 1x99bc0003c0
 299 714 l 1
 382 714 l 1x997c0003c0
598 643 m 1
 598 302 l 1
 512 302 l 1
 512 615 l 1
 457 615 l 1
 457 302 l 1
 370 302 l 1
 370 615 l 1
 341 615 l 1
 341 643 l 1
 598 643 l 1
897 543 m 1x9d3e4003c0
 897 302 l 1
 669 302 l 1
 669 615 l 1
 640 615 l 1
 640 643 l 1
 756 643 l 1
 756 332 l 1
 811 332 l 1
 811 543 l 1
 781 543 l 1
 781 573 l 1
 811 573 l 1
 811 643 l 1
 897 643 l 1
 897 573 l 1
 927 573 l 1
 927 543 l 1
 897 543 l 1x9d3e4003c0
1080 302 m 1x9b3c0803c0
 968 302 l 1
 968 332 l 1
 997 332 l 1
 997 560 l 1
 939 560 l 1
 939 643 l 1
 1080 643 l 1
 1080 615 l 1
 1027 615 l 1
 1027 590 l 1
 1080 590 l 1
 1080 302 l 1x9b3c0803c0
1467 701 m 1x9b3c0243c0
 1467 302 l 1
 1267 302 l 1
 1243 560 l 1
 1209 560 l 1
 1209 332 l 1
 1238 332 l 1
 1238 302 l 1
 1126 302 l 1
 1126 590 l 1
 1326 590 l 1
 1351 332 l 1
 1379 332 l 1
 1379 615 l 1
 1126 615 l 1
 1126 643 l 1
 1379 643 l 1
 1379 701 l 1
 1467 701 l 1x9b3c0243c0
1777 302 m 1
 1766 302 l 1
 1766 291 l 1
 1678 291 l 1
 1678 302 l 1
 1537 302 l 1
 1537 615 l 1
 1508 615 l 1
 1508 643 l 1
 1625 643 l 1
 1625 332 l 1x993c000bc0
 1678 332 l 1
 1678 643 l 1
 1766 643 l 1
 1766 332 l 1
 1777 332 l 1
 1777 302 l 1
1949 643 m 1
 1949 302 l 1
 1866 302 l 1
 1866 615 l 1
 1807 615 l 1
 1807 643 l 1
 1949 643 l 1
2264 302 m 1
 2248 302 l 1
 2248 291 l 1
 2165 291 l 1
 2165 302 l 1
 2023 302 l 1
 2023 615 l 1
 1993 615 l 1
 1993 643 l 1
 2106 643 l 1
 2106 332 l 1
 2165 332 l 1
 2165 643 l 1
 2248 643 l 1
 2248 332 l 1
 2264 332 l 1
 2264 302 l 1
847 224 m 1xb93d8003c0
 847 0 l 1
 789 0 l 1
 789 208 l 1
 753 208 l 1
 753 0 l 1
 694 0 l 1
 694 208 l 1
 678 208 l 1
 678 224 l 1
 847 224 l 1xb93d8003c0
972 0 m 1xb93c1003c0
 894 0 l 1
 894 17 l 1
 914 17 l 1
 914 169 l 1xd93c1003c0
 877 169 l 1
 877 224 l 1xd93c2003c0
 972 224 l 1
 972 208 l 1xb93c1003c0
 935 208 l 1
 935 186 l 1xb93c2003c0
 972 186 l 1
 972 0 l 1xb93c1003c0
1093 224 m 1xb93c0403c0
 1093 0 l 1
 1038 0 l 1
 1038 208 l 1
 1002 208 l 1
 1002 224 l 1
 1093 224 l 1xb93c0403c0
1454 261 m 1xb93c0123c0
 1454 0 l 1
 1321 0 l 1xb93c0083c0
 1304 208 l 1
 1292 208 l 1
 1276 0 l 1
 1143 0 l 1
 1143 208 l 1
 1121 208 l 1
 1121 224 l 1
 1196 224 l 1
 1196 17 l 1
 1218 17 l 1
 1234 224 l 1
 1359 224 l 1
 1375 17 l 1
 1395 17 l 1
 1395 261 l 1
 1454 261 l 1xb93c0123c0
1209 253 m 1x993c0243c0
 1209 274 l 1
 1379 274 l 1
 1379 253 l 1
 1209 253 l 1x993c0243c0
1653 224 m 1xb93c0017c0
 1653 0 l 1
 1595 0 l 1
 1595 208 l 1
 1558 208 l 1
 1558 0 l 1
 1500 0 l 1
 1500 208 l 1
 1483 208 l 1
 1483 224 l 1
 1653 224 l 1xb93c0017c0
EndSplineSet
Validated: 1
LCarets2: 13 0 0 0 0 0 0 0 0 0 0 0 0 0 
Ligature2: "'liga' Standard Ligatures in Latin lookup 19 subtable" C H A K R A D e i g n parenleft c parenright
EndChar

StartChar: franc
Encoding: 8355 8355 466
Width: 584
VWidth: 1661
Flags: W
HStem: 0 21G<53 115.267> 150 59<37 83 154 322> 329 60<193 540> 658 60<306 640>
LayerCount: 2
Fore
SplineSet
306 658 m 1
 239 603 l 1
 193 389 l 1
 552 389 l 1
 540 329 l 1
 181 329 l 1
 154 209 l 1
 334 209 l 1
 322 150 l 1
 143 150 l 1
 111 0 l 1
 53 0 l 1
 83 150 l 1
 25 150 l 1
 37 209 l 1
 95 209 l 1
 184 628 l 1
 292 718 l 1
 651 718 l 1
 640 658 l 1
 306 658 l 1
EndSplineSet
Validated: 1
EndChar

StartChar: dong
Encoding: 8363 8363 467
Width: 616
VWidth: 1661
Flags: W
HStem: -110 60<47 510> 0 60<184 434> 449 59<267 437> 583 60<523 600 673 719>
LayerCount: 2
Fore
SplineSet
673 643 m 1
 733 643 l 1
 719 583 l 1
 659 583 l 1
 555 90 l 1
 445 0 l 1
 146 0 l 1
 76 90 l 1
 146 419 l 1
 254 508 l 1
 463 508 l 1
 558 389 l 1
 600 583 l 1
 510 583 l 1
 523 643 l 1
 613 643 l 1
 628 718 l 1
 688 718 l 1
 673 643 l 1
500 115 m 1
 542 314 l 1
 437 449 l 1
 267 449 l 1
 201 394 l 1
 141 115 l 1
 184 60 l 1
 434 60 l 1
 500 115 l 1
33 -110 m 1
 47 -50 l 1
 523 -50 l 1
 510 -110 l 1
 33 -110 l 1
EndSplineSet
Validated: 1
EndChar

StartChar: Dcroat
Encoding: 272 272 474
Width: 616
VWidth: 1661
Flags: W
HStem: 0 60<123 427> 329 60<75 121 193 390> 658 60<251 555>
CounterMasks: 1 e0
LayerCount: 2
Fore
SplineSet
591 718 m 1
 663 628 l 1
 548 90 l 1
 440 0 l 1
 53 0 l 1
 121 329 l 1
 63 329 l 1
 75 389 l 1
 133 389 l 1
 203 718 l 1
 591 718 l 1
493 115 m 1
 598 603 l 1
 555 658 l 1
 251 658 l 1
 193 389 l 1
 402 389 l 1
 390 329 l 1
 181 329 l 1
 123 60 l 1
 427 60 l 1
 493 115 l 1
EndSplineSet
Validated: 1
EndChar

StartChar: dcroat
Encoding: 273 273 475
Width: 616
VWidth: 1661
Flags: W
HStem: 0 60<183 432> 449 59<264 435> 583 60<520 596 669 716>
LayerCount: 2
Fore
SplineSet
729 643 m 1
 716 583 l 1
 656 583 l 1
 552 90 l 1
 445 0 l 1
 146 0 l 1
 76 90 l 1
 145 419 l 1
 253 508 l 1
 462 508 l 1
 555 389 l 1
 596 583 l 1
 507 583 l 1
 520 643 l 1
 610 643 l 1
 625 718 l 1
 684 718 l 1
 669 643 l 1
 729 643 l 1
497 115 m 1
 540 314 l 1
 435 449 l 1
 264 449 l 1
 199 394 l 1
 140 115 l 1
 183 60 l 1
 432 60 l 1
 497 115 l 1
EndSplineSet
Validated: 1
EndChar

StartChar: Idotaccent
Encoding: 304 304 480
Width: 197
VWidth: 1661
Flags: W
HStem: 0 21<53 115.218> 696 20<198.81 262> 767 108<246 268>
VStem: 53 209 197 118
LayerCount: 2
Back
SplineSet
111 0 m 1
 53 0 l 1
 204 716 l 1
 264 716 l 1
 111 0 l 1
281 859 m 1
 297 837 l 1
 291 806 l 1
 264 784 l 1
 233 784 l 1
 216 806 l 1
 223 837 l 1
 249 859 l 1
 281 859 l 1
EndSplineSet
Fore
Refer: 42 73 N 1 0 0 1 0 0 3
Refer: 205 729 N 1 0 0 1 -21 11 2
Validated: 1
EndChar

StartChar: dotlessi
Encoding: 305 305 481
Width: 197
VWidth: 1661
Flags: W
HStem: 0 21G<53 117.26> 487 20G<156.74 221>
VStem: 53 168
LayerCount: 2
Fore
SplineSet
53 0 m 1
 161 507 l 1
 221 507 l 1
 113 0 l 1
 53 0 l 1
EndSplineSet
Validated: 1
EndChar

StartChar: Scedilla
Encoding: 350 350 482
Width: 616
VWidth: 1661
Flags: W
HStem: -249 51<188 256> 0 60<196 286 332 430> 359 58<257 495> 656 60<309 543>
LayerCount: 2
Fore
SplineSet
357 -108 m 1
 341 -188 l 1
 266 -249 l 1
 176 -249 l 1
 188 -198 l 1
 256 -198 l 1
 292 -166 l 1
 299 -131 l 1
 276 -100 l 1
 208 -100 l 1
 214 -70 l 1
 286 0 l 1
 159 0 l 1
 88 90 l 1
 101 150 l 1
 161 150 l 1
 153 113 l 1
 196 60 l 1
 430 60 l 1
 497 115 l 1
 538 304 l 1
 495 359 l 1
 221 359 l 1
 150 447 l 1
 188 626 l 1
 296 716 l 1
 580 716 l 1
 651 626 l 1
 638 566 l 1
 578 566 l 1
 586 603 l 1
 543 656 l 1
 309 656 l 1
 243 601 l 1
 214 472 l 1
 257 417 l 1
 532 417 l 1
 603 329 l 1
 552 90 l 1
 444 0 l 1
 332 0 l 1
 296 -48 l 1
 309 -48 l 1
 357 -108 l 1
EndSplineSet
Validated: 1
EndChar

StartChar: scedilla
Encoding: 351 351 483
Width: 617
VWidth: 1661
Flags: W
HStem: -249 51<193 261> 0 60<198 291 337 432> 224 60<229 467> 449 59<264 498>
LayerCount: 2
Fore
SplineSet
362 -108 m 1
 346 -188 l 1
 271 -249 l 1
 181 -249 l 1
 193 -198 l 1
 261 -198 l 1
 297 -166 l 1
 304 -131 l 1
 281 -100 l 1
 213 -100 l 1
 219 -70 l 1
 291 0 l 1
 159 0 l 1
 88 90 l 1
 101 150 l 1
 161 150 l 1
 154 115 l 1
 198 60 l 1
 432 60 l 1
 498 115 l 1
 510 171 l 1
 467 224 l 1
 193 224 l 1
 121 314 l 1
 145 419 l 1
 253 508 l 1
 537 508 l 1
 608 419 l 1
 595 359 l 1
 535 359 l 1
 542 394 l 1
 498 449 l 1
 264 449 l 1
 198 394 l 1
 186 339 l 1
 229 284 l 1
 503 284 l 1
 575 196 l 1
 552 90 l 1
 444 0 l 1
 337 0 l 1
 301 -48 l 1
 314 -48 l 1
 362 -108 l 1
EndSplineSet
Validated: 1
EndChar

StartChar: Ohorn
Encoding: 416 416 486
Width: 646
VWidth: 1661
Flags: W
HStem: 0 60<181 460> 658 60<307 586>
LayerCount: 2
Fore
SplineSet
748 754 m 1
 734 696 l 1
 678 650 l 1
 696 628 l 1
 581 90 l 1
 472 0 l 1
 143 0 l 1
 75 90 l 1
 188 628 l 1
 296 718 l 1
 625 718 l 1
 648 688 l 1
 650 688 l 1
 686 718 l 1
 694 754 l 1
 748 754 l 1
527 115 m 1
 630 603 l 1
 586 658 l 1
 307 658 l 1
 241 603 l 1
 138 115 l 1
 181 60 l 1
 460 60 l 1
 527 115 l 1
EndSplineSet
Validated: 1
EndChar

StartChar: ohorn
Encoding: 417 417 487
Width: 616
VWidth: 1661
Flags: W
HStem: 0 60<181 430> 449 59<264 513>
LayerCount: 2
Fore
SplineSet
669 547 m 1
 658 488 l 1
 603 442 l 1
 621 419 l 1
 552 90 l 1
 444 0 l 1
 145 0 l 1
 73 90 l 1
 143 419 l 1
 253 508 l 1
 552 508 l 1
 573 480 l 1
 611 510 l 1
 618 547 l 1
 669 547 l 1
430 60 m 1
 497 115 l 1
 557 394 l 1
 513 449 l 1
 264 449 l 1
 198 394 l 1
 138 115 l 1
 181 60 l 1
 430 60 l 1
EndSplineSet
Validated: 1
EndChar

StartChar: Uhorn
Encoding: 431 431 488
Width: 694
VWidth: 1661
Flags: W
HStem: 0 60<181 430> 633 53<678 699>
LayerCount: 2
Fore
SplineSet
744 753 m 1
 797 753 l 1
 784 694 l 1
 709 633 l 1
 666 633 l 1
 552 90 l 1
 442 0 l 1
 143 0 l 1
 75 90 l 1
 206 718 l 1
 266 718 l 1
 138 115 l 1
 181 60 l 1
 430 60 l 1
 497 115 l 1
 625 718 l 1
 684 718 l 1
 678 686 l 1
 699 686 l 1
 736 716 l 1
 744 753 l 1
EndSplineSet
Validated: 1
EndChar

StartChar: uhorn
Encoding: 432 432 489
Width: 661
VWidth: 1661
Flags: W
HStem: 0 60<179 319> 425 52<603 623> 488 20G<156.694 221 545.683 610>
LayerCount: 2
Fore
SplineSet
666 545 m 1
 718 545 l 1
 706 487 l 1
 633 425 l 1
 591 425 l 1
 502 0 l 1
 442 0 l 1
 467 120 l 1
 322 0 l 1
 143 0 l 1
 71 90 l 1
 161 508 l 1
 221 508 l 1
 136 115 l 1
 179 60 l 1
 319 60 l 1
 482 193 l 1
 550 508 l 1
 610 508 l 1
 603 477 l 1
 623 477 l 1
 659 508 l 1
 666 545 l 1
EndSplineSet
Validated: 1
EndChar

StartChar: hookabovecomb
Encoding: 777 777 490
Width: 285
VWidth: 1661
Flags: W
HStem: 861 44<135 173.994>
VStem: 174 50<827.727 860.9>
LayerCount: 2
Fore
SplineSet
136 861 m 1
 135 859 107 843 90 836 c 1
 71 847 l 1
 135 905 l 1
 193 905 l 1
 224 865 l 1
 224 864 l 1
 213 807 l 1
 135 756 l 1
 115 769 l 1
 171 826 l 1
 171 832 174 842 174 846 c 256
 174 848 166 859 164 861 c 1
 136 861 l 1
EndSplineSet
Validated: 1
EndChar

StartChar: tildecomb
Encoding: 771 771 491
Width: 443
VWidth: 1661
Flags: W
HStem: 776 108
VStem: 56 321
LayerCount: 2
Fore
SplineSet
377 859 m 1
 239 776 l 1
 174 822 l 1
 71 777 l 1
 56 799 l 1
 189 884 l 1
 256 836 l 1
 362 882 l 1
 377 859 l 1
EndSplineSet
Validated: 1
EndChar

StartChar: acutecomb
Encoding: 769 769 492
Width: 313
VWidth: 1661
Flags: W
HStem: 756 149
VStem: 55 196
LayerCount: 2
Fore
SplineSet
71 756 m 1
 55 776 l 1
 211 905 l 1
 251 856 l 1
 71 756 l 1
EndSplineSet
Validated: 1
EndChar

StartChar: dotbelowcomb
Encoding: 803 803 493
Width: 244
VWidth: 1661
Flags: W
HStem: -158 108<105 128>
VStem: 58 116
LayerCount: 2
Fore
SplineSet
166 -126 m 1
 128 -158 l 1
 83 -158 l 1
 58 -126 l 1
 66 -81 l 1
 105 -50 l 1
 150 -50 l 1
 174 -81 l 1
 166 -126 l 1
EndSplineSet
Validated: 1
EndChar

StartChar: gravecomb
Encoding: 768 768 494
Width: 313
VWidth: 1661
Flags: W
HStem: 756 149
VStem: 73 161
LayerCount: 2
Fore
SplineSet
73 856 m 1
 133 905 l 1
 234 776 l 1
 209 756 l 1
 73 856 l 1
EndSplineSet
Validated: 1
EndChar

